<svg width="20" height="20" viewBox="0 0 20 20" fill="none" xmlns="http://www.w3.org/2000/svg">
<path d="M17.7501 0.790832C15.1009 3.25511 12.8597 5.60094 10.8078 8.66154C9.90289 10.0115 8.89656 11.6003 8.23876 13.1004C7.86323 13.8959 7.18627 15.1388 6.95549 16.3338C5.69326 15.0716 4.33746 13.639 2.95027 12.5169C1.96152 11.7174 -0.886342 13.3475 0.272899 14.285C2.35055 15.9646 4.07842 18.0566 6.09925 19.8112C6.9445 20.5442 8.81775 18.9523 9.25796 18.2844C10.7029 16.0841 10.9004 13.3944 11.9535 10.9942C13.5615 7.32343 16.4131 4.30805 19.2286 1.68954C21.094 -0.180435 19.1674 -0.52534 17.7529 0.790832" fill="#00A78E"/>
</svg>
