<svg width="286" height="88" viewBox="0 0 286 88" fill="none" xmlns="http://www.w3.org/2000/svg">
<path d="M222.686 64.6372C262.635 57.8504 279.215 32.2127 274.948 10.3945L277.317 10.574C281.743 33.1999 264.745 59.7551 223.693 66.7287L222.686 64.6372Z" fill="black"/>
<path d="M220.604 65.9325L226.916 57.085L229.47 58.8068L225.015 65.05L234.042 68.3581L233.572 70.6837L220.604 65.9325Z" fill="black"/>
<path d="M4.4938 71.7603V70.0107H5.68269V71.7603C6.90208 71.8533 7.8645 72.3776 8.56999 73.333C9.27555 74.2822 9.62829 75.4641 9.62829 76.8786C9.62829 78.2621 9.2864 79.4378 8.60269 80.4056C7.91898 81.3734 6.94563 81.907 5.68269 82.0063V83.7651H4.4938V82.0063C3.36151 81.9442 2.41867 81.4541 1.66526 80.5359C0.911859 79.6115 0.535156 78.3924 0.535156 76.8786C0.535156 75.3586 0.909682 74.1426 1.65873 73.2306C2.41213 72.3186 3.35716 71.8285 4.4938 71.7603ZM5.68269 73.3051V80.4521C6.50143 80.3963 7.14595 80.0582 7.61626 79.4378C8.08665 78.8174 8.32182 77.9643 8.32182 76.8786C8.32182 75.8115 8.09097 74.9678 7.62934 74.3474C7.16773 73.7208 6.51884 73.3733 5.68269 73.3051ZM4.4938 73.3144C3.70555 73.364 3.06755 73.6959 2.5798 74.3101C2.09205 74.9243 1.84817 75.7805 1.84817 76.8786C1.84817 77.9643 2.08769 78.8174 2.56674 79.4378C3.05013 80.0582 3.69249 80.3932 4.4938 80.4428V73.3144ZM10.6212 78.8236C10.6212 76.9934 10.9783 75.6378 11.6925 74.7568C12.2892 74.0248 13.0164 73.6587 13.8744 73.6587C14.8281 73.6587 15.6076 74.1054 16.213 74.9988C16.8183 75.886 17.1209 77.1144 17.1209 78.684C17.1209 79.9558 16.986 80.9577 16.7159 81.6898C16.4503 82.4157 16.0605 82.9803 15.5467 83.3835C15.0371 83.7868 14.4797 83.9884 13.8744 83.9884C12.9032 83.9884 12.1171 83.5449 11.5161 82.6577C10.9195 81.7705 10.6212 80.4925 10.6212 78.8236ZM11.8297 78.8236C11.8297 80.0892 12.0235 81.0384 12.4111 81.6713C12.7987 82.2979 13.2865 82.6112 13.8744 82.6112C14.4579 82.6112 14.9434 82.2947 15.331 81.662C15.7186 81.0291 15.9125 80.0644 15.9125 78.7677C15.9125 77.5456 15.7165 76.6212 15.3245 75.9945C14.937 75.3617 14.4536 75.0453 13.8744 75.0453C13.2865 75.0453 12.7987 75.3586 12.4111 75.9852C12.0235 76.6118 11.8297 77.558 11.8297 78.8236ZM17.5717 73.8821H23.2091V75.2687H20.9751V83.7651H19.8057V75.2687H17.5717V73.8821ZM23.7383 78.8236C23.7383 76.9934 24.0954 75.6378 24.8096 74.7568C25.4062 74.0248 26.1335 73.6587 26.9914 73.6587C27.9451 73.6587 28.7247 74.1054 29.33 74.9988C29.9353 75.886 30.2381 77.1144 30.2381 78.684C30.2381 79.9558 30.103 80.9577 29.833 81.6898C29.5674 82.4157 29.1776 82.9803 28.6637 83.3835C28.1542 83.7868 27.5968 83.9884 26.9914 83.9884C26.0203 83.9884 25.2342 83.5449 24.6333 82.6577C24.0366 81.7705 23.7383 80.4925 23.7383 78.8236ZM24.9468 78.8236C24.9468 80.0892 25.1406 81.0384 25.5282 81.6713C25.9157 82.2979 26.4035 82.6112 26.9914 82.6112C27.575 82.6112 28.0606 82.2947 28.4482 81.662C28.8358 81.0291 29.0295 80.0644 29.0295 78.7677C29.0295 77.5456 28.8335 76.6212 28.4416 75.9945C28.054 75.3617 27.5706 75.0453 26.9914 75.0453C26.4035 75.0453 25.9157 75.3586 25.5282 75.9852C25.1406 76.6118 24.9468 77.558 24.9468 78.8236ZM35.3464 73.8821H36.5222V81.42L39.7819 73.8821H41.0492V83.7651H39.8733V76.2737L36.6137 83.7651H35.3464V73.8821ZM44.3545 79.2982V77.986C44.851 77.9798 45.1885 77.9519 45.3671 77.9023C45.55 77.8527 45.722 77.7038 45.8832 77.4556C46.0443 77.2074 46.1249 76.8972 46.1249 76.525C46.1249 76.0721 46.0181 75.7123 45.8048 75.4455C45.5958 75.1725 45.3235 75.036 44.9882 75.036C44.3262 75.036 43.8624 75.5913 43.5968 76.7018L42.4798 76.4412C42.8281 74.5862 43.6687 73.6587 45.0013 73.6587C45.7416 73.6587 46.3208 73.9472 46.7389 74.5242C47.1613 75.1012 47.3726 75.7898 47.3726 76.5901C47.3726 77.3967 47.0982 78.0388 46.5495 78.5165C46.8979 78.7833 47.1592 79.1245 47.3333 79.5402C47.5075 79.9496 47.5946 80.4366 47.5946 81.0012C47.5946 81.8883 47.3682 82.608 46.9152 83.1602C46.4624 83.7124 45.8287 83.9884 45.0143 83.9884C43.4335 83.9884 42.5168 82.9864 42.2642 80.9826L43.3682 80.6476C43.4684 81.2804 43.6708 81.7705 43.9757 82.1179C44.2849 82.4654 44.6376 82.639 45.0339 82.639C45.4302 82.639 45.7591 82.4809 46.0203 82.1645C46.286 81.8419 46.4188 81.4324 46.4188 80.936C46.4188 80.5514 46.3361 80.2164 46.1706 79.931C46.0051 79.6456 45.8287 79.4688 45.6415 79.4006C45.4542 79.3261 45.1145 79.2889 44.6224 79.2889C44.5832 79.2889 44.4939 79.292 44.3545 79.2982ZM52.716 73.8821H54.5452L56.3677 81.7922L58.3927 73.8821H60.0846V83.7651H58.9088V75.8084L56.8576 83.7651H55.8059L53.8658 75.4269V83.7651H52.716V73.8821ZM61.4433 78.8236C61.4433 76.9934 61.8005 75.6378 62.5147 74.7568C63.1113 74.0248 63.8386 73.6587 64.6965 73.6587C65.6502 73.6587 66.4298 74.1054 67.0351 74.9988C67.6404 75.886 67.9431 77.1144 67.9431 78.684C67.9431 79.9558 67.8081 80.9577 67.5381 81.6898C67.2725 82.4157 66.8827 82.9803 66.3688 83.3835C65.8592 83.7868 65.3018 83.9884 64.6965 83.9884C63.7253 83.9884 62.9393 83.5449 62.3383 82.6577C61.7417 81.7705 61.4433 80.4925 61.4433 78.8236ZM62.6519 78.8236C62.6519 80.0892 62.8456 81.0384 63.2332 81.6713C63.6208 82.2979 64.1086 82.6112 64.6965 82.6112C65.28 82.6112 65.7657 82.2947 66.1532 81.662C66.5408 81.0291 66.7346 80.0644 66.7346 78.7677C66.7346 77.5456 66.5387 76.6212 66.1467 75.9945C65.7591 75.3617 65.2757 75.0453 64.6965 75.0453C64.1086 75.0453 63.6208 75.3586 63.2332 75.9852C62.8456 76.6118 62.6519 77.558 62.6519 78.8236ZM74.0771 80.5824L75.2923 80.7965C75.1005 81.8078 74.7452 82.5926 74.2273 83.1509C73.7091 83.7093 73.0471 83.9884 72.2414 83.9884C71.2267 83.9884 70.4211 83.5449 69.8245 82.6577C69.2322 81.7644 68.9361 80.5142 68.9361 78.9073C68.9361 77.2447 69.2365 75.9542 69.8375 75.036C70.4385 74.1178 71.218 73.6587 72.1761 73.6587C73.1037 73.6587 73.8615 74.1085 74.4494 75.0081C75.0373 75.9077 75.3309 77.1733 75.3309 78.805C75.3309 78.9042 75.3294 79.0531 75.325 79.2517H70.151C70.1946 80.3374 70.4102 81.1688 70.7978 81.7457C71.1853 82.3227 71.6687 82.6112 72.2479 82.6112C72.6791 82.6112 73.0471 82.4498 73.352 82.1272C73.6568 81.8046 73.8985 81.2897 74.0771 80.5824ZM70.2164 77.8744H74.0901C74.0378 77.043 73.8898 76.4195 73.6459 76.0038C73.2714 75.3586 72.7858 75.036 72.1892 75.036C71.6492 75.036 71.1941 75.2935 70.8239 75.8084C70.4581 76.3234 70.2556 77.012 70.2164 77.8744ZM76.775 73.8821H77.9509V81.42L81.2107 73.8821H82.4779V83.7651H81.3021V76.2737L78.0423 83.7651H76.775V73.8821ZM80.8577 70.141H81.6611C81.5957 70.9165 81.3958 71.5121 81.0598 71.9278C80.7291 72.3435 80.2869 72.5513 79.7339 72.5513C79.1765 72.5513 78.7305 72.3466 78.3953 71.9371C78.0638 71.5214 77.8661 70.9227 77.8007 70.141H78.6042C78.6651 70.5629 78.7848 70.8793 78.9631 71.0902C79.146 71.295 79.3898 71.3974 79.6952 71.3974C80.0475 71.3974 80.3136 71.2981 80.492 71.0996C80.6748 70.8948 80.7967 70.5753 80.8577 70.141ZM92.1654 73.8821V78.1536C92.54 78.1536 92.8031 78.0512 92.9554 77.8465C93.1078 77.6417 93.33 77.0461 93.6221 76.0597C93.8964 75.1229 94.1424 74.5242 94.3602 74.2636C94.5735 74.0092 94.9131 73.8821 95.3792 73.8821H95.8102V75.2687L95.4907 75.2594C95.177 75.2594 94.9763 75.3245 94.8894 75.4548C94.7979 75.5913 94.6582 75.9976 94.4709 76.6739C94.297 77.3191 94.1357 77.7658 93.9878 78.014C93.8399 78.2621 93.6088 78.4886 93.2951 78.6933C93.805 78.8856 94.3015 79.5557 94.7846 80.7034L96.0786 83.7651H94.7846L93.524 80.7034C93.2669 80.083 93.0432 79.6766 92.8514 79.4843C92.6596 79.292 92.4307 79.1958 92.1654 79.1958V83.7651H90.9636V79.1958C90.7019 79.1958 90.4752 79.292 90.2842 79.4843C90.0925 79.6704 89.868 80.0768 89.6109 80.7034L88.3503 83.7651H87.0571L88.3436 80.7034C88.8319 79.5557 89.3299 78.8856 89.8398 78.6933C89.4912 78.4637 89.2474 78.2156 89.1084 77.9488C88.9687 77.6758 88.7598 77.0306 88.4811 76.0132C88.3852 75.6719 88.2827 75.461 88.1742 75.3803C88.0605 75.2997 87.8932 75.2594 87.671 75.2594C87.6145 75.2594 87.4993 75.2625 87.3246 75.2687V73.8821H87.4881C87.9408 73.8821 88.2589 73.9224 88.4417 74.003C88.629 74.0775 88.7948 74.2419 88.9382 74.4963C89.0861 74.7444 89.2779 75.2656 89.5135 76.0597C89.8004 77.0337 90.0182 77.6262 90.1661 77.8371C90.3192 78.0481 90.5845 78.1536 90.9636 78.1536V73.8821H92.1654ZM96.9207 73.8821H98.0965V81.42L101.356 73.8821H102.624V83.7651H101.448V76.2737L98.1879 83.7651H96.9207V73.8821ZM105.929 79.2982V77.986C106.425 77.9798 106.763 77.9519 106.942 77.9023C107.125 77.8527 107.296 77.7038 107.458 77.4556C107.619 77.2074 107.699 76.8972 107.699 76.525C107.699 76.0721 107.593 75.7123 107.38 75.4455C107.17 75.1725 106.898 75.036 106.563 75.036C105.901 75.036 105.437 75.5913 105.171 76.7018L104.054 76.4412C104.403 74.5862 105.243 73.6587 106.576 73.6587C107.316 73.6587 107.895 73.9472 108.313 74.5242C108.736 75.1012 108.947 75.7898 108.947 76.5901C108.947 77.3967 108.673 78.0388 108.124 78.5165C108.472 78.7833 108.734 79.1245 108.908 79.5402C109.082 79.9496 109.169 80.4366 109.169 81.0012C109.169 81.8883 108.943 82.608 108.49 83.1602C108.037 83.7124 107.403 83.9884 106.589 83.9884C105.008 83.9884 104.091 82.9864 103.839 80.9826L104.942 80.6476C105.043 81.2804 105.246 81.7705 105.55 82.1179C105.86 82.4654 106.212 82.639 106.609 82.639C107.005 82.639 107.333 82.4809 107.595 82.1645C107.86 81.8419 107.993 81.4324 107.993 80.936C107.993 80.5514 107.91 80.2164 107.745 79.931C107.579 79.6456 107.403 79.4688 107.216 79.4006C107.029 79.3261 106.689 79.2889 106.197 79.2889C106.158 79.2889 106.068 79.292 105.929 79.2982ZM110.541 73.8821H111.717V77.9953H114.976V73.8821H116.152V83.7651H114.976V79.3819H111.717V83.7651H110.541V73.8821ZM117.929 73.8821H119.105V81.42L122.365 73.8821H123.632V83.7651H122.456V76.2737L119.196 83.7651H117.929V73.8821ZM125.735 83.7651V81.8573H127.075V83.7651H125.735ZM133.868 70.1224H139.695V82.1552H140.557V86.9478H139.427V83.7651H133.097V86.9478H131.968V82.1552H132.712C133.483 80.4987 133.868 77.1516 133.868 72.1139V70.1224ZM138.428 71.7324H135.09V72.4303C135.09 73.5905 135.016 75.1787 134.868 77.195C134.724 79.2051 134.439 80.8585 134.012 82.1552H138.428V71.7324ZM146.443 82.546C146.007 83.0734 145.587 83.4456 145.182 83.6627C144.782 83.8799 144.351 83.9884 143.889 83.9884C143.127 83.9884 142.541 83.7248 142.131 83.1975C141.723 82.6639 141.517 81.9846 141.517 81.1594C141.517 80.6755 141.594 80.235 141.746 79.838C141.903 79.4347 142.105 79.1121 142.354 78.8701C142.606 78.6282 142.89 78.4451 143.203 78.3211C143.434 78.2342 143.782 78.1505 144.248 78.0698C145.197 77.9085 145.897 77.7162 146.345 77.4928C146.349 77.2633 146.352 77.1175 146.352 77.0554C146.352 76.373 146.241 75.8922 146.019 75.613C145.718 75.2345 145.272 75.0453 144.679 75.0453C144.126 75.0453 143.717 75.1849 143.451 75.4641C143.19 75.7371 142.997 76.2241 142.87 76.9252L141.72 76.7018C141.824 76.0007 141.997 75.4362 142.236 75.0081C142.476 74.5738 142.822 74.2419 143.275 74.0123C143.728 73.7766 144.253 73.6587 144.849 73.6587C145.442 73.6587 145.923 73.758 146.293 73.9565C146.663 74.155 146.935 74.4063 147.11 74.7103C147.284 75.0081 147.405 75.3865 147.475 75.8456C147.515 76.131 147.534 76.646 147.534 77.3905V79.6239C147.534 81.1812 147.558 82.1676 147.606 82.5832C147.658 82.9927 147.758 83.3867 147.906 83.7651H146.679C146.557 83.4177 146.478 83.0113 146.443 82.546ZM146.345 78.805C145.918 79.0531 145.278 79.2641 144.424 79.4378C143.941 79.5371 143.599 79.6487 143.399 79.7728C143.199 79.8969 143.044 80.0799 142.935 80.3219C142.826 80.5576 142.772 80.8213 142.772 81.1129C142.772 81.5596 142.889 81.9319 143.124 82.2296C143.364 82.5274 143.712 82.6763 144.17 82.6763C144.623 82.6763 145.026 82.5367 145.379 82.2576C145.731 81.9721 145.99 81.5844 146.155 81.0942C146.282 80.7158 146.345 80.1575 146.345 79.4192V78.805ZM149.67 83.7651V81.8573H151.009V83.7651C151.009 84.4662 150.922 85.0307 150.748 85.4588C150.574 85.8931 150.297 86.2281 149.918 86.4638L149.592 85.7473C149.84 85.5922 150.023 85.3627 150.141 85.0587C150.258 84.7608 150.323 84.3297 150.336 83.7651H149.67ZM162.271 73.8821V83.7651H161.102V79.9124H160.423C160.009 79.9124 159.699 79.9899 159.495 80.145C159.294 80.2939 159.001 80.7809 158.613 81.6061L157.587 83.7651H156.13L157.398 81.1035C157.786 80.2908 158.171 79.8317 158.554 79.7263C157.884 79.596 157.385 79.2517 157.058 78.6933C156.736 78.1349 156.575 77.4928 156.575 76.7669C156.575 75.9108 156.786 75.2159 157.209 74.6824C157.635 74.1488 158.252 73.8821 159.057 73.8821H162.271ZM161.102 75.2687H159.43C158.728 75.2687 158.275 75.4238 158.071 75.734C157.87 76.0442 157.77 76.4071 157.77 76.8228C157.77 77.4122 157.919 77.8465 158.214 78.1256C158.515 78.3986 159.044 78.5351 159.802 78.5351H161.102V75.2687ZM167.151 73.8821H172.788V75.2687H170.555V83.7651H169.385V75.2687H167.151V73.8821ZM178.282 82.546C177.846 83.0734 177.427 83.4456 177.021 83.6627C176.621 83.8799 176.19 83.9884 175.728 83.9884C174.966 83.9884 174.38 83.7248 173.97 83.1975C173.562 82.6639 173.357 81.9846 173.357 81.1594C173.357 80.6755 173.433 80.235 173.585 79.838C173.742 79.4347 173.944 79.1121 174.193 78.8701C174.445 78.6282 174.729 78.4451 175.042 78.3211C175.273 78.2342 175.621 78.1505 176.087 78.0698C177.036 77.9085 177.736 77.7162 178.184 77.4928C178.188 77.2633 178.191 77.1175 178.191 77.0554C178.191 76.373 178.08 75.8922 177.858 75.613C177.557 75.2345 177.111 75.0453 176.518 75.0453C175.965 75.0453 175.556 75.1849 175.29 75.4641C175.029 75.7371 174.835 76.2241 174.708 76.9252L173.559 76.7018C173.663 76.0007 173.836 75.4362 174.075 75.0081C174.315 74.5738 174.661 74.2419 175.114 74.0123C175.567 73.7766 176.092 73.6587 176.688 73.6587C177.28 73.6587 177.762 73.758 178.132 73.9565C178.502 74.155 178.774 74.4063 178.949 74.7103C179.123 75.0081 179.245 75.3865 179.314 75.8456C179.353 76.131 179.373 76.646 179.373 77.3905V79.6239C179.373 81.1812 179.397 82.1676 179.445 82.5832C179.497 82.9927 179.598 83.3867 179.745 83.7651H178.518C178.395 83.4177 178.317 83.0113 178.282 82.546ZM178.184 78.805C177.757 79.0531 177.117 79.2641 176.263 79.4378C175.78 79.5371 175.438 79.6487 175.238 79.7728C175.038 79.8969 174.883 80.0799 174.774 80.3219C174.665 80.5576 174.611 80.8213 174.611 81.1129C174.611 81.5596 174.729 81.9319 174.963 82.2296C175.203 82.5274 175.551 82.6763 176.008 82.6763C176.462 82.6763 176.865 82.5367 177.217 82.2576C177.57 81.9721 177.829 81.5844 177.994 81.0942C178.121 80.7158 178.184 80.1575 178.184 79.4192V78.805ZM181.196 73.8821H182.371V78.1536C182.746 78.1536 183.008 78.0512 183.155 77.8465C183.308 77.6417 183.53 77.0461 183.821 76.0597C184.053 75.278 184.24 74.763 184.383 74.5149C184.527 74.2667 184.692 74.0992 184.88 74.0123C185.067 73.9255 185.367 73.8821 185.781 73.8821H186.016V75.2687L185.69 75.2594C185.381 75.2594 185.182 75.3245 185.095 75.4548C185.004 75.5913 184.865 75.9976 184.678 76.6739C184.498 77.3191 184.336 77.7658 184.187 78.014C184.039 78.2621 183.811 78.4886 183.502 78.6933C184.006 78.8856 184.503 79.5557 184.991 80.7034L186.278 83.7651H184.985L183.73 80.7034C183.473 80.0892 183.249 79.6859 183.057 79.4936C182.866 79.2951 182.637 79.1958 182.371 79.1958V83.7651H181.196V73.8821ZM194.972 73.8821V78.1536C195.347 78.1536 195.611 78.0512 195.763 77.8465C195.915 77.6417 196.138 77.0461 196.429 76.0597C196.703 75.1229 196.949 74.5242 197.167 74.2636C197.38 74.0092 197.72 73.8821 198.186 73.8821H198.617V75.2687L198.298 75.2594C197.984 75.2594 197.783 75.3245 197.696 75.4548C197.605 75.5913 197.466 75.9976 197.279 76.6739C197.104 77.3191 196.943 77.7658 196.795 78.014C196.647 78.2621 196.416 78.4886 196.103 78.6933C196.612 78.8856 197.108 79.5557 197.592 80.7034L198.885 83.7651H197.592L196.331 80.7034C196.075 80.083 195.85 79.6766 195.658 79.4843C195.467 79.292 195.238 79.1958 194.972 79.1958V83.7651H193.77V79.1958C193.509 79.1958 193.283 79.292 193.091 79.4843C192.899 79.6704 192.675 80.0768 192.418 80.7034L191.157 83.7651H189.864L191.151 80.7034C191.639 79.5557 192.138 78.8856 192.647 78.6933C192.298 78.4637 192.054 78.2156 191.915 77.9488C191.776 77.6758 191.567 77.0306 191.288 76.0132C191.192 75.6719 191.09 75.461 190.981 75.3803C190.868 75.2997 190.7 75.2594 190.478 75.2594C190.421 75.2594 190.306 75.2625 190.132 75.2687V73.8821H190.295C190.748 73.8821 191.066 73.9224 191.249 74.003C191.436 74.0775 191.602 74.2419 191.745 74.4963C191.894 74.7444 192.085 75.2656 192.32 76.0597C192.608 77.0337 192.825 77.6262 192.974 77.8371C193.126 78.0481 193.391 78.1536 193.77 78.1536V73.8821H194.972ZM199.728 73.8821H200.904V81.42L204.163 73.8821H205.43V83.7651H204.255V76.2737L200.996 83.7651H199.728V73.8821ZM207.208 73.8821H209.919C210.585 73.8821 211.079 73.9627 211.402 74.124C211.728 74.2791 212.007 74.5676 212.238 74.9895C212.473 75.4114 212.59 75.917 212.59 76.5064C212.59 76.9779 212.521 77.3905 212.381 77.7441C212.246 78.0915 212.042 78.3831 211.767 78.6189C212.094 78.774 212.364 79.0655 212.577 79.4936C212.795 79.9155 212.904 80.418 212.904 81.0012C212.861 81.938 212.625 82.6329 212.198 83.0858C211.772 83.5386 211.151 83.7651 210.337 83.7651H207.208V73.8821ZM208.383 78.0419H209.638C210.138 78.0419 210.482 78.0047 210.67 77.9302C210.857 77.8558 211.025 77.7069 211.173 77.4835C211.321 77.254 211.395 76.981 211.395 76.6646C211.395 76.1434 211.264 75.7805 211.003 75.5758C210.746 75.371 210.304 75.2687 209.677 75.2687H208.383V78.0419ZM208.383 82.3878H209.932C210.598 82.3878 211.055 82.2793 211.304 82.0621C211.552 81.8388 211.683 81.4572 211.695 80.9174C211.695 80.601 211.623 80.3095 211.48 80.0427C211.336 79.7697 211.149 79.5991 210.918 79.5309C210.687 79.4564 210.317 79.4192 209.807 79.4192H208.383V82.3878ZM213.955 87.5713L213.825 85.9986C214.082 86.0978 214.306 86.1475 214.498 86.1475C214.759 86.1475 214.968 86.0854 215.125 85.9613C215.281 85.8372 215.41 85.6636 215.51 85.4402C215.585 85.2727 215.704 84.857 215.869 84.1932C215.892 84.1001 215.927 83.9636 215.974 83.7837L213.342 73.8821H214.609L216.052 79.6053C216.239 80.3312 216.407 81.0942 216.555 81.8946C216.691 81.1253 216.852 80.3746 217.039 79.6425L218.522 73.8821H219.698L217.058 83.9326C216.775 85.0183 216.555 85.7659 216.398 86.1754C216.19 86.7276 215.95 87.1308 215.68 87.3851C215.41 87.6457 215.088 87.776 214.714 87.776C214.487 87.776 214.234 87.7077 213.955 87.5713Z" fill="black"/>
</svg>
