<svg width="75" height="85" viewBox="0 0 75 85" fill="none" xmlns="http://www.w3.org/2000/svg">
<path d="M59.9802 75.2069C58.2276 75.2069 56.5219 75.0938 54.9109 74.8713C54.7658 74.8512 54.6388 74.7746 54.5517 74.6597C54.463 74.543 54.4267 74.3989 54.4446 74.2548C54.4864 73.9593 54.764 73.7458 55.0599 73.786C56.6237 74.003 58.2804 74.1125 59.9804 74.1125C62.838 74.1125 65.5905 73.7971 67.9401 73.1986C70.1648 72.635 71.9463 71.8251 72.9569 70.9186C73.592 70.3513 73.9113 69.7749 73.9113 69.2058C73.9113 68.839 73.7825 68.4799 73.5194 68.1076C73.2946 67.7884 72.9698 67.473 72.556 67.1684C71.2169 67.9764 69.3769 68.6458 67.2325 69.1053C65.048 69.5725 62.5405 69.8205 59.9802 69.824C57.4964 69.824 55.0432 69.585 52.8824 69.1345C52.8804 69.1345 52.8804 69.1345 52.8786 69.1345C52.7371 69.1035 52.6137 69.0196 52.5339 68.8974C52.4542 68.7752 52.4268 68.6292 52.4577 68.487C52.5157 68.197 52.8115 68.0018 53.1 68.062C55.1885 68.4981 57.567 68.7296 59.9802 68.7296H60.031C65.0442 68.7296 69.8471 67.6808 72.2691 66.0555C72.4467 65.9372 72.69 65.9372 72.8697 66.0555C73.541 66.5006 74.0438 66.9639 74.4046 67.471C74.7947 68.0164 75.0016 68.6165 74.9998 69.2058C74.9979 70.0978 74.5425 70.9715 73.6789 71.7376C72.8987 72.4307 71.7975 73.0489 70.4077 73.5742C67.6117 74.6269 63.9085 75.2069 59.9802 75.2069Z" fill="black"/>
<path d="M59.9802 69.8239C57.4964 69.8239 55.0414 69.585 52.8786 69.1344C52.7371 69.1034 52.6137 69.0195 52.5339 68.8973C52.4542 68.7751 52.4268 68.6292 52.4577 68.4869C52.5157 68.1969 52.8115 68.0017 53.1 68.0619C55.1885 68.498 57.567 68.7295 59.9802 68.7295C62.836 68.7295 65.5885 68.4121 67.9399 67.8139C70.1646 67.252 71.9461 66.442 72.9568 65.5356C73.5918 64.9684 73.9111 64.3918 73.9111 63.8227C73.9111 63.4542 73.7823 63.0951 73.5192 62.7246C73.2944 62.4054 72.9696 62.0898 72.5558 61.7834C71.2186 62.5933 69.3768 63.2627 67.2323 63.7205C65.0478 64.1875 62.5403 64.4374 59.98 64.4392C58.3743 64.4392 56.8102 64.346 55.3297 64.1601H55.3279C55.0285 64.1218 54.818 63.8482 54.8543 63.5489C54.8906 63.2536 55.1666 63.0363 55.4623 63.073C56.9011 63.2536 58.4216 63.3466 59.98 63.3466H60.0308C65.044 63.3466 69.8469 62.296 72.2689 60.6726C72.4485 60.5522 72.6899 60.5522 72.8695 60.6707C73.5408 61.1156 74.0436 61.5789 74.4045 62.088C74.7946 62.6334 75.0014 63.2335 74.9996 63.8227C74.9978 64.713 74.5424 65.5885 73.6787 66.3546C72.8985 67.0478 71.7973 67.6659 70.4075 68.1912C67.6117 69.2419 63.9085 69.8221 59.9802 69.8239Z" fill="black"/>
<path d="M59.9796 64.4395C58.3738 64.4395 56.8082 64.3463 55.3275 64.1605C55.1823 64.142 55.0535 64.0674 54.9646 63.9524C54.8757 63.8374 54.8358 63.6933 54.8539 63.5492C54.8902 63.2539 55.1678 63.0367 55.4619 63.0733C56.8989 63.2539 58.4194 63.3451 59.9796 63.3451H59.9834C62.8393 63.3451 65.5897 63.0296 67.9395 62.4311C70.1642 61.8675 71.9457 61.0578 72.9563 60.1511C73.5896 59.584 73.9107 59.0092 73.9107 58.4401C73.9089 58.0717 73.7819 57.7123 73.5188 57.342C73.294 57.0247 72.9692 56.7089 72.5537 56.4008C71.2165 57.2105 69.3747 57.882 67.2301 58.3416C65.0456 58.8088 62.5382 59.0586 59.9798 59.0621C58.396 59.0621 56.8537 58.9673 55.3931 58.7812H55.3912C55.0936 58.7429 54.8813 58.4693 54.9194 58.1702C54.9575 57.8728 55.2333 57.6574 55.5272 57.6957C56.9445 57.8763 58.4413 57.9675 59.9798 57.9675H60.0324C65.0403 57.9675 69.8428 56.915 72.2687 55.288C72.4463 55.1696 72.6914 55.1696 72.8711 55.288C73.5422 55.7367 74.045 56.2 74.4041 56.7055C74.7941 57.2508 74.9992 57.8491 74.9992 58.4401C74.9992 59.3302 74.5419 60.2058 73.6783 60.9719C72.8981 61.665 71.7969 62.2817 70.4051 62.807C67.6111 63.8595 63.9079 64.4395 59.9796 64.4395Z" fill="black"/>
<path d="M59.9803 59.057C58.4126 59.057 56.8704 58.9639 55.3936 58.7815C55.0959 58.7451 54.8836 58.4715 54.9201 58.1723C54.9564 57.875 55.2322 57.6596 55.5261 57.6962C56.9578 57.8734 58.4563 57.9625 59.9804 57.9625C62.8381 57.9625 65.5906 57.6472 67.9402 57.0469C70.1648 56.4851 71.9464 55.675 72.957 54.7687C73.5903 54.2014 73.9114 53.625 73.9114 53.0559C73.9114 52.6947 73.7864 52.3409 73.5304 51.9741C73.3126 51.6622 73.0006 51.3541 72.6048 51.0547C71.2676 51.8719 69.4244 52.5486 67.2687 53.0119C65.0771 53.4844 62.5551 53.7343 59.9803 53.7377C57.8465 53.7377 55.789 53.5699 53.8621 53.2381C53.7188 53.2124 53.5938 53.1342 53.5103 53.0154C53.4268 52.8952 53.394 52.7511 53.4176 52.607C53.4684 52.3133 53.7534 52.109 54.0474 52.1601C55.9108 52.4811 57.9066 52.6433 59.9803 52.6433H60.0367C65.0825 52.6433 69.9034 51.5835 72.3165 49.9419C72.4962 49.8215 72.7431 49.8215 72.9226 49.9419C73.5687 50.376 74.0711 50.8485 74.4194 51.3428C74.8006 51.8827 75.0019 52.4755 75 53.0557C74.9982 53.9458 74.5428 54.8214 73.6792 55.5875C72.899 56.2806 71.7978 56.8988 70.408 57.4241C67.6118 58.4769 63.9086 59.0551 59.9803 59.057Z" fill="black"/>
<path d="M59.9793 53.7378C57.8328 53.7378 55.7735 53.5682 53.8611 53.2325C53.7178 53.207 53.5928 53.1286 53.5093 53.0082C53.4259 52.8898 53.393 52.7439 53.4186 52.5998C53.4692 52.3061 53.7524 52.1035 54.0482 52.1547C55.9007 52.4794 57.8965 52.6454 59.9793 52.6454C62.837 52.6454 65.5894 52.328 67.9391 51.7295C70.1637 51.1659 71.9452 50.356 72.9559 49.4495C73.5891 48.8804 73.9102 48.304 73.9102 47.7331C73.9102 47.164 73.5891 46.5878 72.9559 46.0203C72.2882 45.422 71.2737 44.8584 70.0238 44.3896C67.353 43.3811 63.7895 42.8266 59.9902 42.8266H59.9791C58.4895 42.8266 57.0418 42.9087 55.6772 43.0729C55.6753 43.0729 55.6753 43.0729 55.6735 43.0747C55.376 43.1077 55.1038 42.8923 55.0675 42.5951C55.0331 42.296 55.247 42.0224 55.5447 41.9877C56.9527 41.8181 58.4439 41.7324 59.9789 41.7324C62.9221 41.7324 65.7669 42.0607 68.2056 42.6809C70.6568 43.3083 72.4983 44.1565 73.6776 45.2017C74.5415 45.966 74.9985 46.8415 74.9985 47.7335C74.9985 48.6236 74.5413 49.5009 73.6776 50.2672C72.8974 50.9604 71.7981 51.5785 70.4065 52.1058C67.6126 53.1579 63.9094 53.7378 59.9793 53.7378Z" fill="black"/>
<path d="M35.2452 80.6259C31.1265 80.6259 27.1475 80.168 23.7401 79.3034C22.0763 78.8784 20.5903 78.3715 19.3202 77.795C18.0193 77.204 16.9451 76.538 16.125 75.8177C15.5571 75.3179 15.1144 74.7853 14.8096 74.2363C14.4866 73.6526 14.3197 73.0468 14.3106 72.436C14.307 72.1861 14.4721 71.9654 14.7116 71.8997C16.2811 71.4729 17.6945 70.508 18.6979 69.1855C18.8484 68.9849 19.1406 68.9138 19.3674 69.025C21.1364 69.8841 23.4316 70.6026 26.0026 71.1026C26.146 71.1318 26.2693 71.2139 26.3492 71.3344C26.4308 71.4548 26.4617 71.6007 26.4326 71.7448C26.3764 72.0349 26.0879 72.2353 25.7958 72.1771C23.2865 71.6881 21.0965 71.0225 19.2875 70.1962C18.2588 71.4183 16.9288 72.3267 15.4374 72.8228C15.5716 73.5561 16.0434 74.2874 16.8435 74.9951C17.8106 75.8506 19.2658 76.6568 21.0493 77.3262C24.8342 78.7489 29.8709 79.5315 35.2343 79.5315H35.2506C39.2915 79.5315 43.1868 79.0827 46.5144 78.2347C49.6823 77.4322 52.2243 76.2739 53.6758 74.9752C54.6193 74.1325 55.0965 73.2643 55.0965 72.3942C55.0947 71.8251 54.9006 71.2761 54.5032 70.7161C54.1494 70.2165 53.6341 69.724 52.9737 69.2532C49.158 71.619 42.5316 73.0342 35.2452 73.0399C34.523 73.0399 33.7973 73.0271 33.086 72.9981C33.086 72.9981 33.0842 72.9999 33.0842 72.9981C32.7939 72.987 32.5635 72.7501 32.5599 72.4582C32.5599 72.4489 32.5599 72.4398 32.5617 72.4309C32.5726 72.1281 32.8248 71.8891 33.126 71.9055C33.8299 71.9327 34.543 71.9473 35.2452 71.9473H35.2978C42.5082 71.9473 49.1705 70.4881 52.6852 68.1405C52.8648 68.0222 53.1061 68.0222 53.2859 68.1405C54.1968 68.7461 54.9044 69.3975 55.3906 70.0797C55.9186 70.8202 56.1853 71.5991 56.1853 72.3942C56.1853 73.0071 56.0239 73.6163 55.7047 74.2018C55.4053 74.7545 54.9662 75.2908 54.3983 75.7942C53.3206 76.7536 51.7929 77.6089 49.8585 78.3385C45.9447 79.8124 40.7553 80.624 35.2452 80.6259ZM29.4881 72.7294C29.4681 72.7294 29.4482 72.7276 29.43 72.7258C29.4282 72.7258 29.4282 72.7258 29.4264 72.7258C29.1288 72.693 28.9129 72.423 28.9456 72.1219C28.9782 71.8245 29.2486 71.6077 29.5461 71.6387C29.6913 71.6551 29.8201 71.726 29.9108 71.8393C30.0016 71.9542 30.0433 72.0965 30.027 72.2424C29.9979 72.5199 29.7657 72.7294 29.4881 72.7294Z" fill="#01A48C"/>
<path d="M35.2441 73.041C28.8248 73.0374 22.8645 71.9321 18.8928 70.0096C18.7458 69.9384 18.6388 69.8055 18.5989 69.6448C18.5607 69.4843 18.597 69.3164 18.695 69.1869C19.6893 67.87 20.2155 66.2941 20.2155 64.6306C20.2155 63.9591 20.1284 63.299 19.9597 62.6677C19.9052 62.4709 19.9687 62.2555 20.1211 62.1187C20.2717 61.9819 20.4949 61.9418 20.6836 62.0166C23.6683 63.1967 27.6581 63.992 31.9184 64.2583C32.0635 64.2674 32.196 64.3311 32.2921 64.4407C32.3883 64.5501 32.4355 64.6906 32.4264 64.8383C32.4082 65.1265 32.1706 65.3511 31.8839 65.3511C31.873 65.3511 31.8621 65.3511 31.8494 65.3511C27.8722 65.1012 24.1945 64.419 21.2152 63.3791C21.2733 63.7895 21.3041 64.2111 21.3041 64.6304C21.3041 66.2919 20.8342 67.9045 19.9488 69.2943C23.7626 70.9797 29.3274 71.9464 35.2187 71.9464H35.2496C39.2904 71.9464 43.1858 71.4977 46.5134 70.6497C49.6795 69.8453 52.2233 68.689 53.6748 67.3884C54.6183 66.5457 55.0955 65.6772 55.0955 64.8073C55.0937 64.2401 54.8995 63.691 54.5022 63.131C54.1484 62.6314 53.6349 62.1389 52.9745 61.6682C51.4467 62.6148 49.4727 63.4139 47.1085 64.0413C44.7226 64.6743 42.0552 65.1012 39.1778 65.3144C39.1759 65.3144 39.1759 65.3144 39.1759 65.3144C38.8709 65.3343 38.6151 65.1063 38.5935 64.8073C38.5935 64.7927 38.5915 64.78 38.5915 64.7654C38.5935 64.4808 38.8147 64.2421 39.0977 64.222C44.775 63.8134 49.8553 62.4436 52.684 60.5557C52.8636 60.4371 53.1049 60.4371 53.2847 60.5557C54.1955 61.1611 54.9032 61.8124 55.3894 62.4946C55.9174 63.2352 56.1841 64.012 56.1841 64.8075C56.1841 65.4204 56.021 66.0296 55.7035 66.617C55.4041 67.1696 54.965 67.7041 54.3989 68.2075C53.3194 69.1671 51.7916 70.0243 49.8575 70.754C45.9437 72.2276 40.7543 73.0394 35.2441 73.041ZM35.5127 65.455H35.5109C35.2115 65.455 34.9684 65.2107 34.9665 64.9098C34.9665 64.7638 35.021 64.6251 35.1244 64.5211C35.226 64.419 35.3639 64.3606 35.509 64.3606H35.5109C35.8102 64.3606 36.0534 64.6051 36.0552 64.9043C36.057 65.2071 35.8139 65.4532 35.5127 65.455Z" fill="#FDF311"/>
<path d="M35.2455 65.4551C32.3733 65.4551 29.5973 65.2362 26.9937 64.8075C24.4698 64.3916 22.2127 63.7952 20.2858 63.0346C20.1243 62.9705 20.0046 62.8376 19.9592 62.6678C19.2716 60.107 17.2703 58.0787 14.7356 57.3728C14.4761 57.3014 14.3074 57.0444 14.34 56.7761C14.5197 55.3972 15.4831 54.1149 17.205 52.9694C17.3846 52.851 17.6259 52.851 17.8055 52.9714C19.4657 54.0749 21.8843 55.0123 24.7982 55.6782C25.0904 55.7437 25.2754 56.0392 25.2083 56.3331C25.143 56.6231 24.8472 56.811 24.5569 56.7453C21.6575 56.0797 19.2879 55.1839 17.5152 54.0822C16.4611 54.8355 15.7698 55.6618 15.5158 56.4717C18.1049 57.3655 20.1298 59.4741 20.9336 62.1136C24.7329 63.5635 29.8114 64.3606 35.231 64.3606H35.251C39.2918 64.3606 43.1872 63.9119 46.5148 63.0639C49.6809 62.2614 52.2247 61.1031 53.678 59.8044C54.6195 58.9617 55.0967 58.0934 55.0967 57.2234C55.0949 56.6543 54.9007 56.1071 54.5034 55.5453C54.1496 55.0457 53.6343 54.5548 52.9738 54.0824C49.1598 56.4482 42.5318 57.8634 35.2454 57.8709C34.0987 57.8709 32.9483 57.8344 31.8252 57.7633C31.5349 57.745 31.3117 57.5025 31.3154 57.2106C31.3154 57.2015 31.3154 57.1924 31.3154 57.1834C31.3335 56.8841 31.593 56.6526 31.8924 56.6707C32.9937 56.74 34.1222 56.7765 35.2454 56.7765H35.2998C42.5084 56.7765 49.1709 55.3173 52.6854 52.9717C52.865 52.8532 53.1063 52.8532 53.2861 52.9697C54.1951 53.5753 54.9046 54.2267 55.3908 54.9089C55.9188 55.6494 56.1855 56.4281 56.1855 57.2234C56.1855 57.8363 56.0224 58.4455 55.7049 59.0328C55.4055 59.5839 54.9664 60.1199 54.3985 60.6234C53.3208 61.583 51.793 62.4383 49.8587 63.1679C45.945 64.6415 40.7557 65.4551 35.2455 65.4551ZM28.2492 57.4056C28.2238 57.4056 28.1984 57.4038 28.1748 57.4001C27.8773 57.36 27.6686 57.0829 27.7085 56.7836C27.7484 56.4901 28.0297 56.2767 28.3218 56.3166C28.4651 56.3349 28.594 56.4115 28.681 56.5282C28.77 56.6432 28.8081 56.7872 28.7881 56.9332C28.75 57.2013 28.5196 57.4056 28.2492 57.4056Z" fill="#01A48C"/>
<path d="M35.245 57.871C31.1154 57.871 27.1274 57.4097 23.7109 56.5395C22.0453 56.1145 20.5556 55.6037 19.2856 55.0237C17.9846 54.4289 16.9123 53.7595 16.0958 53.0355C15.5298 52.5321 15.0907 51.9958 14.7913 51.4433C14.472 50.8558 14.3105 50.2465 14.3105 49.6337C14.3105 48.8493 14.5699 48.0796 15.0852 47.3483C15.5606 46.6735 16.2501 46.0296 17.1373 45.4331C17.3169 45.3127 17.5619 45.3127 17.7415 45.4331C19.3854 46.5401 21.7876 47.4813 24.687 48.1527C24.8286 48.1856 24.9483 48.2729 25.0263 48.3952C25.1025 48.5194 25.1279 48.6669 25.0953 48.8094C25.0281 49.0994 24.7324 49.2873 24.4421 49.2198C21.5572 48.5486 19.2057 47.6493 17.4512 46.5458C16.8144 47.0072 16.319 47.4906 15.9761 47.9795C15.5878 48.532 15.4009 49.0739 15.3991 49.6337C15.3991 50.5039 15.8763 51.3738 16.818 52.2165C17.7814 53.0756 19.2329 53.8855 21.0183 54.5586C24.8068 55.9888 29.8544 56.7766 35.2341 56.7766H35.245C39.2893 56.7766 43.1866 56.3279 46.5142 55.4799C49.6804 54.6755 52.2242 53.517 53.6757 52.2165C54.6192 51.3738 55.0964 50.5037 55.0964 49.6337C55.0945 49.0739 54.9076 48.534 54.5194 47.9795C54.1764 47.4888 53.6793 47.0072 53.0443 46.5458C49.2322 48.9334 42.5788 50.3635 35.245 50.3708C34.0584 50.3708 32.8682 50.3325 31.7088 50.2579C31.4257 50.2378 31.2025 50.0007 31.1989 49.7178C31.1989 49.7034 31.1989 49.6888 31.2007 49.676C31.2189 49.3769 31.4729 49.1452 31.7759 49.1653C31.7777 49.1653 31.7777 49.1653 31.7795 49.1653C31.785 49.1653 31.7922 49.1653 31.7977 49.1671C32.9298 49.2401 34.0892 49.2765 35.245 49.2765H35.2976C42.5589 49.2765 49.2485 47.8047 52.7521 45.4335C52.9336 45.3131 53.1787 45.3131 53.3582 45.4335C54.2456 46.0299 54.9349 46.6756 55.4104 47.3487C55.9257 48.0801 56.1852 48.8497 56.1852 49.634C56.1852 50.2469 56.0221 50.8561 55.7045 51.4437C55.4052 51.9962 54.9661 52.5326 54.4 53.0359C53.3204 53.9953 51.7927 54.8526 49.8585 55.584C45.9463 57.0575 40.7552 57.8692 35.245 57.871ZM28.1326 49.8909C28.1072 49.8909 28.0818 49.889 28.0582 49.8856C27.7606 49.8436 27.552 49.5664 27.5937 49.267C27.6354 48.9736 27.9148 48.7618 28.2088 48.8019C28.3521 48.822 28.4791 48.8968 28.568 49.0135C28.6551 49.1302 28.6932 49.2743 28.6733 49.4184C28.6352 49.6884 28.4029 49.8909 28.1326 49.8909Z" fill="#FDF311"/>
<path d="M35.2438 50.3702C31.8273 50.3684 28.5832 50.0656 25.6021 49.4693C22.7372 48.8964 20.217 48.0575 18.3137 47.0452C18.0488 46.9029 17.949 46.5707 18.0887 46.3044C18.183 46.1259 18.3681 46.0144 18.5695 46.0144C18.6584 46.0144 18.7473 46.0363 18.8253 46.0784C22.5612 48.081 28.6884 49.2758 35.213 49.2758H35.2438C39.2863 49.2758 43.1836 48.8271 46.5131 47.9791C49.6792 47.1765 52.223 46.0182 53.6763 44.7177C54.6178 43.8768 55.095 43.0086 55.095 42.1385C55.095 41.2666 54.6178 40.3966 53.6743 39.5539C52.7145 38.6947 51.2612 37.8849 49.4742 37.2118C45.6857 35.7818 40.6362 34.9938 35.2547 34.9938H35.1912C27.93 34.9938 21.2439 36.4676 17.7421 38.8407C16.6571 39.5703 15.915 40.3747 15.5957 41.1681C15.5939 41.1681 15.5939 41.17 15.5939 41.17C15.5086 41.3761 15.3127 41.5074 15.0913 41.5074C15.0205 41.5074 14.9516 41.4946 14.8845 41.4673C14.6812 41.3834 14.5488 41.1864 14.547 40.9675C14.5452 40.8945 14.5597 40.8216 14.5869 40.7541C15.0006 39.7454 15.8588 38.7951 17.1361 37.9323C18.3391 37.1224 19.8868 36.4056 21.7374 35.8C23.5845 35.1981 25.6656 34.7275 27.9264 34.4046C30.2597 34.069 32.7218 33.8994 35.2438 33.8994C39.377 33.8994 43.3669 34.3608 46.7816 35.2309C48.4472 35.6559 49.9368 36.1666 51.2069 36.7467C52.5078 37.3413 53.582 38.0107 54.3984 38.7349C54.9645 39.2383 55.4036 39.7746 55.703 40.3273C56.0223 40.9146 56.1836 41.5238 56.1836 42.1385C56.1836 42.7514 56.0221 43.3606 55.703 43.9478C55.4036 44.4988 54.9645 45.0349 54.3984 45.5385C53.3189 46.498 51.7911 47.3533 49.857 48.0829C45.9433 49.5567 40.754 50.3702 35.2438 50.3702ZM15.7136 44.9001C15.5485 44.9001 15.3925 44.8253 15.2891 44.6958C15.1022 44.4605 15.1403 44.1139 15.3743 43.9259C15.4705 43.8475 15.5903 43.8057 15.7136 43.8057C15.8806 43.8057 16.0348 43.8803 16.1382 44.01C16.3269 44.2451 16.2888 44.5917 16.0547 44.7797C15.9586 44.8563 15.837 44.9001 15.7136 44.9001Z" fill="#01A48C"/>
<path d="M7.78959 58.7955C7.67529 58.7955 7.56461 58.759 7.47207 58.6915C6.23465 57.7996 5.60506 56.7982 5.59961 55.7149C5.59961 55.1273 5.80464 54.5292 6.19292 53.9839C6.55399 53.4768 7.05476 53.0135 7.72427 52.5684C7.9039 52.4498 8.14521 52.4498 8.32484 52.5684C9.88522 53.6079 12.498 54.4526 15.4936 54.8868H15.4954C15.7911 54.9303 15.9961 55.2096 15.9526 55.5067C15.9109 55.7988 15.6315 56.0122 15.3375 55.97C12.3038 55.5252 9.77999 54.7333 8.03998 53.6809C7.62811 53.9855 7.30515 54.3011 7.08016 54.6203C6.81889 54.9904 6.69007 55.3479 6.68825 55.7147C6.68281 56.404 7.17451 57.1263 8.10711 57.803C8.22505 57.8889 8.30307 58.0146 8.32665 58.1587C8.35024 58.3046 8.31758 58.4487 8.23231 58.5673C8.1307 58.7097 7.96377 58.7955 7.78959 58.7955Z" fill="black"/>
<path d="M15.4157 55.9757C15.3885 55.9757 15.3631 55.9739 15.3377 55.9702C13.2366 55.6565 11.4058 55.1932 9.89806 54.5931C8.33405 53.9711 7.16195 53.2178 6.41623 52.355C5.8828 51.7292 5.59975 51.0306 5.60157 50.3358C5.59975 49.7466 5.80478 49.1463 6.19306 48.6011C6.55412 48.0941 7.0549 47.6308 7.72441 47.1855C7.90404 47.0671 8.14535 47.0671 8.32316 47.1855C9.81097 48.1723 12.1679 48.9659 14.9621 49.4181C14.9621 49.4199 14.9639 49.42 14.9639 49.42C15.1072 49.4437 15.2324 49.5223 15.3159 49.6388C15.4012 49.7574 15.4356 49.9033 15.412 50.0474C15.363 50.3411 15.0818 50.5452 14.7879 50.4996C12.0028 50.0418 9.66945 49.2811 8.04012 48.2963C7.62825 48.6028 7.30529 48.9182 7.0803 49.2374C6.81721 49.6076 6.69021 49.967 6.69021 50.3356C6.69021 50.7752 6.87164 51.2039 7.24541 51.6453C7.63369 52.1051 8.24152 52.5646 9.00356 52.975C10.5857 53.8305 12.89 54.509 15.4937 54.8866C15.7894 54.9302 15.9963 55.2076 15.9545 55.5066C15.9146 55.7732 15.6842 55.9757 15.4157 55.9757Z" fill="black"/>
<path d="M14.8768 50.5073H14.875C14.8459 50.5073 14.8169 50.5037 14.7879 50.5001C12.7939 50.1664 11.0629 49.6977 9.64586 49.1048C8.17076 48.4883 7.0676 47.7496 6.36724 46.9105C5.86465 46.3013 5.59975 45.6246 5.60157 44.9535C5.59975 44.3698 5.79934 43.777 6.17855 43.2389C6.53054 42.7373 7.02044 42.2777 7.67725 41.8344C7.85687 41.714 8.10363 41.714 8.28326 41.8344C9.97246 42.9799 12.8574 43.8682 16.1959 44.275C16.3192 44.2896 16.4299 44.3443 16.517 44.4337C16.8708 44.793 17.3117 45.1469 17.827 45.4843C17.9486 45.5646 18.032 45.6868 18.0629 45.8309C18.0919 45.9732 18.0647 46.1191 17.9867 46.2413C17.8851 46.3982 17.7145 46.4912 17.5294 46.4912C17.4242 46.4912 17.3208 46.4602 17.2337 46.4018C16.7184 46.0644 16.263 45.7069 15.8802 45.3366C14.249 45.1268 12.7431 44.8149 11.404 44.41C10.0632 44.0034 8.91647 43.5107 7.99657 42.9489C7.5974 43.2481 7.28533 43.5581 7.06941 43.8682C6.8154 44.233 6.69021 44.5887 6.68839 44.9535C6.69021 45.3765 6.85894 45.7889 7.20731 46.2158C7.57019 46.659 8.13809 47.1041 8.84934 47.5052C10.3281 48.3371 12.4999 49.0173 14.9621 49.4204C15.1054 49.4423 15.2306 49.5209 15.3159 49.6393C15.4012 49.7579 15.4356 49.9038 15.412 50.0479C15.3685 50.3142 15.1435 50.5073 14.8768 50.5073Z" fill="black"/>
<path d="M16.1305 45.3653C16.1088 45.3653 16.087 45.3635 16.0634 45.3598C11.482 44.7816 8.08004 43.4902 6.48337 41.7263C5.90639 41.077 5.59976 40.3528 5.60157 39.6287C5.60157 38.7386 6.05699 37.8612 6.92064 37.0951C7.70083 36.4001 8.80036 35.7818 10.1902 35.2565C12.9844 34.204 16.6857 33.624 20.6157 33.624C21.3596 33.6276 25.4257 33.8994 27.1095 34.2441C27.3381 34.2934 27.5431 34.3426 27.7372 34.4302C27.7536 34.4411 27.7699 34.4484 27.788 34.4576C27.8751 34.5032 27.9822 34.5597 28.0983 34.764C28.2308 35.0358 28.1183 35.3641 27.8497 35.4973C27.6502 35.5939 27.4034 35.5574 27.2419 35.4079C27.2238 35.4024 27.1875 35.3896 27.1367 35.375C26.9843 35.3331 26.7393 35.2838 26.449 35.2364C25.9192 35.1507 25.1626 35.0595 24.2645 34.9738C22.695 34.8242 20.9623 34.7184 20.6212 34.7184H20.6157C17.7562 34.7184 15.0056 35.0339 12.6578 35.6322C10.4333 36.1959 8.65158 37.0057 7.64277 37.9123C7.00955 38.4814 6.6884 39.0578 6.69021 39.6287C6.69021 40.0883 6.88798 40.5352 7.29622 40.9967C7.7226 41.4783 8.38305 41.9543 9.21041 42.3757C10.9359 43.2585 13.4162 43.9334 16.1959 44.2745C16.341 44.2929 16.4698 44.3657 16.5587 44.4806C16.6476 44.5957 16.6876 44.7378 16.6694 44.8837C16.6368 45.1572 16.4045 45.3653 16.1305 45.3653Z" fill="black"/>
<path d="M49.3961 82.5906H10.0346C9.73517 82.5906 9.49023 82.3462 9.49023 82.0452C9.49023 81.7424 9.73517 81.498 10.0346 81.498H49.3961C49.6955 81.498 49.9405 81.7424 49.9405 82.0452C49.9405 82.3462 49.6955 82.5906 49.3961 82.5906Z" fill="#FDF311"/>
<path d="M60.3194 84.9997H33.0853C32.7841 84.9997 32.541 84.7533 32.541 84.4525C32.541 84.1497 32.7841 83.9053 33.0853 83.9053H60.3194C60.6206 83.9053 60.8637 84.1497 60.8637 84.4525C60.8637 84.7533 60.6206 84.9997 60.3194 84.9997Z" fill="#01A48C"/>
<path d="M66.5165 84.9997H63.1107C62.8115 84.9997 62.5664 84.7533 62.5664 84.4525C62.5664 84.1497 62.8115 83.9053 63.1107 83.9053H66.5165C66.8157 83.9053 67.0608 84.1497 67.0608 84.4525C67.0608 84.7533 66.8157 84.9997 66.5165 84.9997Z" fill="black"/>
<path d="M21.3896 84.9235H8.48377C8.18439 84.9235 7.93945 84.6791 7.93945 84.3763C7.93945 84.0753 8.18439 83.8291 8.48377 83.8291H21.3896C21.6889 83.8291 21.9339 84.0753 21.9339 84.3763C21.9339 84.6791 21.6889 84.9235 21.3896 84.9235Z" fill="black"/>
<path d="M13.4501 75.9714H0.54432C0.244944 75.9714 0 75.7269 0 75.4241C0 75.1231 0.244944 74.877 0.54432 74.877H13.4501C13.7495 74.877 13.9945 75.1231 13.9945 75.4241C13.9945 75.7269 13.7495 75.9714 13.4501 75.9714Z" fill="#01A48C"/>
<path d="M70.4758 79.2781H57.5698C57.2706 79.2781 57.0254 79.0337 57.0254 78.7327C57.0254 78.4299 57.2706 78.1855 57.5698 78.1855H70.4758C70.7768 78.1855 71.0201 78.4299 71.0201 78.7327C71.0201 79.0337 70.7768 79.2781 70.4758 79.2781Z" fill="#FDF311"/>
<path d="M35.245 31.8482C31.1154 31.8482 27.1274 31.3886 23.7109 30.5185C22.0453 30.0917 20.5556 29.5809 19.2856 29.0009C17.9846 28.4063 16.9123 27.7387 16.0958 27.0127C15.5298 26.5093 15.0907 25.9748 14.7913 25.4203C14.472 24.833 14.3105 24.2237 14.3105 23.6109C14.3105 23.0071 14.4665 22.4088 14.775 21.8324C15.0653 21.2871 15.4917 20.7581 16.0414 20.2638C16.241 20.0814 16.5694 20.0814 16.7708 20.2638C18.4999 21.847 21.8475 23.2132 25.9517 24.014C26.2456 24.0724 26.4379 24.3587 26.3799 24.656C26.3236 24.9461 26.0351 25.1449 25.743 25.0883C21.6352 24.2766 18.4165 23.0035 16.4297 21.4074C15.7457 22.1279 15.3991 22.8703 15.3991 23.6109C15.3991 24.4828 15.8763 25.351 16.818 26.1937C17.7796 27.0546 19.2329 27.8645 21.0183 28.5358C24.8068 29.9658 29.8544 30.7538 35.2341 30.7538H35.2505C39.2913 30.7538 43.1866 30.3051 46.5142 29.4569C49.6822 28.6543 52.2242 27.4942 53.6757 26.1937C54.6192 25.351 55.0964 24.4828 55.0964 23.6109C55.0964 22.874 54.7498 22.1334 54.0641 21.4093C53.2495 22.0659 52.2135 22.6733 50.9849 23.2151C49.7802 23.7477 48.3851 24.2183 46.839 24.6177C43.4098 25.4969 39.4 25.9621 35.245 25.9621C34.5102 25.9621 33.7645 25.9475 33.0314 25.9183C32.7411 25.9055 32.5107 25.6684 32.5089 25.3784C32.5089 25.3674 32.5089 25.3583 32.5089 25.3492C32.5216 25.0482 32.7702 24.8093 33.075 24.8239H33.0768C33.7917 24.853 34.5211 24.8676 35.245 24.8676H35.2505C39.3131 24.8676 43.2266 24.4153 46.5687 23.5562C49.7493 22.7445 52.2895 21.5752 53.7247 20.2638C53.9261 20.0814 54.2545 20.0814 54.4559 20.2638C55.0038 20.7617 55.4282 21.2889 55.7187 21.8306C56.027 22.4088 56.1848 23.0089 56.1848 23.6109C56.1848 24.2237 56.0233 24.833 55.7042 25.4203C55.4048 25.9748 54.9657 26.5093 54.3996 27.0127C53.3201 27.974 51.7923 28.8294 49.8582 29.5609C45.9463 31.0347 40.7572 31.8464 35.245 31.8482ZM29.4353 25.6447C29.4153 25.6447 29.3954 25.6447 29.3736 25.6428C29.0761 25.6082 28.8601 25.3364 28.8928 25.0373C28.9255 24.7399 29.1958 24.5211 29.4934 24.5539C29.6385 24.5703 29.7692 24.6415 29.8599 24.7564C29.9506 24.8713 29.9905 25.0136 29.9742 25.1577C29.9433 25.4367 29.7111 25.6447 29.4353 25.6447Z" fill="black"/>
<path d="M35.2454 25.9613C31.8289 25.9595 28.5865 25.6567 25.6037 25.0602C22.7387 24.4875 20.2204 23.6484 18.3171 22.6343C18.0522 22.4938 17.9524 22.1618 18.0921 21.8955C18.1864 21.7168 18.3715 21.6055 18.5729 21.6055C18.6618 21.6055 18.7507 21.6274 18.8287 21.6694C22.5627 23.6721 28.69 24.8669 35.2145 24.8669H35.2508C39.2917 24.8669 43.187 24.4182 46.5146 23.57C49.6826 22.7674 52.2245 21.6092 53.6761 20.3068C54.6195 19.4641 55.0967 18.5959 55.0967 17.724C55.0967 16.8521 54.6195 15.982 53.6781 15.1411C52.7162 14.282 51.2629 13.4721 49.4759 12.8009C45.6893 11.3709 40.638 10.5847 35.2565 10.5847H35.1893C27.9263 10.5847 21.2384 12.0585 17.7403 14.4316C16.6571 15.1594 15.915 15.9638 15.5956 16.7554V16.7572C15.5104 16.9652 15.3126 17.0983 15.0912 17.0983C15.0205 17.0983 14.9515 17.0856 14.8862 17.0582C14.6776 16.9725 14.5433 16.7718 14.5469 16.5456C14.5469 16.4763 14.5614 16.4088 14.5868 16.345C14.9987 15.3345 15.8569 14.386 17.1342 13.5214C18.3354 12.7115 19.8849 11.9947 21.7356 11.3909C23.5826 10.789 25.6637 10.3184 27.9263 9.99549C30.2596 9.65986 32.7217 9.49023 35.2456 9.49023C39.377 9.49023 43.3668 9.94989 46.7833 10.82C48.449 11.245 49.9386 11.7557 51.2087 12.3339C52.5096 12.9286 53.5837 13.5962 54.4002 14.3221C54.9663 14.8256 55.4054 15.36 55.7047 15.9127C56.0241 16.5 56.1854 17.1093 56.1854 17.724C56.1854 18.3368 56.0239 18.9479 55.7047 19.5352C55.4054 20.0879 54.9663 20.6224 54.4002 21.1258C53.3206 22.0871 51.7929 22.9444 49.8587 23.674C45.9467 25.1478 40.7575 25.9595 35.2454 25.9613ZM15.717 20.491C15.5519 20.491 15.3977 20.4162 15.2943 20.2867C15.2943 20.2867 15.2925 20.2867 15.2925 20.2849C15.1056 20.0496 15.1419 19.7049 15.3759 19.517C15.4721 19.4386 15.5936 19.3948 15.717 19.3948C15.8839 19.3948 16.0382 19.4696 16.1416 19.6009C16.1434 19.6009 16.1434 19.6027 16.1434 19.6027C16.3285 19.838 16.2904 20.1809 16.0581 20.3706C15.962 20.4473 15.8404 20.491 15.717 20.491Z" fill="black"/>
<path d="M26.1245 16.055C25.8251 16.055 25.5801 15.8087 25.5801 15.5059V3.1517C25.5801 2.85073 25.8251 2.60449 26.1245 2.60449C26.4257 2.60449 26.6706 2.85073 26.6706 3.1517V15.5059C26.6706 15.8087 26.4257 16.055 26.1245 16.055Z" fill="#01A48C"/>
<path d="M34.8646 13.4504C34.5634 13.4504 34.3203 13.2042 34.3203 12.9032V0.54721C34.3203 0.246245 34.5634 0 34.8646 0C35.164 0 35.4089 0.246245 35.4089 0.54721V12.9032C35.4089 13.2042 35.164 13.4504 34.8646 13.4504Z" fill="#FDF311"/>
<path d="M43.6947 19.9153C43.3955 19.9153 43.1504 19.669 43.1504 19.3681V7.01205C43.1504 6.71108 43.3955 6.46484 43.6947 6.46484C43.9959 6.46484 44.2391 6.71108 44.2391 7.01205V19.3681C44.2391 19.669 43.9959 19.9153 43.6947 19.9153Z" fill="#01A48C"/>
<path d="M12.7187 73.2683C11.5611 73.2683 10.4362 73.0384 9.37838 72.5897C8.35506 72.1536 7.43698 71.5318 6.64953 70.7383C5.86026 69.9467 5.24155 69.0219 4.80973 67.995C4.36157 66.9298 4.13477 65.7989 4.13477 64.6317C4.13477 63.4679 4.36157 62.337 4.80973 61.2736C5.24155 60.2467 5.86026 59.3237 6.64953 58.5303C7.43698 57.7386 8.35506 57.1166 9.37838 56.6807C10.4362 56.232 11.5611 56.002 12.7187 56.002C13.8781 56.002 15.0031 56.232 16.0609 56.6807C17.0824 57.1166 18.0004 57.7386 18.7897 58.5303C19.5772 59.3237 20.1959 60.2467 20.6295 61.2736C21.0759 62.337 21.3045 63.4679 21.3045 64.6317C21.3045 65.7989 21.0759 66.9299 20.6295 67.995C20.1959 69.0219 19.5772 69.9467 18.7897 70.7383C18.0004 71.532 17.0824 72.1538 16.0609 72.5897C15.0031 73.0384 13.8781 73.2683 12.7187 73.2683ZM12.7187 57.0964C10.7174 57.0964 8.83588 57.8807 7.41883 59.3037C6.0036 60.7282 5.22341 62.6197 5.22341 64.6317C5.22341 66.6472 6.0036 68.5406 7.41883 69.965C8.83588 71.3897 10.7174 72.1722 12.7187 72.1739C14.72 72.172 16.6034 71.3895 18.0204 69.965C19.4356 68.5404 20.214 66.6472 20.2158 64.6317C20.214 62.6197 19.4356 60.7282 18.0204 59.3037C16.6034 57.8805 14.72 57.0964 12.7187 57.0964Z" fill="black"/>
<path d="M13.1086 67.2003C13.3687 67.1451 13.5834 67.0198 13.7485 66.8235C13.9187 66.6276 13.9987 66.4014 13.9987 66.1349C13.9987 65.8987 13.9285 65.6975 13.7886 65.5268C13.6536 65.3557 13.4235 65.2251 13.1086 65.1346V67.2003ZM12.3434 61.5807C12.1386 61.6513 11.9735 61.7717 11.8537 61.9426C11.7336 62.1133 11.6737 62.2995 11.6737 62.5005C11.6737 62.6866 11.7283 62.8624 11.8385 63.0231C11.9486 63.1789 12.1184 63.3095 12.3434 63.4051V61.5807ZM12.3434 67.1152V64.9081C11.6585 64.7122 11.1584 64.4154 10.8433 64.0136C10.5232 63.6163 10.3634 63.1337 10.3634 62.5607C10.3634 61.9878 10.5434 61.5002 10.9032 61.1079C11.2631 60.7161 11.7434 60.4897 12.3434 60.4346V59.9121H13.1086V60.4346C13.6685 60.5001 14.1087 60.6911 14.4434 61.0076C14.7736 61.3193 14.9836 61.7414 15.0736 62.2691L13.7387 62.4455C13.6587 62.0279 13.4488 61.7468 13.1086 61.6007V63.6617C13.9488 63.8879 14.5285 64.1843 14.8337 64.5464C15.1385 64.9134 15.2887 65.3811 15.2887 65.9489C15.2887 66.5824 15.0984 67.1199 14.7136 67.5573C14.3284 67.9943 13.7937 68.2608 13.1086 68.3717V69.3567H12.3434V68.3816C11.7385 68.3061 11.2484 68.0852 10.8734 67.708C10.4935 67.3311 10.2536 66.7981 10.1484 66.1098L11.5133 65.9487C11.5683 66.2301 11.6736 66.4713 11.8283 66.6727C11.9838 66.8786 12.1536 67.0243 12.3434 67.1152Z" fill="#01A48C"/>
</svg>
