<svg width="85" height="85" viewBox="0 0 85 85" fill="none" xmlns="http://www.w3.org/2000/svg">
<path d="M66.0153 79.227H36.6621C36.3342 79.227 36.0684 78.9821 36.0684 78.6798V66.9378C36.0684 66.6355 36.3342 66.3906 36.6621 66.3906H66.0155C66.3434 66.3906 66.6092 66.6355 66.6092 66.9378V78.6798C66.609 78.9821 66.3432 79.227 66.0153 79.227ZM37.2558 78.1326H65.4218V67.485H37.2558V78.1326Z" fill="black"/>
<path d="M59.4487 75.233C57.9961 75.233 56.8145 74.1464 56.8145 72.8106C56.8145 71.4719 57.9961 70.3828 59.4487 70.3828C60.8979 70.3828 62.077 71.4719 62.077 72.8106C62.077 74.1464 60.8979 75.233 59.4487 75.233ZM59.4487 71.4772C58.651 71.4772 58.0019 72.0753 58.0019 72.8106C58.0019 73.543 58.6508 74.1385 59.4487 74.1385C60.2433 74.1385 60.8896 73.5428 60.8896 72.8106C60.8896 72.0755 60.2431 71.4772 59.4487 71.4772Z" fill="#FDF311"/>
<path d="M37.0141 22.0917C36.9421 22.0917 36.8697 22.0797 36.8006 22.0551C32.7049 20.6 29.9531 16.9039 29.9531 12.858C29.9531 7.4266 34.7472 3.00781 40.64 3.00781C46.5328 3.00781 51.3269 7.4266 51.3269 12.858C51.3269 16.9045 48.5739 20.6006 44.4766 22.0551C44.2946 22.1202 44.0888 22.0979 43.9273 21.9956C43.7662 21.8936 43.6696 21.7249 43.6696 21.5445V16.2031C43.6696 14.6603 42.3107 13.4052 40.6402 13.4052C38.9682 13.4052 37.608 14.6603 37.608 16.2031V21.5445C37.608 21.7249 37.5116 21.8936 37.3504 21.9958C37.2498 22.0591 37.1325 22.0917 37.0141 22.0917ZM40.64 12.3108C42.9653 12.3108 44.8568 14.0569 44.8568 16.2031V20.7064C48.0491 19.2409 50.1393 16.1825 50.1393 12.8582C50.1393 8.03018 45.878 4.10243 40.64 4.10243C35.4021 4.10243 31.1405 8.03018 31.1405 12.8582C31.1405 16.1821 33.2299 19.2404 36.4204 20.7062V16.2033C36.4204 14.0569 38.3133 12.3108 40.64 12.3108Z" fill="#FDF311"/>
<path d="M44.2619 18.1044C44.1687 18.1044 44.0754 18.0843 43.9896 18.0435C43.7923 17.9495 43.6682 17.762 43.6682 17.5572V16.2033C43.6682 14.6605 42.3092 13.4054 40.6388 13.4054C38.9667 13.4054 37.6066 14.6605 37.6066 16.2033V17.5572C37.6066 17.762 37.4827 17.9495 37.2852 18.0435C37.0875 18.1374 36.8498 18.1217 36.6689 18.0031C34.8645 16.8208 33.7871 14.8975 33.7871 12.8582C33.7871 9.37861 36.8607 6.54785 40.6388 6.54785C44.4137 6.54785 47.4846 9.37861 47.4846 12.8582C47.4846 14.8986 46.4085 16.8219 44.6058 18.0031C44.5035 18.0703 44.383 18.1044 44.2619 18.1044ZM40.6388 7.64229C37.5155 7.64229 34.9745 9.9822 34.9745 12.8582C34.9745 14.1527 35.4997 15.3907 36.4192 16.3383V16.2033C36.4192 14.0571 38.3121 12.311 40.6388 12.311C42.9641 12.311 44.8556 14.0571 44.8556 16.2033V16.3376C45.7732 15.3907 46.2972 14.1529 46.2972 12.8582C46.2972 9.9822 43.7588 7.64229 40.6388 7.64229Z" fill="#01A48C"/>
<path d="M44.2625 25.2633C44.1346 25.2633 44.0084 25.2251 43.9037 25.1522C43.7556 25.0487 43.6686 24.8873 43.6686 24.716V16.2033C43.6686 14.6605 42.3096 13.4054 40.6392 13.4054C38.9671 13.4054 37.607 14.6605 37.607 16.2033V24.716C37.607 24.8873 37.5199 25.0489 37.3717 25.1524C37.2232 25.2558 37.0309 25.289 36.8522 25.2428C30.865 23.6873 26.6836 18.5945 26.6836 12.8582C26.6836 8.43063 29.1089 4.36918 33.1711 1.99406C33.4482 1.83191 33.8149 1.90797 33.9904 2.16297C34.1661 2.41816 34.084 2.75634 33.8071 2.91813C30.0902 5.0915 27.871 8.8073 27.871 12.858C27.871 17.8619 31.3483 22.3305 36.4196 23.9694V16.2031C36.4196 14.0569 38.3125 12.3108 40.6392 12.3108C42.9645 12.3108 44.856 14.0569 44.856 16.2031V23.9702C49.9269 22.3362 53.4041 17.8672 53.4041 12.858C53.4041 6.37145 47.6776 1.09444 40.6392 1.09444C40.3112 1.09444 40.0455 0.849466 40.0455 0.547219C40.0455 0.244971 40.3112 0 40.6392 0C48.3324 0 54.5915 5.76805 54.5915 12.858C54.5915 18.6003 50.41 23.6931 44.4226 25.2426C44.3701 25.2565 44.3163 25.2633 44.2625 25.2633Z" fill="#01A48C"/>
<path d="M40.3419 13.4744C40.6039 13.5618 40.887 13.4202 40.9743 13.1582C41.0617 12.8962 40.9201 12.6131 40.6581 12.5258L40.3419 13.4744ZM37.5 16.0001C37.5 15.4432 37.8944 14.6923 38.5238 14.1201C39.1607 13.5411 39.8486 13.31 40.3419 13.4744L40.6581 12.5258C39.6514 12.1902 38.5893 12.7091 37.8512 13.3801C37.1056 14.0579 36.5 15.0571 36.5 16.0001H37.5Z" fill="black"/>
<path d="M63.5339 67.4842H59.5785C59.2506 67.4842 58.9848 67.2392 58.9848 66.937C58.9848 66.6347 59.2506 66.3897 59.5785 66.3897H63.1876L65.4207 62.7475V41.2617C65.4207 39.7189 64.0601 38.4639 62.3877 38.4639C60.7586 38.4639 59.3983 39.6853 59.3551 41.1867C59.3466 41.4835 59.083 41.7193 58.7618 41.7193C58.759 41.7193 58.7565 41.7193 58.7537 41.7193C58.429 41.7155 58.1679 41.4716 58.1679 41.1721V36.3152C58.1679 34.7753 56.8086 33.5223 55.1377 33.5223C53.5078 33.5223 52.1487 34.7436 52.1079 36.2444C52.0998 36.5439 51.8328 36.7867 51.5071 36.7779C51.1819 36.7743 50.9207 36.5304 50.9207 36.2307V32.4381C50.9207 30.8982 49.5592 29.6455 47.8856 29.6455C46.2575 29.6455 44.8981 30.8669 44.8552 32.3683C44.8466 32.665 44.583 32.9011 44.2619 32.9011C44.2591 32.9011 44.2565 32.9011 44.2539 32.9011C43.929 32.8972 43.668 32.6534 43.668 32.3539V16.2029C43.668 14.6601 42.309 13.405 40.6385 13.405C40.3106 13.405 40.0449 13.16 40.0449 12.8577C40.0449 12.5555 40.3106 12.3105 40.6385 12.3105C42.9638 12.3105 44.8554 14.0567 44.8554 16.2029V29.7493C45.6266 29.0122 46.7053 28.5512 47.8856 28.5512C50.214 28.5512 52.1081 30.295 52.1081 32.4383V33.6243C52.8791 32.8885 53.9573 32.4283 55.1377 32.4283C57.4632 32.4283 59.3553 34.1721 59.3553 36.3155V38.5686C60.1269 37.8311 61.2066 37.3697 62.3877 37.3697C64.7148 37.3697 66.6081 39.1156 66.6081 41.2618V62.8916C66.6081 62.9861 66.5815 63.0786 66.5311 63.1609L64.0506 67.2065C63.9456 67.3781 63.748 67.4842 63.5339 67.4842ZM49.6837 67.4842H37.0129C36.7382 67.4842 36.4993 67.3105 36.4354 67.0641L36.112 65.8176C30.6683 64.1114 30.258 61.2793 29.8955 58.7752C29.699 57.4186 29.5294 56.2472 28.605 55.3172C24.9055 51.5966 24.1289 49.1434 24.1289 47.7411C24.1289 45.9951 25.3603 44.8667 27.266 44.8667C27.7608 44.8667 28.2872 44.9432 28.8308 45.094C32.2004 46.0329 34.3767 49.3256 36.4192 52.6624V16.2029C36.4192 16.1241 36.4217 16.046 36.4269 15.9683C36.4467 15.6666 36.7299 15.436 37.055 15.4548C37.3823 15.4729 37.6317 15.7323 37.6121 16.0338C37.6083 16.0898 37.6066 16.146 37.6066 16.2027V54.7471C37.6066 54.9952 37.4253 55.2124 37.1652 55.2759C36.9058 55.3401 36.6309 55.2342 36.4973 55.0185C36.2591 54.6342 36.021 54.2433 35.7815 53.8501C33.7349 50.4892 31.6184 47.014 28.4878 46.1418C28.0558 46.0219 27.6446 45.961 27.266 45.961C26.5379 45.961 25.3163 46.1923 25.3163 47.7409C25.3163 48.7301 25.8572 50.9337 29.4805 54.5775C30.657 55.7611 30.8681 57.2196 31.0724 58.6302C31.4268 61.0774 31.7615 63.3888 36.7934 64.8721C36.9913 64.9303 37.1417 65.08 37.19 65.2662L37.4898 66.3896H49.6839C50.0118 66.3896 50.2775 66.6346 50.2775 66.9369C50.2775 67.2391 50.0116 67.4842 49.6837 67.4842Z" fill="black"/>
<path d="M17.4536 78.8002C12.0589 78.8002 7.66992 74.7548 7.66992 69.7824C7.66992 64.81 12.0589 60.7646 17.4536 60.7646C22.8515 60.7646 27.243 64.81 27.243 69.7824C27.243 74.7548 22.8515 78.8002 17.4536 78.8002ZM17.4536 61.859C12.7136 61.859 8.8573 65.4134 8.8573 69.7824C8.8573 74.1514 12.7136 77.7057 17.4536 77.7057C22.1968 77.7057 26.0556 74.1514 26.0556 69.7824C26.0556 65.4134 22.1968 61.859 17.4536 61.859Z" fill="black"/>
<path d="M17.8983 72.4741C18.1987 72.4163 18.4449 72.2844 18.6331 72.079C18.8245 71.8736 18.9161 71.6314 18.9161 71.3574C18.9161 71.1099 18.8365 70.8991 18.6764 70.7199C18.5223 70.541 18.2587 70.404 17.8983 70.3091V72.4741ZM17.0248 66.5795C16.7901 66.6587 16.6038 66.7851 16.4671 66.964C16.3303 67.1378 16.2615 67.3328 16.2615 67.5488C16.2615 67.7436 16.321 67.9229 16.4471 68.0915C16.5732 68.26 16.7675 68.397 17.025 68.4969V66.5795H17.0248ZM17.0248 72.3846V70.0667C16.2413 69.8613 15.6696 69.5507 15.3098 69.1345C14.9441 68.7131 14.7614 68.2073 14.7614 67.6119C14.7614 67.0063 14.967 66.5003 15.3814 66.0895C15.7899 65.6788 16.3385 65.4415 17.025 65.3785V64.8359H17.8985V65.3785C18.5389 65.4469 19.0449 65.6472 19.4253 65.979C19.8021 66.3108 20.0417 66.7533 20.148 67.3064L18.6216 67.4853C18.5276 67.0536 18.2874 66.7586 17.8985 66.6005V68.76C18.862 69.0026 19.5218 69.3134 19.8709 69.6926C20.2192 70.072 20.3936 70.562 20.3936 71.157C20.3936 71.826 20.1741 72.3895 19.7334 72.8426C19.2931 73.301 18.682 73.5853 17.8987 73.6961V74.7285H17.0252V73.7119C16.3361 73.6328 15.7758 73.3958 15.345 73.006C14.9102 72.6056 14.6357 72.0473 14.5156 71.3306L16.0764 71.157C16.1386 71.4572 16.2621 71.71 16.439 71.9209C16.6131 72.137 16.8071 72.2897 17.0248 72.3846Z" fill="#01A48C"/>
<path d="M72.0841 36.5571C66.6864 36.5571 62.2949 32.5117 62.2949 27.5393C62.2949 22.5669 66.6862 18.5215 72.0841 18.5215C77.479 18.5215 81.8677 22.5669 81.8677 27.5393C81.8679 32.5117 77.479 36.5571 72.0841 36.5571ZM72.0841 19.616C67.3411 19.616 63.4823 23.1703 63.4823 27.5393C63.4823 31.9083 67.3411 35.4627 72.0841 35.4627C76.8241 35.4627 80.6803 31.9083 80.6803 27.5393C80.6805 23.1703 76.8241 19.616 72.0841 19.616Z" fill="black"/>
<path d="M72.525 30.232C72.8274 30.174 73.0734 30.0369 73.262 29.8368C73.4512 29.6313 73.545 29.389 73.545 29.115C73.545 28.8675 73.4678 28.6569 73.3081 28.4778C73.148 28.2987 72.8882 28.1619 72.5252 28.0669V30.232H72.525ZM71.6505 24.3374C71.4162 24.4164 71.2335 24.5428 71.0956 24.7217C70.9589 24.8955 70.89 25.0903 70.89 25.3064C70.89 25.5012 70.9504 25.6803 71.0762 25.8491C71.2013 26.0176 71.3933 26.1493 71.6503 26.2547V24.3374H71.6505ZM71.6505 30.1423V27.8246C70.8734 27.6192 70.3018 27.3082 69.9353 26.8922C69.5728 26.4706 69.3899 25.9652 69.3899 25.3698C69.3899 24.764 69.5955 24.2582 70.0099 23.8474C70.4216 23.4365 70.967 23.1994 71.6505 23.1362V22.5938H72.525V23.1362C73.1646 23.2048 73.6736 23.4049 74.051 23.7367C74.4276 24.0685 74.671 24.5112 74.7767 25.0641L73.2509 25.2432C73.1561 24.8113 72.9137 24.5163 72.525 24.3582V26.518C73.4908 26.7603 74.1482 27.0711 74.4967 27.4503C74.8483 27.8295 75.0221 28.3194 75.0221 28.9146C75.0221 29.5836 74.8024 30.1421 74.3623 30.6005C73.9196 31.0587 73.3107 31.3431 72.525 31.4538V32.4861H71.6505V31.4696C70.9642 31.3905 70.4046 31.1535 69.9702 30.7584C69.5415 30.3634 69.2641 29.8049 69.1445 29.0886L70.7071 28.9149C70.7701 29.2098 70.89 29.4628 71.0669 29.6788C71.2417 29.8895 71.4392 30.0421 71.6505 30.1423Z" fill="#01A48C"/>
<path d="M61.6703 82.071H9.39642C9.0685 82.071 8.80273 81.8261 8.80273 81.5238C8.80273 81.2216 9.0685 80.9766 9.39642 80.9766H61.6703C61.9982 80.9766 62.264 81.2216 62.264 81.5238C62.264 81.8261 61.9982 82.071 61.6703 82.071Z" fill="#FDF311"/>
<path d="M76.1811 84.9998H40.0078C39.6798 84.9998 39.4141 84.7548 39.4141 84.4525C39.4141 84.1503 39.6798 83.9053 40.0078 83.9053H76.1813C76.5092 83.9053 76.775 84.1503 76.775 84.4525C76.775 84.7548 76.509 84.9998 76.1811 84.9998Z" fill="#01A48C"/>
<path d="M84.4061 84.9998H79.8828C79.5549 84.9998 79.2891 84.7548 79.2891 84.4525C79.2891 84.1503 79.5549 83.9053 79.8828 83.9053H84.4061C84.7341 83.9053 84.9998 84.1503 84.9998 84.4525C84.9998 84.7548 84.7341 84.9998 84.4061 84.9998Z" fill="black"/>
<path d="M24.4785 84.9108H7.33589C7.00797 84.9108 6.74219 84.6658 6.74219 84.3636C6.74219 84.0613 7.00797 83.8164 7.33589 83.8164H24.4785C24.8065 83.8164 25.0722 84.0613 25.0722 84.3636C25.0722 84.6658 24.8065 84.9108 24.4785 84.9108Z" fill="black"/>
<path d="M10.8763 53.7561C9.85708 53.7561 8.90836 53.2518 8.40036 52.4397L0.381745 39.6391C0.132196 39.2422 0 38.7891 0 38.3297C0 37.3901 0.546 36.5154 1.42486 36.0472L23.5 24.2999C23.9329 24.0697 24.4253 23.9482 24.9238 23.9482C25.9454 23.9482 26.8943 24.4529 27.4003 25.2652L35.4183 38.065C35.6667 38.4619 35.7981 38.9141 35.7981 39.3728C35.7981 40.313 35.2531 41.1881 34.3758 41.6567L12.2976 53.4042C11.8657 53.6343 11.3742 53.7561 10.8763 53.7561ZM24.924 25.0426C24.6335 25.0426 24.3464 25.1136 24.0936 25.2478L2.01915 36.9948C1.5064 37.268 1.18778 37.7795 1.18778 38.3295C1.18778 38.5965 1.26457 38.8597 1.41002 39.091L9.42923 51.8926C9.72608 52.3671 10.2804 52.6615 10.8765 52.6615C11.166 52.6615 11.4519 52.5905 11.7037 52.4565L33.7817 40.709C34.2929 40.4359 34.6111 39.9237 34.6111 39.3725C34.6111 39.1054 34.5347 38.8424 34.3905 38.6118L26.3716 25.8111C26.0758 25.3367 25.5215 25.0426 24.924 25.0426Z" fill="black"/>
<path d="M3.2594 43.6899C3.20794 43.6899 3.15629 43.6837 3.10563 43.6712C2.95345 43.6336 2.82382 43.5418 2.74506 43.4162L1.05027 40.7087C0.886403 40.4469 0.983769 40.1124 1.26775 39.9612L27.2573 26.1279C27.3936 26.0555 27.5557 26.0358 27.7079 26.0733C27.8601 26.1109 27.9897 26.2027 28.0685 26.3283L29.7633 29.036C29.9271 29.2977 29.8297 29.6323 29.5458 29.7835L3.55624 43.6166C3.46521 43.6651 3.3627 43.6899 3.2594 43.6899ZM2.37539 40.6356L3.47689 42.3952L28.4381 29.1093L27.3366 27.3496L2.37539 40.6356Z" fill="black"/>
<path d="M25.6446 42.6149C24.6258 42.6149 23.6771 42.1107 23.1685 41.2992C22.9189 40.9001 22.7871 40.447 22.7871 39.9881C22.7871 39.0492 23.3341 38.1751 24.2146 37.7067C24.7671 37.4116 25.4275 37.2967 26.056 37.3802C26.2893 36.8324 26.7166 36.3706 27.2838 36.0687C27.7168 35.8385 28.2087 35.7168 28.7067 35.7168C29.7248 35.7168 30.674 36.2208 31.1835 37.0322C31.4349 37.4318 31.5677 37.8864 31.5677 38.3464C31.5677 39.2827 31.0217 40.1573 30.1428 40.629C29.5778 40.9253 28.9188 41.0374 28.2956 40.9535C28.0619 41.4989 27.6356 41.9597 27.0704 42.2623C26.6347 42.4934 26.1423 42.6149 25.6446 42.6149ZM25.6428 38.4476C25.3501 38.4476 25.0618 38.5191 24.8089 38.6541C24.2937 38.9281 23.9743 39.4392 23.9743 39.9881C23.9743 40.2553 24.0513 40.5194 24.1968 40.752C24.4936 41.2257 25.0483 41.5203 25.6444 41.5203C25.9347 41.5203 26.2223 41.4491 26.476 41.3149C26.9179 41.0783 27.2157 40.6743 27.2907 40.2077C27.3172 40.0424 27.4243 39.8974 27.5814 39.8139C27.7385 39.7303 27.9281 39.7175 28.0967 39.7792C28.5622 39.9494 29.1068 39.9133 29.5505 39.6805C30.0603 39.4069 30.3801 38.8947 30.3801 38.3466C30.3801 38.079 30.3025 37.8141 30.1559 37.5808C29.8578 37.1062 29.3023 36.8115 28.7065 36.8115C28.4165 36.8115 28.1296 36.8824 27.8771 37.0167C27.434 37.2525 27.1369 37.656 27.0623 38.1235C27.036 38.2882 26.9299 38.4329 26.774 38.5168C26.618 38.6005 26.4291 38.6145 26.2606 38.5543C26.0623 38.4836 25.8544 38.4476 25.6428 38.4476Z" fill="#FDF311"/>
<path d="M8.36011 47.7619C8.15489 47.7619 7.95561 47.6638 7.84538 47.4883C7.68132 47.2265 7.77849 46.8918 8.06247 46.7406L12.7806 44.2278C13.0648 44.0766 13.4277 44.1661 13.5918 44.4279C13.7558 44.6896 13.6586 45.0243 13.3747 45.1756L8.65656 47.6884C8.56295 47.7382 8.46084 47.7619 8.36011 47.7619Z" fill="#01A48C"/>
<path d="M9.95581 50.3063C9.75059 50.3063 9.55111 50.2081 9.44108 50.0327C9.27702 49.7709 9.37419 49.4362 9.65817 49.285L19.9368 43.8117C20.2206 43.6605 20.5841 43.7502 20.7478 44.0118C20.9119 44.2735 20.8147 44.6083 20.5307 44.7595L10.2521 50.2328C10.1589 50.2826 10.0568 50.3063 9.95581 50.3063Z" fill="black"/>
</svg>
