<svg width="655" height="597" viewBox="0 0 655 597" fill="none" xmlns="http://www.w3.org/2000/svg">
<path d="M328.128 319.955C328.506 323.143 329.096 326.641 330.04 330.426C331.315 335.54 332.944 340.011 334.573 343.775C334.125 344.151 332.779 345.147 330.796 345.28C329.545 345.369 328.553 345.081 327.986 344.882C327.137 342.114 326.31 339.237 325.555 336.248C323.997 330.094 322.863 324.228 322.037 318.76C324.091 319.158 326.121 319.557 328.128 319.955Z" fill="#191919"/>
<path d="M381.129 317.875C380.823 321.041 380.303 324.561 379.43 328.346C378.202 333.703 376.573 338.352 374.92 342.271C375.156 342.47 376.502 343.665 378.58 343.577C380.374 343.51 381.531 342.514 381.814 342.271C382.357 339.592 382.877 336.891 383.396 334.19C384.529 328.28 385.544 322.458 386.512 316.702C384.718 317.078 382.924 317.477 381.129 317.875Z" fill="#191919"/>
<path d="M338.917 309.042C339.46 312.429 340.098 315.927 340.829 319.513C341.892 324.715 343.096 329.674 344.371 334.367C343.828 334.677 342.742 335.186 341.254 335.275C340.003 335.341 339.012 335.076 338.445 334.876C337.737 331.733 337.052 328.545 336.367 325.357C335.116 319.447 333.959 313.625 332.85 307.869C334.88 308.245 336.887 308.644 338.917 309.042Z" fill="#191919"/>
<path d="M372.23 308.378C371.592 311.721 371.026 315.219 370.53 318.849C369.845 323.852 369.373 328.634 369.09 333.194C369.491 333.438 370.435 333.947 371.781 334.013C373.221 334.057 374.284 333.526 374.685 333.305C374.449 330.693 374.354 327.793 374.496 324.693C374.779 317.809 376.125 311.876 377.612 307.205C375.818 307.581 374.024 307.98 372.23 308.378Z" fill="#191919"/>
<path d="M414.183 234.307C418.315 241.214 415.127 248.851 407.384 267.823C403.653 276.943 396.83 293.701 387.198 317.587C377.731 320.819 362.054 324.804 342.671 323.542C331.41 322.812 321.966 320.531 314.813 318.185C313.75 316.392 310.067 309.684 312.83 303.176C314.364 299.568 317.457 296.978 324.02 293.923C330.489 290.912 341.892 286.684 358.466 285.909C351.973 255.603 363.093 230.765 380.399 225.032C391.754 221.291 408.493 224.811 414.183 234.307Z" fill="#FDF311" stroke="black" stroke-width="2" stroke-miterlimit="10"/>
<path d="M412.672 236.808C405.825 244.933 404.267 255.846 401.646 265.609C398.837 276.057 395.602 286.484 390.762 296.291C388.095 301.67 384.955 306.85 381.201 311.632C380.941 311.986 381.555 312.318 381.815 311.964C388.402 303.552 393.053 294.011 396.641 284.182C400.277 274.176 402.685 263.86 405.518 253.655C407.124 247.855 409.177 242.055 413.191 237.295C413.451 236.941 412.955 236.476 412.672 236.808Z" fill="#191919"/>
<path d="M314.954 313.381C330.701 318.804 347.865 320.398 364.438 317.985C369.184 317.299 373.882 316.281 378.486 314.952C378.911 314.82 378.746 314.178 378.297 314.311C362.243 318.959 345.008 319.668 328.576 316.391C324.02 315.484 319.511 314.244 315.143 312.739C314.718 312.584 314.529 313.226 314.954 313.381Z" fill="#191919"/>
<path d="M370.388 295.981C374.354 297.199 377.73 299.656 379.997 302.977C380.233 303.331 380.847 302.999 380.611 302.645C378.25 299.191 374.732 296.623 370.577 295.339C370.128 295.206 369.94 295.848 370.388 295.981Z" fill="#191919"/>
<path d="M299.372 324.65C301.26 327.306 303.149 329.985 305.014 332.641C292.926 342.824 291.368 345.724 292.265 346.432C294.06 347.827 306.926 341.629 308.249 340.987C313.041 338.684 316.653 336.449 319.061 334.855C318.212 332.685 317.078 330.25 315.52 327.682C313.466 324.295 311.2 321.44 309.051 319.115C305.817 320.93 302.582 322.79 299.372 324.65Z" fill="black"/>
<path d="M370.011 272.472C370.86 274.198 371.758 276.656 371.899 279.622C372.112 284.094 370.554 287.658 369.373 289.716C368.736 290.491 367.602 291.775 365.926 293.17C365.926 293.17 362.125 296.313 356.081 298.726C349.919 301.206 332 304.194 307.659 304.77C308.367 307.603 309.642 311.079 311.909 314.82C313.16 316.879 314.529 318.694 315.875 320.266C314.978 321.373 312.428 324.184 307.352 325.955C302.465 327.659 297.979 327.46 296.209 327.327C293.659 325.136 291.038 322.524 288.607 319.402C281.453 310.171 279.777 301.25 279.47 295.516C281.241 294.321 283.838 292.683 287.237 290.934C294.32 287.281 300.813 285.289 306.148 283.806C315.332 281.282 324.115 279.533 344.324 276.324C350.651 275.327 359.41 273.955 370.011 272.472Z" fill="white" stroke="#191919" stroke-width="2" stroke-miterlimit="10"/>
<path opacity="0.19" d="M347.582 276.28C346.897 280.508 344.961 285.998 338.965 289.407C333.133 292.727 328.246 291.377 316.56 294.034C308.155 295.937 297.035 298.461 293.942 304.062C290.708 309.95 296.822 318.251 307.517 325.07C308.414 324.959 309.548 324.738 310.752 324.295C313.845 323.144 315.356 321.262 315.922 320.443C314.553 318.893 313.136 317.1 311.838 315.042C309.382 311.19 308.06 307.604 307.305 304.704C319.818 304.217 330.324 303.198 338.303 302.224C347.912 301.051 354.57 299.878 360.921 296.513C366.233 293.701 368.358 290.934 369.113 289.872C371.403 286.618 371.592 283.651 371.687 281.991C371.923 277.94 370.506 274.641 369.326 272.561C362.078 273.8 354.83 275.04 347.582 276.28Z" fill="#6C6D6D"/>
<path opacity="0.19" d="M369.562 273.025C369.09 277.143 367.414 283.651 360.732 288.787C356.624 291.953 352.209 293.369 334.88 297.753C327.231 299.678 317.976 301.959 307.447 304.438C320.833 304.305 331.717 303.265 339.531 302.268C347.629 301.228 351.596 300.32 355.703 298.66C359.599 297.088 367.461 293.901 370.672 287.193C373.764 280.685 370.648 274.841 369.562 273.025Z" fill="#6C6D6D"/>
<path opacity="0.22" d="M307.517 304.77C307.423 307.692 307.564 311.034 308.154 314.709C308.721 318.34 309.642 321.594 310.633 324.427C311.436 323.985 312.357 323.387 313.254 322.656C314.34 321.771 315.143 320.93 315.733 320.199C314.364 318.517 312.971 316.569 311.672 314.377C309.571 310.835 308.32 307.559 307.517 304.77Z" fill="#6C6D6D"/>
<path d="M306.431 337.357C308.249 340.699 310.043 344.042 311.861 347.407C300.245 360.202 298.734 363.833 299.608 364.718C301.331 366.489 313.702 358.675 314.977 357.878C319.581 354.978 323.075 352.166 325.389 350.174C324.563 347.451 323.476 344.396 321.966 341.142C320.006 336.892 317.81 333.306 315.756 330.361C312.64 332.708 309.524 335.032 306.431 337.357Z" fill="black"/>
<path d="M374.331 271.786C375.157 273.978 376.007 277.033 376.149 280.774C376.361 286.397 374.85 290.868 373.717 293.458C373.103 294.432 372.017 296.048 370.412 297.819C370.412 297.819 366.776 301.782 360.968 304.815C355.042 307.914 337.808 311.699 314.435 312.408C315.119 315.972 316.323 320.333 318.519 325.026C319.723 327.616 321.045 329.896 322.344 331.866C321.494 333.261 319.039 336.781 314.151 339.017C309.453 341.164 305.156 340.92 303.433 340.721C300.978 337.976 298.451 334.678 296.138 330.759C289.244 319.16 287.639 307.936 287.355 300.741C289.055 299.258 291.558 297.177 294.816 294.986C301.639 290.403 307.848 287.88 312.995 286.02C321.801 282.855 330.276 280.663 349.707 276.612C355.703 275.35 364.155 273.646 374.331 271.786Z" fill="white" stroke="#191919" stroke-width="2" stroke-miterlimit="10"/>
<path opacity="0.19" d="M352.775 276.568C352.114 281.881 350.249 288.765 344.489 293.06C338.893 297.244 334.171 295.539 322.957 298.882C314.883 301.273 304.188 304.46 301.213 311.5C298.097 318.894 303.976 329.343 314.245 337.888C315.119 337.755 316.205 337.467 317.362 336.913C320.337 335.475 321.777 333.106 322.32 332.065C320.998 330.117 319.628 327.859 318.377 325.269C316.016 320.421 314.741 315.928 314.033 312.275C326.074 311.655 336.155 310.393 343.851 309.176C353.106 307.715 359.48 306.231 365.595 302.003C370.695 298.461 372.749 294.986 373.457 293.658C375.652 289.562 375.841 285.843 375.936 283.762C376.148 278.671 374.803 274.531 373.669 271.919C366.705 273.446 359.74 274.996 352.775 276.568Z" fill="#6C6D6D"/>
<path opacity="0.19" d="M373.882 272.473C373.434 277.631 371.828 285.821 365.407 292.285C361.44 296.27 357.214 298.041 340.57 303.553C333.204 305.988 324.327 308.844 314.199 311.965C327.066 311.788 337.548 310.504 345.056 309.242C352.847 307.936 356.671 306.807 360.59 304.726C364.344 302.734 371.876 298.749 374.992 290.293C377.943 282.102 374.945 274.775 373.882 272.473Z" fill="#6C6D6D"/>
<path opacity="0.22" d="M314.269 312.385C314.175 316.06 314.316 320.266 314.883 324.87C315.45 329.452 316.3 333.526 317.268 337.068C318.047 336.492 318.92 335.762 319.794 334.832C320.832 333.725 321.612 332.662 322.178 331.755C320.856 329.63 319.51 327.195 318.283 324.427C316.252 320 315.025 315.86 314.269 312.385Z" fill="#6C6D6D"/>
<path d="M305.085 237.385C304.637 237.185 303.74 236.809 303.763 236.389C303.81 235.702 306.242 235.237 308.06 235.26C309.288 235.26 311.554 235.503 314.198 237.23C311.719 237.96 308.06 238.624 305.085 237.385Z" fill="white" stroke="#191919" stroke-width="2" stroke-miterlimit="10"/>
<path d="M361.865 208.673C357.38 208.12 353.342 214.429 352.965 215.004C351.595 217.196 351.43 218.657 350.486 222.664C348.196 232.426 346.968 237.385 343.568 240.373C340.499 243.052 336.911 243.694 335.966 243.827C331.929 244.424 328.27 243.008 321.14 240.152C315.119 237.739 314.387 236.854 311.106 236.499C309.43 236.322 304.543 235.813 301.308 238.757C299.231 240.639 298.31 243.65 299.065 244.269C300.033 245.066 304 242.255 304.047 242.321C304.07 242.366 302.866 242.897 301.875 244.048C301.379 244.602 300.529 245.797 300.836 246.107C301.379 246.727 304.708 242.963 308.367 243.628C310.87 244.07 311.342 246.195 314.246 246.594C315.946 246.837 317.433 246.35 318.377 245.93C320.03 247.612 322.721 250.003 326.617 251.951C328.931 253.102 337.099 257.065 347.086 254.762C357.686 252.327 363.022 244.557 364.698 242.122C365.643 240.728 372.584 230.323 369.231 218.657C368.641 216.775 366.493 209.249 361.865 208.673Z" fill="white" stroke="#191919" stroke-width="2" stroke-miterlimit="10"/>
<path opacity="0.25" d="M361.393 208.739C359.858 209.492 362.833 214.716 362.455 222.198C362.101 229.393 358.82 234.706 357.356 237.141C355.373 240.395 352.752 244.645 347.534 247.413C340.523 251.132 331.834 250.578 325.649 248.055C323.807 247.302 321.942 244.867 317.881 243.384C316.111 242.742 314.718 242.476 313.089 242.166C309.099 241.436 305.558 240.771 302.276 242.321C300.718 243.074 299.419 244.225 299.514 244.38C299.608 244.535 301.426 243.671 303.031 242.852C301.095 245.265 300.789 245.952 300.93 246.084C301.095 246.217 301.686 245.708 303.197 244.911C304.826 244.07 306.006 243.472 307.446 243.583C308.178 243.649 308.745 243.871 309.075 244.003C310.374 244.535 310.681 245.155 311.979 245.774C312.782 246.151 313.443 246.306 313.797 246.372C314.553 246.527 316.111 246.726 318.165 246.04C319.959 247.811 328.199 255.648 340.263 255.493C346.472 255.404 351.029 253.235 352.823 252.371C362.668 247.568 366.587 239.045 367.578 236.698C370.648 229.437 371.734 218.679 366.115 211.927C364.769 210.289 362.455 208.23 361.393 208.739Z" fill="#6C6D6D"/>
<path d="M299.49 244.269C300.411 242.985 301.615 241.967 303.055 241.237C303.362 241.082 303.079 240.661 302.796 240.816C301.285 241.591 300.01 242.675 299.042 244.026C298.829 244.291 299.302 244.535 299.49 244.269Z" fill="#191919"/>
<path d="M299.773 241.414C300.694 240.064 302.182 239.355 303.669 238.669C303.976 238.536 303.716 238.093 303.409 238.248C301.827 238.957 300.269 239.731 299.301 241.17C299.136 241.436 299.585 241.68 299.773 241.414Z" fill="#191919"/>
<path opacity="0.29" d="M368.168 216.709C367.814 218.945 367.177 222.177 366.044 225.984C363.824 233.511 361.818 240.285 356.576 245.664C350.084 252.305 341.278 254.121 336.225 254.674C339.979 255.493 342.93 255.338 344.796 255.095C358.961 253.235 366.61 238.957 368.688 232.714C369.042 231.607 369.797 229.327 369.892 226.206C370.057 222.044 368.971 218.701 368.168 216.709Z" fill="#6C6D6D"/>
<path opacity="0.26" d="M308.839 243.361C310.185 243.981 312.027 244.667 314.293 245.066C316.087 245.376 317.693 245.442 318.968 245.398C315.733 247.014 314.057 246.815 313.113 246.283C312.522 245.951 311.861 245.287 310.044 244.114C309.548 243.782 309.123 243.516 308.839 243.361Z" fill="#6C6D6D"/>
<path d="M261.102 279.755C261.102 290.381 261.102 301.029 261.102 311.655C261.102 312.939 263.227 312.939 263.227 311.655C263.227 301.029 263.227 290.381 263.227 279.755C263.227 278.494 261.102 278.472 261.102 279.755Z" fill="#161616"/>
<path d="M299.726 279.335C299.726 281.04 299.726 282.744 299.726 284.449C299.726 285.733 301.851 285.733 301.851 284.449C301.851 282.744 301.851 281.04 301.851 279.335C301.851 278.051 299.726 278.051 299.726 279.335Z" fill="#161616"/>
<path d="M231.779 278.449C243.23 268.333 254.68 258.194 266.154 248.077C284.687 248.387 303.197 248.697 321.73 249.007C318.708 258.836 315.686 268.643 312.664 278.471C285.702 278.449 258.741 278.449 231.779 278.449Z" fill="#FDF311" stroke="#191919" stroke-width="2" stroke-miterlimit="10"/>
<path d="M232.464 279.601C253.17 279.601 273.851 279.601 294.556 279.601C300.364 279.601 306.148 279.601 311.956 279.601C313.325 279.601 313.325 277.608 311.956 277.608C291.251 277.608 270.569 277.608 249.864 277.608C244.057 277.608 238.272 277.608 232.464 277.608C231.095 277.608 231.095 279.601 232.464 279.601Z" fill="#161616"/>
<path d="M238.532 279.269C238.532 301.295 238.532 323.321 238.532 345.326C238.532 351.502 238.532 357.656 238.532 363.832C238.532 365.116 240.656 365.116 240.656 363.832C240.656 341.806 240.656 319.78 240.656 297.775C240.656 291.599 240.656 285.445 240.656 279.269C240.656 277.985 238.532 277.985 238.532 279.269Z" fill="#161616"/>
<path d="M303.291 279.269C303.291 301.295 303.291 323.321 303.291 345.326C303.291 351.502 303.291 357.656 303.291 363.832C303.291 365.116 305.416 365.116 305.416 363.832C305.416 341.806 305.416 319.78 305.416 297.775C305.416 291.599 305.416 285.445 305.416 279.269C305.416 277.985 303.291 277.985 303.291 279.269Z" fill="#161616"/>
<path d="M239.594 320.377C256.262 320.377 272.93 320.377 289.598 320.377C294.32 320.377 299.042 320.377 303.764 320.377C305.133 320.377 305.133 318.385 303.764 318.385C287.096 318.385 270.428 318.385 253.76 318.385C249.038 318.385 244.316 318.385 239.594 318.385C238.225 318.385 238.225 320.377 239.594 320.377Z" fill="#161616"/>
<path d="M321.446 249.007C318.755 258.858 315.662 268.621 312.121 278.228C311.814 279.047 313.183 279.379 313.49 278.582C317.032 268.953 320.124 259.212 322.816 249.361C323.028 248.542 321.682 248.188 321.446 249.007Z" fill="#161616"/>
<path d="M208.407 366.001C220.943 366.001 233.456 366.001 245.992 366.001C247.362 366.001 247.362 364.009 245.992 364.009C233.456 364.009 220.943 364.009 208.407 364.009C207.037 364.009 207.037 366.001 208.407 366.001Z" fill="#01A089"/>
<path d="M251.257 365.559C254.137 365.559 257.041 365.559 259.921 365.559C261.291 365.559 261.291 363.566 259.921 363.566C257.041 363.566 254.137 363.566 251.257 363.566C249.888 363.566 249.888 365.559 251.257 365.559Z" fill="#161616"/>
<path d="M288.842 365.846C300.127 365.846 311.413 365.846 322.721 365.846C324.091 365.846 324.091 363.854 322.721 363.854C311.436 363.854 300.151 363.854 288.842 363.854C287.473 363.854 287.473 365.846 288.842 365.846Z" fill="#FDF311"/>
<path d="M330.442 365.139C332.448 365.139 334.455 365.139 336.486 365.139C337.855 365.139 337.855 363.146 336.486 363.146C334.479 363.146 332.472 363.146 330.442 363.146C329.072 363.146 329.072 365.139 330.442 365.139Z" fill="#01A089"/>
<path d="M197.027 358.984C201.914 358.984 206.801 358.984 211.665 358.984C213.034 358.984 213.034 356.991 211.665 356.991C206.777 356.991 201.89 356.991 197.027 356.991C195.658 356.991 195.658 358.984 197.027 358.984Z" fill="#FDF311"/>
<path d="M300.293 274.264C285.726 273.91 271.136 273.578 256.569 273.224C265.21 265.476 273.827 257.706 282.468 249.958C292.431 250.445 302.418 250.932 312.381 251.419C308.344 259.056 304.33 266.649 300.293 274.264Z" fill="white" stroke="#191919" stroke-width="2" stroke-miterlimit="10"/>
<path d="M281.973 249.803C273.497 257.485 265.021 265.188 256.546 272.87C256.168 260.562 255.767 248.231 255.389 235.923C263.982 230.832 272.576 225.74 281.17 220.648C281.406 230.367 281.689 240.085 281.973 249.803Z" fill="white" stroke="#191919" stroke-width="2" stroke-miterlimit="10"/>
<path d="M256.168 237.097C256.852 248.055 257.301 259.035 257.537 270.015C257.537 270.236 257.891 270.236 257.891 270.015C257.655 259.035 257.207 248.055 256.522 237.097C256.498 236.897 256.144 236.897 256.168 237.097Z" fill="#191919"/>
<path d="M256.356 237.14C264.265 232.314 272.174 227.488 280.083 222.662C280.272 222.552 280.107 222.264 279.895 222.375C271.986 227.2 264.077 232.026 256.168 236.852C255.979 236.985 256.144 237.273 256.356 237.14Z" fill="#191919"/>
<path d="M279.989 222.64C279.965 231.472 280.249 240.327 280.863 249.138C280.886 249.359 281.24 249.359 281.217 249.138C280.626 240.305 280.32 231.472 280.343 222.64C280.343 222.44 279.989 222.44 279.989 222.64Z" fill="#191919"/>
<path d="M257.773 270.479C265.517 263.461 273.284 256.444 281.028 249.448C281.194 249.293 280.934 249.072 280.769 249.205C273.025 256.222 265.257 263.24 257.514 270.235C257.372 270.39 257.608 270.634 257.773 270.479Z" fill="#191919"/>
<path d="M293.635 266.716C295.075 264.568 296.515 262.399 297.908 260.207C298.026 260.03 297.719 259.853 297.601 260.03C296.208 262.222 294.768 264.391 293.328 266.539C293.186 266.716 293.493 266.893 293.635 266.716Z" fill="#191919"/>
<path d="M297.814 260.141C299.679 260.208 301.544 260.208 303.409 260.119C303.646 260.119 303.646 259.787 303.409 259.787C301.544 259.854 299.679 259.854 297.814 259.809C297.578 259.809 297.578 260.141 297.814 260.141Z" fill="#191919"/>
<path d="M303.173 260.03C302.111 262.2 301.025 264.369 299.939 266.539C299.844 266.738 300.151 266.893 300.246 266.716C301.332 264.546 302.418 262.377 303.48 260.207C303.575 259.986 303.268 259.831 303.173 260.03Z" fill="#191919"/>
<path d="M293.518 266.893C295.595 267.181 297.791 267.048 299.892 266.959C300.128 266.959 300.128 266.627 299.892 266.627C297.838 266.716 295.666 266.849 293.612 266.583C293.376 266.539 293.282 266.871 293.518 266.893Z" fill="#191919"/>
<path d="M301.261 260.052C300.317 262.265 299.231 264.413 298.003 266.494C297.885 266.671 298.192 266.848 298.31 266.671C299.538 264.546 300.647 262.376 301.615 260.14C301.686 259.941 301.356 259.853 301.261 260.052Z" fill="#191919"/>
<path d="M267.052 270.081C272.246 264.059 277.629 258.171 283.177 252.415C283.319 252.26 283.083 252.017 282.917 252.172C277.369 257.905 271.986 263.794 266.792 269.837C266.651 270.014 266.91 270.236 267.052 270.081Z" fill="#191919"/>
<path d="M273.332 270.457C277.983 264.37 282.893 258.481 288.04 252.77C288.182 252.615 287.946 252.371 287.781 252.526C282.61 258.26 277.699 264.17 273.025 270.28C272.883 270.457 273.19 270.634 273.332 270.457Z" fill="#191919"/>
<path d="M280.084 271.365C284.121 265.033 288.536 258.923 293.305 253.057C293.447 252.88 293.14 252.725 292.998 252.88C288.229 258.746 283.814 264.856 279.777 271.187C279.659 271.365 279.966 271.542 280.084 271.365Z" fill="#191919"/>
<path d="M285.75 271.918C289.716 264.989 294.415 258.459 299.797 252.438C299.939 252.283 299.703 252.039 299.538 252.194C294.131 258.238 289.409 264.79 285.42 271.741C285.325 271.94 285.632 272.118 285.75 271.918Z" fill="#191919"/>
<path d="M270.074 266.495C276.118 265.897 282.161 266.605 288.182 267.358C288.418 267.38 288.394 267.048 288.182 267.026C282.185 266.273 276.141 265.543 270.074 266.163C269.861 266.185 269.861 266.517 270.074 266.495Z" fill="#191919"/>
<path d="M273.119 263.262C278.833 263.063 284.546 263.461 290.165 264.48C290.378 264.524 290.472 264.192 290.259 264.17C284.617 263.151 278.856 262.753 273.119 262.952C272.907 262.93 272.907 263.262 273.119 263.262Z" fill="#191919"/>
<path d="M275.858 260.141C281.359 259.809 286.86 260.274 292.219 261.513C292.431 261.558 292.526 261.248 292.313 261.203C286.931 259.942 281.406 259.477 275.858 259.809C275.622 259.831 275.622 260.163 275.858 260.141Z" fill="#191919"/>
<path d="M278.691 257.02C283.979 257.042 289.22 257.551 294.391 258.547C294.603 258.592 294.698 258.26 294.485 258.238C289.291 257.241 284.003 256.732 278.691 256.71C278.478 256.688 278.478 257.02 278.691 257.02Z" fill="#191919"/>
<path d="M281.5 254.12C286.529 254.208 291.534 254.762 296.421 255.802C296.633 255.846 296.728 255.536 296.515 255.492C291.581 254.452 286.552 253.876 281.5 253.81C281.264 253.788 281.264 254.12 281.5 254.12Z" fill="#191919"/>
<path d="M297.696 257.484C295.383 260.672 293.092 263.859 290.779 267.047C290.661 267.224 290.968 267.401 291.086 267.224C293.399 264.036 295.689 260.849 298.003 257.661C298.145 257.462 297.838 257.307 297.696 257.484Z" fill="#191919"/>
<path d="M258.599 252.658C261.55 251.485 264.738 252.149 267.854 252.104C270.475 252.082 272.977 251.396 275.22 250.156C275.409 250.046 275.244 249.758 275.031 249.869C272.269 251.396 269.341 251.883 266.178 251.75C263.533 251.64 260.913 251.396 258.41 252.392C258.221 252.459 258.387 252.746 258.599 252.658Z" fill="#01A089"/>
<path d="M266.556 251.286C271.608 248.607 273.945 242.962 279.21 240.594C279.422 240.505 279.234 240.217 279.021 240.306C273.733 242.697 271.419 248.319 266.367 250.998C266.178 251.109 266.343 251.396 266.556 251.286Z" fill="#01A089"/>
<path d="M272.978 235.503C272.104 234.861 272.246 233.821 272.742 233.002C272.978 232.603 273.332 232.183 273.733 231.939C274.465 231.496 275.15 231.85 275.717 232.315C275.882 232.448 276.142 232.227 275.976 232.072C274.796 231.142 273.686 231.231 272.718 232.426C271.939 233.4 271.538 234.861 272.718 235.747C272.907 235.879 273.167 235.636 272.978 235.503Z" fill="#FDF311"/>
<path d="M345.693 219.321C339.224 226.051 337.477 233.445 336.533 237.629C334.809 245.376 336.627 248.476 336.745 263.197C336.793 269.462 336.509 274.531 336.297 277.719C337.761 278.781 346.826 285.113 358.938 283.032C367.909 281.504 373.316 276.236 375.016 274.443C375.417 272.339 375.984 269.24 376.645 265.477C380.139 245.177 381.862 234.884 379.69 227.512C378.392 223.04 375.181 215.956 366.068 208.629C362.243 209.382 353.059 211.684 345.693 219.321Z" fill="#01A089"/>
<path opacity="0.19" d="M352.28 215.248C354.523 221.535 355.727 226.914 356.436 230.855C358.301 241.281 361.11 256.91 353.201 272.052C350.675 276.878 347.724 280.419 345.646 282.611C348.385 283.209 353.815 284.028 360.284 282.456C367.98 280.597 372.797 276.413 374.78 274.509C376.314 266.274 377.542 259.212 378.486 253.7C380.115 244.004 380.493 241.06 380.328 236.92C380.139 231.607 379.879 226.029 376.48 220.007C373.222 214.252 368.641 210.798 365.832 209.027C363.542 209.404 360.307 210.201 356.884 212.06C354.995 213.123 353.461 214.252 352.28 215.248Z" fill="#007665"/>
<path opacity="0.18" d="M379.1 225.807C378.675 225.829 379.572 231.961 378.179 240.417C375.606 256.068 367.342 266.915 364.155 270.767C361.487 273.977 357.309 278.404 351.194 282.765C353.389 283.075 356.317 283.208 359.669 282.61C367.626 281.216 372.678 276.633 374.614 274.663C375.11 271.962 375.912 267.734 376.928 262.51C379.312 250.29 379.784 248.829 380.162 245.022C381.201 234.639 379.596 225.807 379.1 225.807Z" fill="#6C6D6D"/>
<path d="M304.094 242.255C303.645 241.967 302.748 241.436 302.842 240.993C303.031 240.284 305.746 240.174 307.706 240.484C309.028 240.683 311.436 241.325 313.962 243.561C311.129 243.937 307.045 244.048 304.094 242.255Z" fill="white" stroke="#191919" stroke-width="2" stroke-miterlimit="10"/>
<path d="M370.742 221.047C365.996 219.741 360.448 225.74 359.953 226.315C358.064 228.418 357.615 229.924 355.845 233.997C351.548 243.959 349.305 248.984 345.055 251.596C341.254 253.943 337.264 254.031 336.202 254.031C331.74 254.009 328.057 251.928 320.88 247.766C314.836 244.247 314.222 243.184 310.728 242.298C308.957 241.856 303.763 240.527 299.726 243.118C297.153 244.756 295.571 247.811 296.279 248.585C297.176 249.582 301.992 247.235 302.016 247.324C302.04 247.368 300.623 247.744 299.348 248.807C298.711 249.316 297.578 250.423 297.837 250.821C298.309 251.574 302.606 248.12 306.431 249.404C309.028 250.268 309.17 252.592 312.215 253.5C314.009 254.031 315.709 253.743 316.795 253.456C318.259 255.514 320.738 258.459 324.563 261.137C326.853 262.731 334.927 268.221 346.141 267.402C358.04 266.539 365.265 259.167 367.507 256.887C368.806 255.581 378.226 245.685 376.786 232.802C376.573 230.699 375.653 222.419 370.742 221.047Z" fill="white" stroke="#191919" stroke-width="2" stroke-miterlimit="10"/>
<path opacity="0.25" d="M370.222 221.047C368.428 221.601 370.671 227.6 368.853 235.458C367.13 243.007 362.597 248.099 360.543 250.423C357.78 253.544 354.168 257.618 348.006 259.698C339.743 262.488 330.465 260.518 324.256 256.865C322.414 255.758 320.856 252.902 316.724 250.667C314.93 249.693 313.49 249.205 311.766 248.608C307.611 247.191 303.881 245.907 300.08 247.036C298.262 247.567 296.633 248.586 296.728 248.763C296.822 248.962 298.923 248.32 300.812 247.722C298.286 249.958 297.814 250.644 297.932 250.822C298.073 250.999 298.829 250.534 300.599 249.958C302.535 249.316 303.881 248.896 305.439 249.25C306.218 249.427 306.785 249.759 307.139 249.958C308.438 250.711 308.65 251.441 309.925 252.305C310.704 252.836 311.412 253.102 311.79 253.234C312.569 253.522 314.222 253.987 316.559 253.589C318.165 255.758 325.601 265.366 338.657 267.137C345.386 268.044 350.698 266.495 352.799 265.853C364.32 262.355 370.152 253.987 371.663 251.663C376.337 244.49 379.524 233.289 374.708 225.231C373.575 223.217 371.45 220.671 370.222 221.047Z" fill="#6C6D6D"/>
<path d="M296.703 248.652C297.955 247.434 299.418 246.549 301.118 246.018C301.449 245.907 301.307 245.442 300.977 245.531C299.206 246.106 297.624 247.036 296.326 248.298C296.09 248.541 296.467 248.896 296.703 248.652Z" fill="#191919"/>
<path d="M297.554 245.686C298.805 244.38 300.552 243.871 302.299 243.406C302.63 243.317 302.488 242.83 302.158 242.919C300.34 243.428 298.498 243.982 297.2 245.332C296.94 245.575 297.318 245.907 297.554 245.686Z" fill="#191919"/>
<path opacity="0.29" d="M376.054 230.566C375.251 232.869 373.952 236.189 372.04 240.041C368.239 247.634 364.816 254.474 358.134 259.323C349.895 265.3 340.026 265.809 334.478 265.565C338.374 267.048 341.608 267.358 343.662 267.403C359.291 267.712 370.246 253.833 373.646 247.59C374.236 246.483 375.463 244.181 376.172 240.904C377.092 236.499 376.549 232.802 376.054 230.566Z" fill="#6C6D6D"/>
<path opacity="0.26" d="M306.998 249.184C308.32 250.047 310.185 251.065 312.57 251.862C314.458 252.482 316.182 252.792 317.551 252.947C313.75 254.12 311.979 253.655 311.059 252.947C310.492 252.504 309.902 251.685 308.131 250.158C307.682 249.737 307.281 249.405 306.998 249.184Z" fill="#6C6D6D"/>
<path d="M334.148 176.396C333.888 177.813 333.629 179.23 333.416 180.713C332.495 186.734 332.118 192.423 332.094 197.714C333.393 197.581 334.667 197.448 335.966 197.338C335.824 198.511 335.423 202.806 338.351 207.056C341.113 211.063 345.079 212.524 346.307 212.922C346.165 215.092 346.047 217.239 345.905 219.409C348.455 217.283 351.926 214.782 356.341 212.546C359.717 210.841 362.904 209.668 365.619 208.871C362.573 205.329 361.417 201.987 360.921 200.061C360.071 196.74 360.236 193.884 360.401 191.361C360.567 188.771 360.968 186.623 361.322 185.118C362.432 180.381 359.528 172.876 353.744 170.176C348.03 167.497 339.507 169.755 334.148 176.396Z" fill="white" stroke="#161616" stroke-width="2" stroke-miterlimit="10"/>
<path d="M335.423 197.493C336.084 197.404 336.769 197.338 337.43 197.272C337.666 197.249 337.666 196.917 337.43 196.94C336.722 197.006 336.037 197.094 335.329 197.183C335.116 197.183 335.211 197.515 335.423 197.493Z" fill="#161616"/>
<path d="M356.719 179.828C353.862 180.514 353.343 182.839 349.73 187.687C346.071 192.601 343.757 195.678 339.626 197.471C336.958 198.623 335.636 198.313 334.455 199.796C332.425 202.364 333.794 206.592 334.998 208.761C336.391 211.263 338.516 212.768 340.263 214.008C341.939 215.181 343.474 215.956 344.56 216.421C343.403 214.76 343.332 214.251 343.474 214.096C343.852 213.742 345.457 215.646 347.346 215.402C347.889 215.336 348.857 215.048 351.005 211.883C352.469 209.735 353.461 208.252 354.122 206.127C355.562 201.567 353.531 200.327 354.122 194.328C354.216 193.42 354.877 186.314 357.569 185.849C358.536 185.672 359.528 186.425 360 187.001C360.992 188.218 360.874 190.166 359.646 191.849C360.047 191.583 363.896 189.148 363.849 185.185C363.849 184.565 363.825 182.285 361.983 180.802C359.882 179.12 356.955 179.784 356.719 179.828Z" fill="#161616" stroke="#161616" stroke-width="2" stroke-miterlimit="10"/>
<path d="M337.689 189.901C338.237 189.901 338.681 189.157 338.681 188.24C338.681 187.323 338.237 186.58 337.689 186.58C337.142 186.58 336.698 187.323 336.698 188.24C336.698 189.157 337.142 189.901 337.689 189.901Z" fill="#161616"/>
<path d="M330.134 190.676C330.682 190.676 331.126 189.933 331.126 189.016C331.126 188.099 330.682 187.355 330.134 187.355C329.587 187.355 329.143 188.099 329.143 189.016C329.143 189.933 329.587 190.676 330.134 190.676Z" fill="#161616"/>
<path d="M328.647 186.293C329.284 185.606 330.276 185.54 330.984 186.204C331.315 186.514 331.81 186.027 331.48 185.739C330.512 184.854 329.025 184.876 328.127 185.828C327.868 186.16 328.364 186.625 328.647 186.293Z" fill="#161616"/>
<path d="M336.391 185.141C337.217 184.499 338.303 184.587 339.012 185.318C339.318 185.628 339.814 185.163 339.507 184.853C338.516 183.857 336.981 183.812 335.872 184.676C335.541 184.941 336.037 185.406 336.391 185.141Z" fill="#161616"/>
<path d="M333.345 179.031C333.605 177.437 334.266 174.825 336.084 172.124C336.721 171.172 338.091 169.158 340.263 167.785C344.418 165.195 350.816 165.394 355.467 168.582C360.023 171.704 362.29 177.282 361.298 182.816C351.973 181.577 342.671 180.315 333.345 179.031Z" fill="#01A089"/>
<path d="M318.094 179.23C332.425 180.957 346.779 182.683 361.11 184.388C362.456 184.543 362.456 182.551 361.11 182.396C346.779 180.669 332.425 178.942 318.094 177.238C316.749 177.061 316.749 179.053 318.094 179.23Z" fill="#161616"/>
<path d="M345.481 166.171C349.164 166.923 351.95 169.712 352.422 173.055C352.847 175.977 351.477 178.944 348.88 180.759C352.965 181.268 357.073 181.799 361.157 182.308C361.37 181.29 361.559 179.741 361.299 177.925C360.685 173.675 358.064 170.952 357.214 170.133C356.294 169.248 353.036 166.281 348.196 166.016C347.086 165.971 346.142 166.06 345.481 166.171Z" fill="#007665"/>
</svg>
