<svg width="70" height="85" viewBox="0 0 70 85" fill="none" xmlns="http://www.w3.org/2000/svg">
<path d="M59.0849 80.3719H7.54421C7.24794 80.3719 7.00781 80.1269 7.00781 79.8247V67.2299C7.00781 66.9276 7.24794 66.6827 7.54421 66.6827C7.84048 66.6827 8.08061 66.9276 8.08061 67.2299V79.2775H58.5485V53.7965C58.5485 53.4943 58.7886 53.2493 59.0849 53.2493C59.3811 53.2493 59.6213 53.4943 59.6213 53.7965V79.8247C59.6213 80.1269 59.3811 80.3719 59.0849 80.3719ZM7.54421 58.6568C7.24794 58.6568 7.00781 58.4118 7.00781 58.1095V6.05308C7.00781 5.75083 7.24794 5.50586 7.54421 5.50586H59.0849C59.3811 5.50586 59.6213 5.75083 59.6213 6.05308V44.676C59.6213 44.9783 59.3811 45.2232 59.0849 45.2232C58.7886 45.2232 58.5485 44.9783 58.5485 44.676V6.6003H8.08061V58.1095C8.08061 58.4118 7.84048 58.6568 7.54421 58.6568Z" fill="black"/>
<path d="M7.54495 74.871H0.798118C0.501847 74.871 0.261719 74.626 0.261719 74.3237V61.7337C0.261719 61.4314 0.501847 61.1865 0.798118 61.1865C1.09439 61.1865 1.33451 61.4314 1.33451 61.7337V73.7765H7.00855V6.05316C7.00855 5.75091 7.24868 5.50594 7.54495 5.50594H10.9362C11.2325 5.50594 11.4726 5.75091 11.4726 6.05316C11.4726 6.35541 11.2325 6.60038 10.9362 6.60038H8.08135V74.3236C8.08135 74.626 7.84122 74.871 7.54495 74.871ZM0.798118 53.1604C0.501847 53.1604 0.261719 52.9154 0.261719 52.6132V0.54722C0.261719 0.244972 0.501847 0 0.798118 0H52.3385C52.6348 0 52.8749 0.244972 52.8749 0.54722V6.05334C52.8749 6.35559 52.6348 6.60056 52.3385 6.60056H19.8762C19.5799 6.60056 19.3398 6.35559 19.3398 6.05334C19.3398 5.7511 19.5799 5.50612 19.8762 5.50612H51.8021V1.09444H1.33451V52.6132C1.33451 52.9156 1.09439 53.1604 0.798118 53.1604Z" fill="black"/>
<path d="M18.069 36.8847H11.593C11.2967 36.8847 11.0566 36.6397 11.0566 36.3374V29.7309C11.0566 29.4286 11.2967 29.1836 11.593 29.1836H18.069C18.3652 29.1836 18.6054 29.4286 18.6054 29.7309V36.3374C18.6054 36.6397 18.365 36.8847 18.069 36.8847ZM12.1294 35.7902H17.5326V30.2781H12.1294V35.7902Z" fill="black"/>
<path d="M27.311 36.8847H20.8352C20.539 36.8847 20.2988 36.6397 20.2988 36.3374V29.7309C20.2988 29.4286 20.539 29.1836 20.8352 29.1836H27.311C27.6073 29.1836 27.8474 29.4286 27.8474 29.7309V36.3374C27.8474 36.6397 27.6073 36.8847 27.311 36.8847ZM21.3716 35.7902H26.7746V30.2781H21.3716V35.7902Z" fill="#01A48C"/>
<path d="M36.5533 36.8847H30.0774C29.7811 36.8847 29.541 36.6397 29.541 36.3374V29.7309C29.541 29.4286 29.7811 29.1836 30.0774 29.1836H36.5533C36.8496 29.1836 37.0897 29.4286 37.0897 29.7309V36.3374C37.0897 36.6397 36.8496 36.8847 36.5533 36.8847ZM30.6138 35.7902H36.0169V30.2781H30.6138V35.7902Z" fill="black"/>
<path d="M45.7953 36.8847H39.3196C39.0233 36.8847 38.7832 36.6397 38.7832 36.3374V29.7309C38.7832 29.4286 39.0233 29.1836 39.3196 29.1836H45.7953C46.0916 29.1836 46.3317 29.4286 46.3317 29.7309V36.3374C46.3317 36.6397 46.0916 36.8847 45.7953 36.8847ZM39.856 35.7902H45.2589V30.2781H39.856V35.7902Z" fill="#FCF54B"/>
<path d="M55.0423 36.8847H48.5618C48.2656 36.8847 48.0254 36.6397 48.0254 36.3374V29.7309C48.0254 29.4286 48.2656 29.1836 48.5618 29.1836H55.0423C55.3385 29.1836 55.5787 29.4286 55.5787 29.7309V36.3374C55.5787 36.6397 55.3385 36.8847 55.0423 36.8847ZM49.0982 35.7902H54.5059V30.2781H49.0982V35.7902Z" fill="black"/>
<path d="M25.1539 45.4889H12.2024C11.9061 45.4889 11.666 45.244 11.666 44.9417C11.666 44.6395 11.9061 44.3945 12.2024 44.3945H25.1539C25.4502 44.3945 25.6903 44.6395 25.6903 44.9417C25.6903 45.244 25.45 45.4889 25.1539 45.4889Z" fill="black"/>
<path d="M25.1539 48.5143H12.2024C11.9061 48.5143 11.666 48.2693 11.666 47.9671C11.666 47.6648 11.9061 47.4199 12.2024 47.4199H25.1539C25.4502 47.4199 25.6903 47.6648 25.6903 47.9671C25.6903 48.2693 25.45 48.5143 25.1539 48.5143Z" fill="black"/>
<path d="M25.1539 55.949H12.2024C11.9061 55.949 11.666 55.704 11.666 55.4018C11.666 55.0995 11.9061 54.8545 12.2024 54.8545H25.1539C25.4502 54.8545 25.6903 55.0995 25.6903 55.4018C25.6903 55.704 25.45 55.949 25.1539 55.949Z" fill="#01A48C"/>
<path d="M51.3282 58.5642H12.2024C11.9061 58.5642 11.666 58.3192 11.666 58.017C11.666 57.7147 11.9061 57.4697 12.2024 57.4697H51.3282C51.6245 57.4697 51.8646 57.7147 51.8646 58.017C51.8646 58.3192 51.6247 58.5642 51.3282 58.5642Z" fill="#FDF311"/>
<path d="M51.3282 61.1795H12.2024C11.9061 61.1795 11.666 60.9345 11.666 60.6323C11.666 60.33 11.9061 60.085 12.2024 60.085H51.3282C51.6245 60.085 51.8646 60.33 51.8646 60.6323C51.8646 60.9345 51.6247 61.1795 51.3282 61.1795Z" fill="#01A48C"/>
<path d="M51.3282 63.7936H12.2024C11.9061 63.7936 11.666 63.5487 11.666 63.2464C11.666 62.9442 11.9061 62.6992 12.2024 62.6992H51.3282C51.6245 62.6992 51.8646 62.9442 51.8646 63.2464C51.8646 63.5487 51.6247 63.7936 51.3282 63.7936Z" fill="#FDF311"/>
<path d="M51.3282 66.4089H12.2024C11.9061 66.4089 11.666 66.1639 11.666 65.8617C11.666 65.5594 11.9061 65.3145 12.2024 65.3145H51.3282C51.6245 65.3145 51.8646 65.5594 51.8646 65.8617C51.8646 66.1639 51.6247 66.4089 51.3282 66.4089Z" fill="#01A48C"/>
<path d="M51.3282 69.0241H12.2024C11.9061 69.0241 11.666 68.7792 11.666 68.4769C11.666 68.1747 11.9061 67.9297 12.2024 67.9297H51.3282C51.6245 67.9297 51.8646 68.1747 51.8646 68.4769C51.8646 68.7792 51.6247 69.0241 51.3282 69.0241Z" fill="#FDF311"/>
<path d="M51.3282 71.6393H12.2024C11.9061 71.6393 11.666 71.3943 11.666 71.0921C11.666 70.7898 11.9061 70.5449 12.2024 70.5449H51.3282C51.6245 70.5449 51.8646 70.7898 51.8646 71.0921C51.8646 71.3943 51.6247 71.6393 51.3282 71.6393Z" fill="#01A48C"/>
<path d="M44.5138 13.2815H11.593C11.2967 13.2815 11.0566 13.0365 11.0566 12.7343V10.1195C11.0566 9.81724 11.2967 9.57227 11.593 9.57227H44.5138C44.8101 9.57227 45.0502 9.81724 45.0502 10.1195V12.7345C45.0502 13.0365 44.8101 13.2815 44.5138 13.2815ZM12.1294 12.1871H43.9774V10.6665H12.1294V12.1871Z" fill="#01A48C"/>
<path d="M31.0881 17.4108H12.2024C11.9061 17.4108 11.666 17.1659 11.666 16.8636C11.666 16.5614 11.9061 16.3164 12.2024 16.3164H31.0881C31.3844 16.3164 31.6245 16.5614 31.6245 16.8636C31.6245 17.1659 31.3844 17.4108 31.0881 17.4108Z" fill="black"/>
<path d="M31.0881 20.4402H12.2024C11.9061 20.4402 11.666 20.1952 11.666 19.893C11.666 19.5907 11.9061 19.3457 12.2024 19.3457H31.0881C31.3844 19.3457 31.6245 19.5907 31.6245 19.893C31.6245 20.1952 31.3844 20.4402 31.0881 20.4402Z" fill="#FDF311"/>
<path d="M65.6673 65.1755C65.371 65.1755 65.1309 64.9305 65.1309 64.6283V30.2786C65.1309 29.9763 65.371 29.7314 65.6673 29.7314C65.9635 29.7314 66.2037 29.9763 66.2037 30.2786V64.6283C66.2037 64.9307 65.9635 65.1755 65.6673 65.1755Z" fill="black"/>
<path d="M69.4643 69.4189H61.8762C61.5799 69.4189 61.3398 69.174 61.3398 68.8717V25.4042C61.3398 25.3231 61.3575 25.243 61.3915 25.1697L65.1833 17.0139C65.2722 16.8229 65.4608 16.7012 65.6678 16.7012C65.8751 16.7012 66.0637 16.8229 66.1526 17.0137L67.5742 20.0679C67.7013 20.341 67.5873 20.6673 67.3198 20.797C67.0523 20.9265 66.7322 20.8105 66.6051 20.5374L65.6684 18.5248L62.4126 25.5274V68.3245H68.9279V28.8771C68.9279 28.5748 69.168 28.3299 69.4643 28.3299C69.7606 28.3299 70.0007 28.5748 70.0007 28.8771V68.8717C70.0007 69.174 69.7606 69.4189 69.4643 69.4189Z" fill="black"/>
<path d="M69.4643 72.6209H61.8762C61.5799 72.6209 61.3398 72.3759 61.3398 72.0737V68.8715C61.3398 68.5692 61.5799 68.3242 61.8762 68.3242H69.4643C69.7606 68.3242 70.0007 68.5692 70.0007 68.8715V72.0737C70.0007 72.3759 69.7606 72.6209 69.4643 72.6209ZM62.4126 71.5264H68.9279V69.4187H62.4126V71.5264Z" fill="#FDF311"/>
<path d="M68.5744 80.4658H63.2499C62.1966 80.4658 61.3398 79.5917 61.3398 78.5173V72.0736C61.3398 71.7714 61.5799 71.5264 61.8762 71.5264H69.4643C69.7606 71.5264 70.0007 71.7714 70.0007 72.0736V79.0105C70.0009 79.8129 69.3609 80.4658 68.5744 80.4658ZM62.4128 72.6208V78.5173C62.4128 78.9881 62.7884 79.3713 63.2501 79.3713H68.5746C68.7663 79.3713 68.9283 79.2063 68.9283 79.0105V72.6208H62.4128Z" fill="#01A48C"/>
<path d="M69.4643 30.3918H61.8762C61.5799 30.3918 61.3398 30.1468 61.3398 29.8446V25.4042C61.3398 25.3231 61.3575 25.243 61.3915 25.1697L65.1833 17.0139C65.2722 16.8229 65.4608 16.7012 65.6678 16.7012H65.668C65.8751 16.7012 66.0637 16.8229 66.1526 17.0137L69.9488 25.1695C69.983 25.2428 70.0007 25.3231 70.0007 25.4042V29.8446C70.0007 30.1468 69.7606 30.3918 69.4643 30.3918ZM62.4126 29.2973H68.9279V25.5275L65.6684 18.5248L62.4126 25.5274V29.2973Z" fill="black"/>
<path d="M49.0362 49.7229C47.2737 49.7229 45.8398 48.26 45.8398 46.4621C45.8398 44.6641 47.2737 43.2012 49.0362 43.2012C50.7984 43.2012 52.2324 44.6641 52.2324 46.4621C52.2324 48.26 50.7986 49.7229 49.0362 49.7229ZM49.0362 44.2956C47.8652 44.2956 46.9126 45.2675 46.9126 46.4621C46.9126 47.6566 47.8652 48.6285 49.0362 48.6285C50.2071 48.6285 51.1596 47.6566 51.1596 46.4621C51.1596 45.2675 50.2071 44.2956 49.0362 44.2956Z" fill="#FDF311"/>
<path d="M49.0344 44.9021C48.7382 44.9021 48.498 44.6572 48.498 44.3549V40.9554C48.498 40.6532 48.7382 40.4082 49.0344 40.4082C49.3307 40.4082 49.5708 40.6532 49.5708 40.9554V44.3549C49.5708 44.6572 49.3307 44.9021 49.0344 44.9021Z" fill="#FDF311"/>
<path d="M50.8242 45.9532C50.6386 45.9532 50.4582 45.8549 50.3588 45.679C50.2109 45.4171 50.2991 45.0824 50.5558 44.9315L53.4431 43.2343C53.6997 43.0834 54.0278 43.1733 54.1758 43.4353C54.3237 43.6972 54.2355 44.0319 53.9788 44.1828L51.0915 45.8801C51.0071 45.9295 50.915 45.9532 50.8242 45.9532Z" fill="#FDF311"/>
<path d="M53.7104 49.7629C53.6194 49.7629 53.5271 49.7392 53.4425 49.6894L50.5553 47.9871C50.2987 47.8359 50.2109 47.5012 50.3591 47.2395C50.5074 46.9777 50.8353 46.8881 51.092 47.0394L53.9793 48.7416C54.2359 48.8928 54.3237 49.2275 54.1754 49.4893C54.076 49.6647 53.8958 49.7629 53.7104 49.7629Z" fill="#FDF311"/>
<path d="M49.0344 52.5154C48.7382 52.5154 48.498 52.2704 48.498 51.9682V48.5687C48.498 48.2664 48.7382 48.0215 49.0344 48.0215C49.3307 48.0215 49.5708 48.2664 49.5708 48.5687V51.9682C49.5708 52.2704 49.3307 52.5154 49.0344 52.5154Z" fill="#FDF311"/>
<path d="M44.3594 49.7626C44.1741 49.7626 43.9937 49.6644 43.8943 49.489C43.7461 49.2272 43.8339 48.8925 44.0905 48.7413L46.9777 47.0391C47.2343 46.8884 47.5626 46.9774 47.7106 47.2392C47.8589 47.5009 47.7711 47.8356 47.5145 47.9868L44.6272 49.6891C44.5427 49.7389 44.4504 49.7626 44.3594 49.7626Z" fill="#FDF311"/>
<path d="M47.2455 45.9531C47.1547 45.9531 47.0628 45.9294 46.9782 45.8799L44.091 44.1826C43.8342 44.0318 43.7461 43.6971 43.8939 43.4351C44.0418 43.1736 44.3694 43.0834 44.6267 43.2341L47.5139 44.9314C47.7707 45.0823 47.8588 45.417 47.711 45.6789C47.6115 45.8546 47.4311 45.9531 47.2455 45.9531Z" fill="#FDF311"/>
<path d="M49.0362 23.9134C47.2737 23.9134 45.8398 22.4505 45.8398 20.6525C45.8398 18.8545 47.2737 17.3916 49.0362 17.3916C50.7984 17.3916 52.2324 18.8545 52.2324 20.6525C52.2324 22.4505 50.7986 23.9134 49.0362 23.9134ZM49.0362 18.4863C47.8652 18.4863 46.9126 19.4581 46.9126 20.6527C46.9126 21.8473 47.8652 22.8192 49.0362 22.8192C50.2071 22.8192 51.1596 21.8473 51.1596 20.6527C51.1596 19.4581 50.2071 18.4863 49.0362 18.4863Z" fill="#01A48C"/>
<path d="M49.0344 19.0936C48.7382 19.0936 48.498 18.8486 48.498 18.5464V15.1469C48.498 14.8446 48.7382 14.5996 49.0344 14.5996C49.3307 14.5996 49.5708 14.8446 49.5708 15.1469V18.5464C49.5708 18.8484 49.3307 19.0936 49.0344 19.0936Z" fill="#01A48C"/>
<path d="M50.8242 20.1485C50.639 20.1485 50.4586 20.0504 50.3591 19.8749C50.2109 19.6132 50.2987 19.2784 50.5553 19.1272L53.4425 17.425C53.6993 17.2738 54.0274 17.3635 54.1754 17.6251C54.3237 17.8869 54.2359 18.2216 53.9793 18.3728L51.092 20.075C51.0075 20.1248 50.9152 20.1485 50.8242 20.1485Z" fill="#01A48C"/>
<path d="M53.7104 23.9529C53.6196 23.9529 53.5277 23.9293 53.4431 23.8797L50.5558 22.1826C50.2991 22.0318 50.2109 21.6971 50.3588 21.4353C50.5067 21.1735 50.8342 21.0834 51.0915 21.2343L53.9788 22.9314C54.2355 23.0822 54.3237 23.417 54.1758 23.6787C54.0764 23.8546 53.8962 23.9529 53.7104 23.9529Z" fill="#01A48C"/>
<path d="M49.0344 26.7058C48.7382 26.7058 48.498 26.4608 48.498 26.1586V22.7591C48.498 22.4568 48.7382 22.2119 49.0344 22.2119C49.3307 22.2119 49.5708 22.4568 49.5708 22.7591V26.1586C49.5708 26.4608 49.3307 26.7058 49.0344 26.7058Z" fill="#01A48C"/>
<path d="M44.3593 23.953C44.1737 23.953 43.9933 23.8546 43.8939 23.6788C43.7461 23.4169 43.8342 23.0823 44.091 22.9315L46.9782 21.2344C47.2353 21.0833 47.5629 21.1736 47.711 21.4354C47.8588 21.6973 47.7707 22.0319 47.5139 22.1827L44.6267 23.8798C44.5421 23.9292 44.4502 23.953 44.3593 23.953Z" fill="#01A48C"/>
<path d="M47.2456 20.1485C47.1546 20.1485 47.0623 20.1248 46.9777 20.075L44.0905 18.3728C43.8339 18.2216 43.7461 17.8869 43.8943 17.6251C44.0424 17.3635 44.3705 17.2738 44.6272 17.425L47.5145 19.1272C47.7711 19.2784 47.8589 19.6132 47.7106 19.8749C47.6112 20.0506 47.4308 20.1485 47.2456 20.1485Z" fill="#01A48C"/>
<path d="M47.8798 83.0661H2.33132C2.03505 83.0661 1.79492 82.8212 1.79492 82.5189C1.79492 82.2167 2.03505 81.9717 2.33132 81.9717H47.8798C48.1761 81.9717 48.4162 82.2167 48.4162 82.5189C48.4162 82.8212 48.1761 83.0661 47.8798 83.0661Z" fill="#FDF311"/>
<path d="M60.5215 84.9998H29.0032C28.7069 84.9998 28.4668 84.7548 28.4668 84.4525C28.4668 84.1503 28.7069 83.9053 29.0032 83.9053H60.5215C60.8178 83.9053 61.0579 84.1503 61.0579 84.4525C61.0579 84.7548 60.818 84.9998 60.5215 84.9998Z" fill="#01A48C"/>
<path d="M67.6888 84.9998H63.7473C63.4511 84.9998 63.2109 84.7548 63.2109 84.4525C63.2109 84.1503 63.4511 83.9053 63.7473 83.9053H67.6888C67.9851 83.9053 68.2252 84.1503 68.2252 84.4525C68.2252 84.7548 67.9851 84.9998 67.6888 84.9998Z" fill="black"/>
<path d="M15.471 84.9411H0.536399C0.240128 84.9411 0 84.6962 0 84.3939C0 84.0917 0.240128 83.8467 0.536399 83.8467H15.471C15.7673 83.8467 16.0074 84.0917 16.0074 84.3939C16.0074 84.6962 15.7673 84.9411 15.471 84.9411Z" fill="black"/>
</svg>
