<svg width="552" height="600" viewBox="0 0 552 600" fill="none" xmlns="http://www.w3.org/2000/svg">
<g clip-path="url(#clip0)">
<path d="M147.081 138.333C143.504 138.941 137.863 140.361 131.947 143.945C128.232 146.176 120.665 151.585 115.918 161.524C114.199 165.039 110.346 173.22 112.273 183.362C115.093 198.372 128.507 205.877 130.64 207.026C137.45 196.817 144.191 186.54 151.002 176.33C149.626 163.687 148.319 151.044 147.081 138.333Z" fill="#FDF311"/>
<path d="M152.17 175.113C162.213 169.772 172.188 164.431 182.231 159.022C184.433 161.726 188.56 167.744 188.491 175.857C188.491 177.683 188.285 179.373 187.941 180.928C175.972 178.967 164.071 177.007 152.17 175.113Z" fill="#01A089"/>
<path d="M44.4434 221.765C45.6816 237.654 46.851 253.61 48.0893 269.499C52.4919 269.228 56.8945 268.89 61.2283 268.62C59.7837 252.461 58.3391 236.369 56.8945 220.21C52.6983 220.751 48.5708 221.224 44.4434 221.765Z" fill="#01A089"/>
<path d="M69.002 238.33C69.6899 248.134 70.3778 257.87 71.1345 267.673C75.5371 267.268 79.9397 266.93 84.2735 266.524C83.3105 256.72 82.4161 246.984 81.453 237.181C77.2568 237.519 73.1294 237.924 69.002 238.33Z" fill="#FDF311"/>
<path d="M225.501 298.91C157.261 305.062 89.0891 311.147 20.8487 317.3C14.5887 219.128 8.25996 120.957 2 22.7174C70.0341 20.351 138.137 17.9846 206.171 15.6182C212.637 110.071 219.104 204.524 225.501 298.91Z" stroke="#161616" stroke-width="2" stroke-miterlimit="10"/>
<path d="M72.3724 4.12405C73.1291 9.46535 73.9546 14.8067 74.7113 20.148C74.9177 21.4326 76.9126 20.8917 76.7063 19.6071C75.9496 14.2658 75.1241 8.92446 74.3674 3.58316C74.161 2.29855 72.1661 2.83944 72.3724 4.12405Z" fill="#E8E8E8"/>
<path d="M73.8181 3.98907C89.296 2.9749 104.843 2.3664 120.321 2.02834C121.628 2.02834 121.628 0 120.321 0C104.774 0.338057 89.296 1.01417 73.8181 1.96072C72.5111 2.02834 72.5111 4.05668 73.8181 3.98907Z" fill="#E8E8E8"/>
<path d="M119.702 1.21737C120.39 6.96434 120.94 12.6437 121.284 18.3907C121.353 19.6753 123.417 19.6753 123.348 18.3907C123.004 12.6437 122.454 6.89672 121.766 1.21737C121.559 -0.0672472 119.496 -0.0672472 119.702 1.21737Z" fill="#E8E8E8"/>
<path d="M73.8855 3.92147C74.367 8.92471 74.8486 13.9956 75.3301 18.9988C75.3989 19.5397 75.7428 20.013 76.3619 20.013C91.152 20.1482 105.873 17.8494 120.732 18.3227C122.039 18.3903 122.039 16.362 120.732 16.2944C105.941 15.8211 91.2208 18.0523 76.3619 17.9847C76.7059 18.3227 77.0499 18.6608 77.3938 18.9988C76.9123 13.9956 76.4307 8.92471 75.9492 3.92147C75.8116 2.63685 73.7479 2.63685 73.8855 3.92147Z" fill="#E8E8E8"/>
<path d="M74.9862 4.59737C77.2563 5.94959 80.2143 5.27348 82.6908 5.13826C86.8182 4.93543 90.9456 4.73259 95.0731 4.52975C103.328 4.12408 111.514 3.65081 119.769 3.24514C119.425 2.90708 119.081 2.56903 118.737 2.23097C118.943 6.62571 119.15 11.0204 119.356 15.4828C119.425 16.7674 121.489 16.7674 121.42 15.4828C121.214 11.088 121.007 6.69332 120.801 2.23097C120.801 1.69008 120.319 1.2168 119.769 1.2168C112.477 1.62247 105.117 1.96052 97.8247 2.36619C94.1788 2.56902 90.5329 2.77186 86.8182 2.90708C83.929 3.04231 78.5633 4.39453 76.018 2.83947C74.9174 2.16335 73.8855 3.92125 74.9862 4.59737Z" fill="#E8E8E8"/>
<path d="M74.9174 5.00365C75.9493 9.12794 76.6372 13.3198 77.05 17.5793C77.7379 17.5117 78.4258 17.3765 79.0449 17.3089C78.2882 13.6579 78.4946 10.0745 79.1825 6.35588C78.4946 6.28826 77.8067 6.15305 77.1876 6.08543C77.3251 10.1421 77.6003 13.9959 79.1825 17.7146C79.664 18.7963 81.3838 17.985 81.0398 16.9032C79.8704 12.5761 78.7697 8.31661 79.9392 3.85426C79.2513 3.85426 78.6321 3.85426 77.9442 3.85426C78.5634 7.91094 79.1825 11.9676 79.8016 16.0243C80.008 17.3089 82.0029 16.768 81.7965 15.4834C81.1774 11.4267 80.5583 7.37005 79.9392 3.31336C79.8016 2.29919 78.1506 2.43442 77.9442 3.31336C76.706 8.11377 77.8067 12.7789 79.0449 17.4441C79.664 17.1737 80.2831 16.9032 80.9023 16.6328C79.4576 13.2522 79.3201 9.60122 79.1825 6.01782C79.1825 4.93604 77.3939 4.59798 77.1876 5.74738C76.4309 9.80406 76.1557 13.7255 77.05 17.7822C77.2563 18.864 79.1825 18.6611 79.0449 17.5117C78.6322 13.117 77.8755 8.72228 76.8436 4.39515C76.5684 3.17815 74.6423 3.71903 74.9174 5.00365Z" fill="#E8E8E8"/>
<path d="M80.2145 8.58647C80.9712 7.36946 81.7279 6.15246 82.4846 4.93546C81.8655 4.5974 81.3151 4.25934 80.696 3.92129C79.8017 5.88202 78.9763 7.84274 78.082 9.80347C77.6692 10.7501 78.9075 12.0347 79.7329 11.0205C81.1088 9.33019 82.4158 7.5723 83.7916 5.88201C83.2413 5.54396 82.6222 5.2059 82.0718 4.86784C81.5215 6.49051 80.8336 7.97797 79.8705 9.46542C79.2514 10.412 80.7648 11.629 81.5215 10.6825C82.5534 9.39781 83.5852 8.11319 84.6859 6.82858C84.1356 6.42291 83.5852 6.01724 83.0349 5.61157C81.6591 8.7893 80.2833 11.8995 78.9075 15.0772C78.4947 16.0238 79.733 17.3084 80.5584 16.2942C83.0349 13.2517 85.5802 10.1416 88.0566 7.09902C87.5063 6.69335 86.956 6.28768 86.4057 5.88201C84.5483 8.85691 82.691 11.8995 80.8336 14.8744C80.3521 15.6181 81.1088 16.6323 82.0031 16.3618C83.1037 16.0238 83.2413 15.8885 84.0668 15.2124C83.5165 14.8744 82.8973 14.5363 82.347 14.1983C81.9343 15.3476 81.2464 16.2266 80.2145 16.9703C79.1826 17.714 80.0769 19.4043 81.2464 18.7282C82.347 18.1197 83.3789 17.714 84.6171 17.5788C84.2044 17.1731 83.7916 16.7675 83.3789 16.3618C81.5903 15.4829 81.04 14.2659 81.7279 12.6432C81.9342 11.7642 82.2782 10.9529 82.691 10.2092C83.2413 9.26259 84.2731 6.9638 85.305 8.99214C86.0617 10.4796 82.8973 18.7958 82.4846 13.6574C82.4158 12.3051 82.5534 10.9529 82.9661 9.73586C83.2413 8.7893 83.654 7.91035 84.1356 7.0314C84.8235 5.67918 85.1674 5.67918 85.2362 7.0314C86.5432 9.73586 84.9611 13.9954 83.654 16.3618C84.2731 16.4294 84.8922 16.497 85.5114 16.6323C84.961 14.7391 84.7547 12.9136 85.1674 11.0205C85.305 10.2768 85.9929 6.69335 86.7496 7.84275C88.3318 10.074 85.7177 15.1448 84.6171 17.1055C85.2362 17.3084 85.9241 17.4436 86.5432 17.6464C86.3369 15.8209 86.2681 14.063 86.612 12.2375C86.8184 11.0205 87.5751 7.09902 88.8821 6.9638C90.7395 6.76096 87.1624 15.0772 86.3369 16.2942C86.956 16.3618 87.5751 16.4294 88.1942 16.5646C87.5751 13.5221 87.5751 7.0314 91.7713 6.01723C91.3586 5.8144 90.9459 5.54395 90.5331 5.34112C91.2898 9.46541 90.1203 13.4545 87.2311 16.497C87.7815 16.6323 88.4006 16.7675 88.9509 16.9703C88.4694 15.0772 88.4006 13.2517 88.8821 11.3586C89.1573 10.3444 90.6019 6.08485 91.9777 6.4229C92.9408 6.62574 91.7025 10.5472 91.4274 11.4262C90.6707 13.5897 89.5012 15.4829 87.7815 17.1055C88.3318 17.2408 88.9509 17.376 89.5012 17.5788C88.4006 13.0489 90.3267 8.51886 94.3854 6.08485C93.9039 5.88201 93.3535 5.67918 92.872 5.47635C94.4542 9.60064 90.3955 14.942 87.7127 17.714C88.263 17.8493 88.8821 17.9845 89.4325 18.1873C88.9509 16.2266 88.9509 14.3335 89.57 12.3727C89.7764 11.7642 91.8401 7.16663 92.8032 7.50469C94.179 7.97797 91.8401 12.1023 91.4274 12.7108C90.9458 13.5897 90.0516 15.1448 89.1573 15.6857C88.1254 16.3618 88.1942 16.497 88.1254 15.0096C88.0566 12.9812 89.4325 10.6825 90.6019 9.19497C91.221 8.38364 92.2529 7.09902 93.2159 6.76096C94.3166 6.28768 94.179 6.15246 94.0414 7.5723C93.5599 11.7642 91.1522 15.5505 88.1254 18.4578C88.6758 18.593 89.2949 18.7282 89.8452 18.931C89.2261 14.942 90.6019 10.8177 93.6287 8.04557C94.523 7.23424 95.5548 6.69335 95.8988 8.38363C96.0364 9.05974 95.2109 10.6825 94.9357 11.291C93.9726 13.5221 92.5968 15.4153 90.8771 17.1055C91.3586 17.1055 91.8401 17.1055 92.3217 17.1055C91.0834 15.6857 92.6656 12.5756 93.4223 11.2234C93.7663 10.6149 96.7243 6.15246 97.5498 6.55813C98.5128 7.0314 96.3803 11.5614 96.1052 12.0347C95.1421 13.8602 93.9038 15.4829 92.4592 16.9703C93.0784 17.2408 93.6287 17.4436 94.2478 17.714C94.3166 12.7784 96.6555 8.58647 100.921 5.94963C100.371 5.67918 99.8886 5.34112 99.3383 5.07068C99.4071 9.60064 97.7561 13.5898 94.4542 16.7675C95.0733 17.0379 95.6236 17.2408 96.2427 17.5112C96.6555 12.5756 98.9944 8.31603 102.847 5.13829C102.297 5.07068 101.747 5.00307 101.196 4.93546C103.397 8.1808 98.5816 14.2659 96.6555 16.6999C97.2746 16.9703 97.8249 17.1732 98.444 17.4436C98.5128 15.5505 98.8568 13.7926 99.6135 12.0347C100.027 10.9529 101.747 7.23424 102.985 6.9638C104.636 6.62574 102.916 9.73586 102.366 10.8853C101.403 12.846 100.096 14.5363 98.5816 16.0914C99.1319 16.4294 99.7511 16.7675 100.302 17.1055C100.921 12.9136 102.641 7.36947 107.112 5.81441C106.699 5.47635 106.218 5.13829 105.805 4.86784C105.255 9.46541 103.191 13.3869 99.7511 16.497C100.371 16.7675 100.921 16.9703 101.54 17.2408C101.747 15.0772 102.228 12.9812 103.191 10.9529C103.81 9.66825 105.461 6.28768 106.975 6.01723C107.731 5.88201 106.975 7.03141 106.699 7.77513C106.287 8.85691 105.736 9.87108 105.186 10.8177C104.085 12.7108 102.71 14.4011 101.127 15.9561C101.746 16.2266 102.297 16.4294 102.916 16.6999C103.191 12.3727 105.255 8.65407 108.694 6.01723C108.213 5.61156 107.662 5.27351 107.181 4.86784C106.631 8.04557 104.98 10.5472 102.778 12.9136C101.471 14.3335 101.059 13.9954 100.921 12.1023C100.783 9.53302 102.366 6.9638 104.98 6.28768C104.567 5.94963 104.085 5.61156 103.673 5.34112C103.466 9.3978 102.228 13.0489 100.027 16.4294C100.646 16.6323 101.334 16.7675 101.953 16.9703C102.159 14.942 102.71 12.9812 103.673 11.1557C104.292 9.93869 105.874 6.89618 107.25 6.55813C109.245 6.01723 107.25 9.87108 106.768 10.8177C105.805 12.7108 104.498 14.3335 102.985 15.8885C103.604 16.159 104.154 16.3618 104.773 16.6323C104.498 11.6966 107.525 7.36946 112.271 5.88201C111.859 5.54396 111.377 5.2059 110.964 4.93546C110.414 9.73586 108.075 13.7926 104.292 16.9027C104.911 17.1731 105.461 17.376 106.08 17.6464C106.631 12.9813 109.038 8.99214 112.959 6.28768C112.478 6.08485 111.928 5.88201 111.446 5.67918C112.547 9.19497 108.763 13.7926 106.699 16.2942C107.319 16.5647 107.869 16.7675 108.488 17.0379C108.763 13.5897 110.758 7.30185 114.954 6.69335C114.542 6.28768 114.129 5.88202 113.716 5.47635C112.959 9.3302 111.377 12.7784 108.832 15.8209C109.451 16.0914 110.001 16.2942 110.621 16.5646C110.827 12.4404 112.478 8.85692 115.367 5.94963C114.817 5.88202 114.266 5.8144 113.716 5.74679C115.298 8.58647 112.065 13.5898 110.621 16.0914C111.24 16.3618 111.859 16.6323 112.478 16.9027C113.166 13.6574 113.716 8.1808 116.812 6.22007C116.399 6.15246 115.986 6.08485 115.573 6.08485C117.293 7.97797 113.991 14.3335 113.235 16.2266C113.922 16.4294 114.542 16.5646 115.229 16.7675C116.193 13.3193 117.087 9.9387 118.05 6.49052C117.362 6.42291 116.674 6.28768 116.055 6.22007C116.193 9.46541 115.711 12.508 114.61 15.6181C115.298 15.6857 115.986 15.8209 116.605 15.8885C116.949 12.846 116.605 8.11319 118.394 5.54396C117.775 5.47634 117.156 5.40874 116.537 5.27351C117.5 8.58647 117.156 11.7642 116.674 15.2124C117.362 15.28 118.05 15.4153 118.669 15.4829C118.394 11.6966 118.119 7.84274 117.844 4.05651C117.224 4.32695 116.674 4.52979 116.055 4.80024C118.669 7.43708 117.637 10.8853 116.468 13.9278C117.087 13.8602 117.706 13.7926 118.325 13.6574C117.568 12.2375 116.055 9.87109 116.124 8.1808C115.436 7.09902 115.711 6.55813 117.018 6.62574C117.637 7.70752 117.844 8.85692 117.568 10.0063C118.187 9.73586 118.738 9.53302 119.357 9.26258C118.256 7.97796 117.706 6.76096 117.362 5.2059C116.88 5.61157 116.33 5.94962 115.849 6.35529C116.124 7.09901 116.399 7.91036 116.674 8.65408C117.293 8.72169 117.912 8.7893 118.531 8.92452C118.05 7.5723 117.844 6.3553 117.912 4.93546C117.5 5.27351 117.018 5.61157 116.605 5.88201C119.288 6.96379 117.431 13.9954 117.087 15.8209C117.431 15.5505 117.775 15.3476 118.05 15.0772C112.822 15.2124 107.594 15.3476 102.366 15.4829C101.059 15.5505 101.059 17.4436 102.366 17.5112C106.975 17.6464 111.515 16.9703 116.055 16.2942C115.849 15.6181 115.711 15.0096 115.505 14.3335C110.139 15.7533 104.773 16.6999 99.2695 17.1055C97.9625 17.1732 97.9625 19.0663 99.2695 19.1339C104.636 19.3367 109.864 17.5112 115.229 17.714C115.161 17.0379 115.023 16.3618 114.954 15.7533C110.827 17.1055 106.699 17.5112 102.366 17.0379C102.366 17.714 102.366 18.3902 102.366 19.0663C107.319 18.593 112.271 18.1197 117.224 17.6464C117.156 16.9703 117.018 16.2942 116.949 15.6857C113.647 16.6323 110.414 16.9703 106.975 16.8351C106.975 17.5112 106.975 18.1873 106.975 18.8634C110.345 18.8634 113.579 18.4578 116.812 17.6464C118.119 17.3084 117.568 15.4153 116.261 15.6857C112.409 16.497 108.557 16.9027 104.636 16.9027C104.636 17.5788 104.636 18.2549 104.636 18.931C109.313 18.3225 113.991 17.5788 118.669 16.6323C119.77 16.4294 119.563 14.5363 118.394 14.6715C113.922 15.2124 109.52 15.1448 105.117 14.4687C103.81 14.2659 103.26 16.2266 104.567 16.4294C109.176 17.1055 113.785 17.2408 118.394 16.6999C118.325 16.0238 118.188 15.3476 118.119 14.7391C113.647 15.6181 109.176 16.4294 104.636 16.9703C103.329 17.1055 103.26 18.9987 104.636 18.9987C108.763 18.9987 112.753 18.593 116.812 17.714C116.605 17.0379 116.468 16.4294 116.261 15.7533C113.166 16.497 110.139 16.9027 106.975 16.9027C105.668 16.9027 105.668 18.8634 106.975 18.931C110.552 19.0663 113.991 18.6606 117.5 17.714C118.6 17.376 118.394 15.6181 117.224 15.7533C112.271 16.2266 107.319 16.6999 102.366 17.1731C101.059 17.3084 101.059 19.0663 102.366 19.2015C106.906 19.6748 111.24 19.2015 115.505 17.8493C116.605 17.5112 116.399 15.8885 115.229 15.8885C109.864 15.6857 104.636 17.5112 99.2695 17.3084C99.2695 17.9845 99.2695 18.6606 99.2695 19.3367C104.98 18.931 110.552 17.9845 116.055 16.497C117.362 16.159 116.812 14.3335 115.505 14.5363C111.102 15.2124 106.768 15.8209 102.366 15.6857C102.366 16.3618 102.366 17.0379 102.366 17.714C107.594 17.5788 112.822 17.4436 118.05 17.3084C118.463 17.3084 118.944 16.9703 119.013 16.5646C119.701 12.7784 121.833 6.08485 117.087 4.12412C116.399 3.85368 115.849 4.52979 115.78 5.07068C115.642 6.76096 115.849 8.04557 116.468 9.60064C116.743 10.3444 117.912 10.6825 118.325 9.87109C119.288 7.91036 118.738 5.94963 116.743 4.80024C115.917 4.32696 115.023 5.07068 115.229 5.94963C115.642 7.91036 116.468 9.3978 117.775 10.9529C118.394 11.6966 119.495 11.0205 119.563 10.2092C119.77 8.04558 117.844 1.6225 114.335 3.58323C111.171 5.40874 115.367 12.7784 116.399 14.8744C116.812 15.7533 117.981 15.3476 118.256 14.6039C119.77 10.7501 120.458 6.69335 117.293 3.51561C116.674 2.90711 115.436 3.31278 115.505 4.25934C115.78 8.04558 116.055 11.8995 116.33 15.6857C116.399 16.7675 118.187 17.1732 118.325 15.9561C118.875 12.2375 119.288 8.65408 118.187 4.93546C117.912 4.05651 116.812 3.98889 116.33 4.66501C114.198 7.63991 114.61 12.5756 114.266 16.0238C114.129 17.2408 115.917 17.3084 116.261 16.2942C117.431 13.0489 117.912 9.80347 117.775 6.35529C117.706 5.2059 116.055 4.93546 115.78 6.08485C114.817 9.53303 113.922 12.9136 112.959 16.3618C112.615 17.6464 114.473 18.1197 114.954 16.9027C116.193 13.7926 119.495 7.84274 116.743 4.73262C116.468 4.39456 115.849 4.32696 115.505 4.5974C111.721 7.03141 111.033 12.508 110.208 16.497C110.001 17.5788 111.515 18.3225 112.065 17.3084C113.922 13.9954 117.224 8.65408 115.161 4.86784C114.817 4.32695 113.991 4.19173 113.51 4.66501C110.208 8.04557 108.419 12.0347 108.144 16.6999C108.075 17.5112 109.313 18.1197 109.933 17.4436C112.753 14.1306 114.542 10.412 115.367 6.22007C115.505 5.40873 114.886 4.86784 114.129 5.00306C108.97 5.74679 106.493 12.9136 106.149 17.3084C106.08 18.1873 107.319 18.6606 107.938 18.0521C110.621 14.8744 114.61 9.87109 113.235 5.47635C113.028 4.86785 112.271 4.46217 111.721 4.86784C107.181 7.97796 104.429 12.508 103.81 17.9169C103.673 18.8634 104.98 19.1339 105.599 18.6606C109.795 15.2124 112.203 10.5472 112.822 5.27351C112.891 4.5974 112.134 4.12411 111.515 4.32695C105.874 6.08484 102.159 11.2233 102.503 17.0379C102.572 17.9169 103.604 18.3902 104.292 17.7817C105.874 16.2266 114.129 5.2059 108.97 3.98889C106.837 3.448 104.429 6.69335 103.397 8.04557C101.265 10.8177 100.164 13.9954 99.7511 17.4436C99.6135 18.5254 101.196 18.7282 101.678 17.9845C104.154 14.3335 105.461 10.2768 105.668 5.88201C105.668 5.2059 104.98 4.73262 104.361 4.93546C101.54 5.67918 99.8199 7.70752 99.132 10.4796C98.6504 12.2375 98.1689 15.5505 100.096 16.6999C101.953 17.8493 103.466 15.8209 104.498 14.6039C106.699 12.1023 108.488 9.3978 109.038 6.08485C109.176 5.34112 108.35 4.32696 107.525 4.93546C103.397 8.04558 101.059 12.3051 100.715 17.376C100.646 18.2549 101.884 18.6606 102.503 18.1197C104.154 16.497 112.959 5.8144 108.213 4.05651C106.08 3.24517 103.81 6.62574 102.847 7.97797C100.715 10.9529 99.6823 14.2659 99.3383 17.8493C99.2695 18.7958 100.508 19.1339 101.127 18.593C104.98 15.0772 107.25 10.6825 107.8 5.54396C107.869 4.93545 107.112 4.39457 106.493 4.5974C101.265 6.42291 98.9944 12.3051 98.2377 17.3084C98.1001 18.2549 99.2007 19.1339 99.9574 18.3225C101.609 16.6323 109.451 6.01723 104.636 4.66501C102.434 4.0565 100.027 7.77513 99.0632 9.26258C97.2746 11.9671 96.4491 15.0772 96.3115 18.2549C96.2427 19.0663 97.481 19.6748 98.1001 18.9987C100.715 15.8209 105.805 9.05975 102.985 4.80024C102.572 4.19173 101.884 4.19173 101.334 4.5974C97.0682 8.11319 94.5918 12.9812 94.1102 18.4578C94.0414 19.3367 95.2797 19.7424 95.8988 19.2015C99.5447 15.6181 101.403 11.0881 101.334 6.08485C101.334 5.34112 100.439 4.80023 99.7511 5.2059C94.8669 8.1808 92.1153 13.1165 92.0465 18.7282C92.0465 19.6072 93.2159 20.0804 93.8351 19.4719C96.4491 16.7675 98.5816 13.5221 99.4759 9.87109C99.8887 8.31603 100.164 5.27351 97.6185 5.40873C94.9357 5.54396 92.1153 10.1416 91.1522 12.1699C90.1204 14.4687 89.0197 17.4436 90.8771 19.5395C91.221 19.9452 91.9777 19.8776 92.3217 19.5395C95.0733 16.9027 97.137 13.5898 97.8937 9.87109C98.2377 8.1808 98.3752 5.34112 95.8988 5.34112C93.2847 5.34112 90.4643 9.12735 89.4325 11.0881C87.7815 13.9954 87.3687 17.1731 87.919 20.4185C88.0566 21.2298 89.1573 21.365 89.6388 20.8918C92.7344 17.9169 95.0045 14.1983 95.9676 10.0063C96.3803 8.1808 96.9306 5.07068 94.179 5.13829C89.4324 5.27352 82.8973 16.9703 87.3687 20.0128C87.7127 20.2157 88.1254 20.1481 88.4006 20.0128C90.8083 18.8634 99.3383 7.50468 94.1102 6.01723C91.9089 5.34112 89.4324 8.99214 88.607 10.5472C87.0248 13.4545 86.6808 16.6323 87.4375 19.7424C87.5751 20.4861 88.6758 20.7565 89.1573 20.2157C92.3905 16.8351 96.7243 10.8177 94.8669 6.01723C94.6605 5.40873 93.9727 5.07068 93.3535 5.40873C88.4694 8.31602 86.1993 13.7926 87.5063 19.2015C87.7127 19.9452 88.6758 20.1481 89.2261 19.6748C91.9777 17.0379 93.4911 13.725 94.179 10.0063C94.4542 8.38364 95.0733 5.40873 92.9408 4.73262C90.6707 4.05651 88.5382 7.84274 87.7815 9.46542C86.4057 12.3727 86.1993 15.5505 86.956 18.7282C87.1623 19.4719 88.1254 19.7424 88.6757 19.2015C92.1153 15.5505 93.4911 10.9529 92.528 6.08485C92.3905 5.54396 91.7713 5.27351 91.2898 5.40873C85.9241 6.69335 85.3738 14.1306 86.2681 18.4578C86.4744 19.4043 87.7127 19.3367 88.1254 18.7282C89.914 16.2266 91.0834 13.4545 91.3586 10.3444C91.4962 8.85692 91.9089 5.74679 89.8452 5.2059C87.7815 4.66501 86.5432 7.6399 85.9241 9.05974C84.4795 12.2375 84.1356 15.6181 84.5483 19.0663C84.6859 20.0128 85.9241 20.5537 86.4745 19.6072C88.607 15.9561 90.3955 10.4796 88.4694 6.4229C88.3318 6.08485 87.919 5.88202 87.5751 5.94963C82.4846 6.01724 82.7597 15.5505 83.654 18.7282C83.8604 19.5395 85.0986 19.7424 85.5114 18.9987C87.4375 15.6857 88.6758 10.8177 87.0248 7.09902C85.8553 4.46218 83.7228 5.67918 82.4158 7.63991C80.5584 10.4796 79.389 15.8209 81.2464 18.931C82.691 21.3651 84.5483 19.5395 85.5802 17.714C86.8184 15.4829 88.8133 10.0063 86.7496 7.63991C84.8923 5.54396 82.4846 8.45124 81.4527 9.93869C79.8705 12.3051 78.3571 16.6323 80.3521 19.2015C81.8655 21.1622 84.6171 20.7565 85.4426 18.5254C85.7865 17.714 84.8923 17.1732 84.2043 17.3084C82.7597 17.5112 81.5903 17.9169 80.3521 18.6606C80.696 19.2691 81.04 19.81 81.3839 20.4185C82.8285 19.3367 83.7916 18.1197 84.4795 16.4294C84.8922 15.4153 83.4476 14.8744 82.7597 15.4153C82.347 15.6181 82.0031 15.8209 81.5903 16.0238C82.0031 16.497 82.347 17.0379 82.7597 17.5112C84.6171 14.5363 86.4744 11.4938 88.3318 8.51886C88.9509 7.5723 87.4375 6.3553 86.6808 7.30185C84.2044 10.3444 81.6591 13.4545 79.1826 16.497C79.733 16.9027 80.2833 17.3084 80.8336 17.714C82.2094 14.5363 83.5852 11.4262 84.961 8.24841C85.3738 7.30185 84.1356 6.01723 83.3101 7.0314C82.2782 8.31602 81.2463 9.60064 80.1457 10.8853C80.696 11.291 81.2463 11.6966 81.7967 12.1023C82.8285 10.4796 83.5852 8.85691 84.2043 7.0314C84.4795 6.08484 83.1037 5.2059 82.4846 6.01723C81.1088 7.70752 79.8017 9.46542 78.4259 11.1557C78.9763 11.5614 79.5266 11.9671 80.0769 12.3727C80.9712 10.412 81.7967 8.45125 82.691 6.49052C83.2413 5.34113 81.5903 4.32696 80.9024 5.47635C80.1457 6.69335 79.389 7.91035 78.6323 9.12736C77.738 8.72169 79.5266 9.73586 80.2145 8.58647Z" fill="#E8E8E8"/>
<path d="M117.569 2.83967C117.569 5.13846 117.638 7.50485 117.706 9.80364C117.775 11.4939 118.532 15.0773 117.431 16.3619C116.743 17.1733 117.638 18.5931 118.669 17.9846C119.151 17.6466 119.289 17.5789 119.701 17.1733C120.114 16.6324 120.045 15.6858 119.22 15.483C117.982 15.2125 117.087 15.2126 115.849 15.6182C114.611 16.0239 115.092 17.9846 116.399 17.5789C117.156 17.5113 117.913 17.5113 118.669 17.4437C118.532 16.9028 118.394 16.2943 118.188 15.7534C117.982 15.9563 117.775 16.0915 117.638 16.2943C118.05 16.8352 118.463 17.3761 118.876 17.917C120.389 16.1591 119.976 14.9421 119.839 12.5757C119.701 9.39798 119.633 6.15262 119.633 2.97489C119.633 1.48744 117.569 1.48744 117.569 2.83967Z" fill="#E8E8E8"/>
<path d="M15.8279 61.7295C44.1009 60.1745 72.4427 59.566 100.785 59.904C102.092 59.904 102.092 57.8757 100.785 57.8757C72.4427 57.5376 44.1009 58.1461 15.8279 59.7012C14.5209 59.7688 14.5209 61.7971 15.8279 61.7295Z" fill="#01A089"/>
<path d="M19.4711 80.2549C39.7643 78.159 60.1264 77.0772 80.4885 77.0772C81.7955 77.0772 81.7955 75.0488 80.4885 75.0488C60.1264 75.0488 39.7643 76.063 19.4711 78.2266C18.164 78.3618 18.0952 80.3901 19.4711 80.2549Z" fill="#FDF311"/>
<path d="M21.3299 114.804C48.4334 112.032 75.6058 110.477 102.847 110.274C104.154 110.274 104.154 108.246 102.847 108.246C75.6058 108.449 48.4334 110.004 21.3299 112.776C20.0228 112.911 20.0228 114.939 21.3299 114.804Z" fill="#01A089"/>
<path d="M132.634 207.296C119.289 202.226 111.378 187.689 112.685 173.896C114.061 159.901 124.655 147.934 137.381 142.322C146.117 138.468 155.748 137.657 164.347 142.187C171.088 145.702 176.867 151.111 180.926 157.467C189.387 170.719 188.768 186.743 179.825 199.724C174.459 207.499 164.347 209.73 155.473 211.083C146.668 212.435 137.381 211.962 129.952 206.62C128.851 205.877 127.819 207.634 128.92 208.378C135.799 213.314 144.26 214.328 152.515 213.517C160.701 212.705 170.401 210.947 177.005 205.809C183.54 200.738 187.461 191.137 188.837 183.294C190.144 175.79 188.699 168.217 185.466 161.321C178.243 145.973 161.595 133.668 143.916 137.927C128.645 141.578 115.162 153.681 111.447 168.893C107.457 185.052 116.056 203.104 132.015 209.19C133.322 209.73 133.873 207.77 132.634 207.296Z" fill="#E8E8E8"/>
<path d="M147.148 138.265C147.974 150.773 148.799 163.281 149.693 175.79C149.762 177.074 151.826 177.074 151.757 175.79C150.932 163.281 150.106 150.773 149.212 138.265C149.143 136.981 147.079 136.981 147.148 138.265Z" fill="#E8E8E8"/>
<path d="M151.618 177.006C162.074 171.395 172.393 165.513 182.574 159.292C183.675 158.616 182.643 156.858 181.542 157.534C171.43 163.755 161.111 169.637 150.586 175.249C149.417 175.925 150.449 177.683 151.618 177.006Z" fill="#E8E8E8"/>
<path d="M152.034 177.345C163.866 177.345 175.56 180.117 187.186 182.077C188.493 182.28 189.043 180.32 187.736 180.117C175.973 178.156 164.072 175.316 152.034 175.316C150.726 175.316 150.726 177.345 152.034 177.345Z" fill="#E8E8E8"/>
<path d="M150.244 175.992C143.64 186.743 137.036 197.425 130.364 208.175C129.676 209.325 131.464 210.339 132.152 209.19C138.756 198.439 145.36 187.757 152.033 177.007C152.721 175.925 150.932 174.843 150.244 175.992Z" fill="#E8E8E8"/>
<path d="M33.0936 271.798C63.0176 269.566 92.8727 266.997 122.66 263.955C123.967 263.819 123.967 261.791 122.66 261.926C92.804 264.901 62.9488 267.538 33.0936 269.769C31.7865 269.904 31.7865 271.933 33.0936 271.798Z" fill="#E8E8E8"/>
<path d="M43.2742 221.968C44.3748 237.519 45.5443 253.137 46.6449 268.688C46.7137 269.972 48.7774 269.972 48.7086 268.688C47.608 253.137 46.4385 237.519 45.3379 221.968C45.2003 220.683 43.1366 220.683 43.2742 221.968Z" fill="#E8E8E8"/>
<path d="M45.2704 222.171C49.1915 221.495 53.1125 221.292 57.1024 221.495C56.7584 221.157 56.4145 220.819 56.0705 220.481C57.1024 236.302 58.6158 252.055 60.4731 267.741C60.6107 269.026 62.6745 269.026 62.5369 267.741C60.6107 252.055 59.1661 236.234 58.1343 220.481C58.0655 219.94 57.7215 219.466 57.1024 219.466C52.9062 219.264 48.8475 219.534 44.7201 220.21C43.413 220.481 44.0321 222.441 45.2704 222.171Z" fill="#E8E8E8"/>
<path d="M66.9388 237.992C68.521 247.39 69.4841 256.923 69.828 266.456C69.8968 267.741 71.9605 267.741 71.8917 266.456C71.5478 256.72 70.5847 247.052 68.9337 237.451C68.7274 236.166 66.7324 236.707 66.9388 237.992Z" fill="#E8E8E8"/>
<path d="M69.4138 239.006C73.4037 239.006 77.3248 238.803 81.2459 238.262C80.9019 237.924 80.558 237.586 80.214 237.248C81.1771 246.646 82.2089 255.977 83.172 265.375C83.3096 266.659 85.3733 266.659 85.2357 265.375C84.2726 255.977 83.2408 246.646 82.2777 237.248C82.2089 236.775 81.865 236.167 81.2459 236.234C77.3248 236.707 73.3349 236.978 69.4138 236.978C68.1068 236.978 68.1068 239.006 69.4138 239.006Z" fill="#FDF311"/>
<path d="M91.4265 221.833C93.0775 236.437 94.1093 251.041 94.5221 265.78C94.5909 267.065 96.6546 267.065 96.5858 265.78C96.1043 251.109 95.0724 236.437 93.4902 221.833C93.3526 220.548 91.2889 220.548 91.4265 221.833Z" fill="#E8E8E8"/>
<path d="M92.4598 222.644C94.6611 222.779 96.9312 222.847 99.1325 222.982C102.229 223.117 102.297 223.185 102.366 226.228C102.572 230.622 102.779 234.949 103.054 239.344C103.673 247.728 104.636 256.044 106.218 264.293C106.494 265.577 108.419 265.036 108.212 263.752C106.217 253.34 105.255 242.725 104.705 232.11C104.567 229.676 104.499 227.309 104.361 224.875C104.292 223.929 104.429 222.509 103.672 221.698C102.847 220.886 101.403 221.021 100.371 220.954C97.6879 220.819 95.0738 220.683 92.391 220.548C91.1527 220.548 91.1527 222.577 92.4598 222.644Z" fill="#E8E8E8"/>
<path d="M119.219 286.199C145.773 284.373 172.257 281.06 198.398 276.26C199.705 275.989 199.154 274.096 197.847 274.299C171.844 279.1 145.566 282.345 119.219 284.17C117.844 284.238 117.844 286.266 119.219 286.199Z" fill="#E8E8E8"/>
<path d="M159.668 273.285C170.95 272.136 182.3 270.986 193.582 269.837C194.889 269.702 194.889 267.673 193.582 267.809C182.3 268.958 170.95 270.107 159.668 271.257C158.361 271.392 158.361 273.42 159.668 273.285Z" fill="#E8E8E8"/>
<path d="M178.93 259.763C184.09 259.56 189.318 259.357 194.477 259.154C195.784 259.087 195.784 257.058 194.477 257.126C189.318 257.329 184.09 257.532 178.93 257.735C177.554 257.802 177.554 259.83 178.93 259.763Z" fill="#E8E8E8"/>
<path d="M124.448 32.3861C125.755 36.1047 126.305 39.8909 126.099 43.8124C126.03 45.097 128.094 45.097 128.163 43.8124C128.369 39.6881 127.819 35.7667 126.443 31.8452C125.961 30.6282 123.966 31.1691 124.448 32.3861Z" fill="#E8E8E8"/>
<path d="M126.168 32.5884C145.086 30.6953 164.003 29.4783 182.989 28.8698C184.296 28.8022 184.296 26.7739 182.989 26.8415C164.003 27.45 145.017 28.667 126.168 30.5601C124.861 30.6953 124.861 32.7237 126.168 32.5884Z" fill="#E8E8E8"/>
<path d="M128.164 44.8943C147.013 43.5421 165.792 42.1898 184.641 40.8376C185.948 40.77 185.948 38.7417 184.641 38.8093C165.792 40.1615 147.013 41.5137 128.164 42.8659C126.857 42.9336 126.857 44.9619 128.164 44.8943Z" fill="#E8E8E8"/>
<path d="M183.263 29.208C183.883 33.3999 184.502 37.5242 185.121 41.7161C185.327 43.0008 187.322 42.4599 187.116 41.1753C186.497 36.9833 185.878 32.8591 185.258 28.6672C185.052 27.3825 183.057 27.9234 183.263 29.208Z" fill="#E8E8E8"/>
<path d="M349.257 495.862C344.648 492.211 338.388 491.467 333.297 493.969C327.313 496.943 324.079 503.907 325.593 510.871C326.831 520.134 328.069 529.464 329.308 538.727C304.199 550.018 292.229 557.388 293.261 560.769C294.499 564.893 314.861 563.135 354.416 555.63C352.696 535.685 350.977 515.807 349.257 495.862Z" fill="#191919"/>
<path d="M332.472 276.395C331.509 289.985 329.926 312.026 327.244 339.341C323.942 373.62 322.566 408.17 317.888 442.313C313.073 477.742 307.776 502.014 319.952 510.466C324.354 513.508 329.651 513.508 333.435 513.035C337.425 512.021 341.414 510.939 345.404 509.925C349.325 511.818 354.622 513.643 358.887 511.48C371.407 505.192 359.575 472.941 360.469 426.695C361.089 396.202 367.073 365.777 375.053 325.819C381.107 295.326 385.716 279.505 377.117 271.73C366.661 262.197 343.478 271.324 332.472 276.395Z" fill="#FDF311" stroke="#161616" stroke-width="2" stroke-miterlimit="10"/>
<path opacity="0.14" d="M352.214 270.04C354.828 282.007 357.786 300.127 357.58 322.168C357.236 357.732 348.775 380.179 342.652 406.885C337.08 431.09 331.715 466.383 334.122 511.886C337.768 511.209 341.483 510.466 345.129 509.79C345.954 510.398 349.325 512.629 354.003 512.224C354.691 512.156 359.231 511.683 362.189 508.37C365.835 504.313 365.078 498.296 364.665 495.388C363.083 482.745 362.739 469.967 361.432 457.256C360.057 443.869 360.263 433.456 360.332 427.169C360.4 422.436 360.744 413.579 362.464 399.178C365.491 374.094 368.243 369.834 374.227 333.392C378.768 305.941 376.773 310.945 378.492 304.724C380.075 299.18 382.757 291.135 381.313 280.925C380.625 276.125 379.387 273.42 377.392 271.46C373.264 267.471 367.142 267.538 363.496 267.606C358.612 267.673 354.622 269.026 352.214 270.04Z" fill="#6D6C6C"/>
<path opacity="0.1" d="M371.818 339.003C366.659 350.227 361.225 364.966 357.923 382.748C352.144 414.12 357.854 430.076 352.97 463.611C351.181 475.984 347.81 491.535 341.207 509.113C343.683 509.452 346.159 509.79 348.705 510.195C352.419 511.48 357.097 512.426 360.468 510.195C366.522 506.206 364.458 494.509 362.944 480.784C362.944 480.784 361.087 463.881 360.812 431.766C360.674 413.984 362.325 400.868 364.733 381.734C366.865 364.56 369.48 350.024 371.818 339.003Z" fill="#6D6C6C"/>
<path d="M436.071 490.723C431.462 487.072 425.202 486.329 420.111 488.83C414.127 491.805 410.893 498.769 412.407 505.733C413.645 514.996 414.883 524.326 416.121 533.589C391.013 544.88 379.043 552.25 380.075 555.63C381.313 559.754 401.675 557.997 441.23 550.492C439.442 530.546 437.722 510.669 436.071 490.723Z" fill="#191919"/>
<path d="M410.41 274.299C414.4 306.415 418.665 339.544 423.206 373.958C426.301 397.622 427.058 403.234 429.465 412.429C433.593 428.386 439.165 441.975 443.98 466.654C446.25 478.148 447.42 487.478 441.985 494.509C437.927 499.783 430.016 503.975 428.227 502.352C427.471 501.609 427.952 499.716 428.64 498.025C426.989 499.58 416.533 509.249 408.209 505.868C403.325 503.907 401.33 498.296 400.367 495.253C390.599 465.842 389.017 436.364 389.017 436.364C388.397 425.005 386.884 413.376 383.926 390.05C381.725 372.944 377.597 348.199 368.723 318.111C367.416 317.3 354.621 308.916 353.796 293.433C353.727 292.284 353.245 280.587 360.744 272.677C370.649 262.197 391.837 261.453 410.41 274.299Z" fill="#FDF311" stroke="#161616" stroke-width="2" stroke-miterlimit="10"/>
<path d="M354.897 282.413C352.421 289.444 351.733 297.355 355.654 304.048C359.025 309.795 364.459 316.083 371.063 318.111C372.301 318.517 372.852 316.556 371.613 316.151C365.56 314.325 360.469 308.308 357.442 303.034C353.797 296.814 354.622 289.512 356.892 282.954C357.374 281.737 355.379 281.196 354.897 282.413Z" fill="#FDF311"/>
<path d="M352.834 294.988C353.453 305.536 360.332 314.325 370.788 317.232C372.095 317.571 372.645 315.61 371.338 315.272C361.845 312.635 355.517 304.657 354.897 294.988C354.829 293.704 352.765 293.704 352.834 294.988Z" fill="#FDF311"/>
<path opacity="0.14" d="M383.307 265.51C385.096 270.783 387.847 279.302 390.874 289.85C399.679 320.41 414.882 373.35 415.845 437.04C415.983 447.655 416.395 501.676 421.348 501.947C422.518 502.014 424.444 499.039 427.058 499.715C428.847 500.189 428.915 501.811 430.498 502.42C433.937 503.705 439.647 497.89 442.398 493.63C443.361 492.143 445.563 488.762 446.044 483.962C446.319 481.798 446.113 480.243 445.356 475.646C444.256 468.547 443.705 465.031 443.293 463.273C440.335 449.548 435.038 436.364 430.704 417.771C428.847 409.928 427.608 402.896 426.095 394.783C425.613 392.213 424.306 384.709 422.862 375.378C419.629 354.013 418.597 339.341 416.464 320.613C415.295 310.404 413.506 296.002 410.755 278.491C410.067 277.004 408.828 274.705 406.627 272.609C405.87 271.933 403.532 269.837 397.203 267.876C394.107 266.794 389.361 265.645 383.307 265.51Z" fill="#6D6C6C"/>
<path opacity="0.2" d="M428.021 407.696C431.805 425.005 434.35 439.812 436.07 451.441C438.822 470.372 438.959 477.269 435.382 484.571C430.016 495.591 418.872 502.15 419.56 503.028C419.835 503.367 421.624 502.69 427.815 498.769C428.021 500.392 428.503 502.217 429.879 502.826C433.387 504.313 441.161 496.876 444.531 489.777C449.14 479.973 445.769 469.899 442.674 460.23C438.822 447.993 433.662 430.549 428.021 407.696Z" fill="#6D6C6C"/>
<path d="M336.53 159.36C329.788 158.481 323.597 167.135 311.559 184.376C303.304 196.141 297.525 206.485 293.742 213.652C285.556 213.246 277.37 212.841 269.184 212.367C261.548 211.962 253.912 211.556 246.276 211.083C243.25 210.068 238.709 208.581 233.137 207.296C224.126 205.133 205.483 201.549 204.314 204.727C203.97 205.741 205.208 207.837 213.188 212.773C212.638 214.125 210.643 219.804 213.188 226.363C213.601 227.377 215.871 232.853 221.236 235.693C228.116 239.277 237.609 237.316 244.557 230.622C249.922 233.8 279.021 250.5 306.399 239.074C315.342 235.355 321.602 229.676 327.174 224.672C337.287 215.545 350.563 203.578 350.907 186.945C351.182 174.911 344.716 160.442 336.53 159.36Z" fill="white" stroke="#161616" stroke-width="2" stroke-miterlimit="10"/>
<path d="M203.763 205.538C206.446 208.175 209.06 211.015 212.087 213.246C215.045 215.41 218.416 216.627 221.855 217.776C222.818 218.114 223.231 216.627 222.268 216.289C218.622 215.072 215.114 213.719 212.087 211.285C209.473 209.189 207.203 206.755 204.864 204.457C204.176 203.781 203.075 204.862 203.763 205.538Z" fill="#161616"/>
<path d="M236.301 212.502C233.687 213.449 231.28 214.936 229.422 216.965C228.115 218.385 226.189 220.616 226.671 222.644C227.152 224.943 230.042 224.943 231.968 224.943C235.063 224.875 238.021 223.996 240.704 222.441C241.53 221.968 240.773 220.616 239.947 221.157C238.228 222.171 236.37 222.915 234.375 223.253C232.656 223.523 227.634 224.132 228.528 220.954C229.422 217.708 233.825 215.072 236.783 213.99C237.609 213.652 237.196 212.164 236.301 212.502Z" fill="#161616"/>
<path d="M212.295 213.99C210.85 218.52 210.85 222.914 215.803 225.078C219.449 226.701 224.746 225.889 226.603 222.036C227.016 221.157 225.709 220.413 225.296 221.292C223.783 224.47 219.449 225.01 216.422 223.658C212.226 221.833 212.638 218.114 213.808 214.395C214.083 213.449 212.638 213.043 212.295 213.99Z" fill="#161616"/>
<path d="M211.949 223.996C212.224 227.85 214.632 231.636 218.759 232.38C222.405 233.056 225.776 230.893 227.083 227.647C227.427 226.768 225.982 226.363 225.57 227.242C224.469 229.946 221.373 231.569 218.415 230.757C215.388 229.879 213.669 226.904 213.462 223.996C213.462 223.05 211.88 223.05 211.949 223.996Z" fill="#161616"/>
<path d="M226.808 228.391C232.174 227.444 230.385 236.842 226.464 236.504C225.501 236.437 225.501 237.924 226.464 238.059C229.766 238.33 231.555 234.341 231.761 231.636C231.967 228.661 229.353 226.498 226.395 227.039C225.432 227.106 225.845 228.526 226.808 228.391Z" fill="#161616"/>
<path d="M226.395 222.915C226.395 222.847 226.464 222.847 226.464 222.779C226.189 222.847 225.982 222.915 225.707 222.982C226.257 223.117 226.326 224.875 226.257 225.213C226.189 226.092 225.845 226.904 225.157 227.58C224.469 228.256 225.57 229.338 226.257 228.662C227.289 227.647 227.84 226.228 227.771 224.74C227.702 223.658 227.358 221.765 226.051 221.495C225.776 221.427 225.501 221.495 225.294 221.698C225.294 221.765 225.226 221.765 225.226 221.833C224.675 222.577 225.707 223.658 226.395 222.915Z" fill="#161616"/>
<path d="M222.682 217.911C224.333 217.979 225.364 219.534 224.952 221.089C224.676 222.036 226.19 222.441 226.465 221.495C227.153 218.993 225.433 216.491 222.75 216.424C221.65 216.356 221.65 217.911 222.682 217.911Z" fill="#161616"/>
<path opacity="0.12" d="M346.712 170.245C344.717 175.992 341.415 183.768 336.187 192.287C330.821 201.008 324.837 210.677 313.211 218.79C308.946 221.765 296.082 230.555 277.027 231.231C259.073 231.839 245.865 224.943 240.637 221.833C236.509 224.875 233.689 225.078 231.831 224.672C230.18 224.267 229.561 223.455 226.672 222.576C224.196 221.833 222.201 221.698 221.1 221.63C217.11 221.359 212.983 221.089 211.882 222.915C210.438 225.416 215.115 230.757 218.761 233.665C220.412 234.949 223.301 237.181 227.36 237.789C236.922 239.277 244.007 231.096 244.42 230.622C246.759 232.042 250.13 234.003 254.395 235.896C261.343 239.074 271.18 243.468 284.25 243.401C299.109 243.401 309.84 237.654 312.041 236.437C314.656 234.949 319.54 230.757 329.239 222.306C338.251 214.463 341.553 211.015 344.58 206.282C346.368 203.51 348.638 199.927 349.945 194.991C352.766 184.444 348.982 174.843 346.712 170.245Z" fill="#6D6C6C"/>
<path opacity="0.15" d="M350.356 178.359C349.049 182.821 346.779 189.109 342.858 196.073C339.212 202.564 329.581 219.264 309.15 229.541C303.096 232.583 292.64 237.721 278.125 237.451C262.028 237.113 250.472 230.352 245.587 227.106C242.836 228.797 238.708 230.96 233.343 232.38C226.188 234.206 221.029 233.597 220.891 234.611C220.754 235.626 225.707 237.789 230.866 237.654C238.089 237.451 243.18 232.786 245.037 230.893C249.784 234.273 267.532 246.173 290.783 243.13C308.737 240.764 320.088 230.825 330.062 222.036C337.492 215.477 346.091 207.702 349.393 194.721C351.112 188.095 350.837 182.28 350.356 178.359Z" fill="#6D6C6C"/>
<path d="M329.239 159.63C327.863 161.185 325.455 164.498 323.392 180.319C320.64 201.82 322.085 218.858 323.392 231.569C324.905 246.646 327.038 264.834 330.133 285.523C342.103 289.174 361.983 293.298 385.854 289.579C396.654 287.889 405.872 284.982 413.301 281.939C411.719 265.037 411.926 251.379 412.407 242.387C414.746 195.938 416.878 183.024 416.878 183.024C418.461 173.761 419.905 168.014 416.397 162.808C412.889 157.467 406.216 155.641 384.96 154.289C352.697 152.126 336.462 151.247 329.239 159.63Z" fill="#01A089"/>
<path opacity="0.14" d="M375.672 154.424C377.805 161.862 379.593 169.772 381.107 178.156C388.949 222.238 383.446 261.318 375.672 290.458C379.662 290.188 383.858 289.715 388.33 288.971C397.823 287.416 406.147 284.982 413.026 282.48C412.063 269.026 411.788 257.532 411.788 248.404C411.856 222.915 414.126 203.443 415.09 195.667C416.328 186.202 417.635 178.291 418.735 172.544C419.011 170.921 419.286 167.947 417.841 164.836C416.19 161.253 413.095 159.36 411.788 158.616C407.316 155.979 402.776 155.979 400.299 155.979C394.383 155.777 386.541 155.438 375.672 154.424Z" fill="#6D6C6C"/>
<path opacity="0.16" d="M418.184 170.381C406.008 201.414 403.463 223.591 403.738 238.533C403.807 244.145 404.426 257.599 397.134 271.73C392.663 280.317 386.816 286.334 382.344 290.12C386.472 289.579 391.012 288.768 395.896 287.483C402.156 285.861 407.59 283.832 412.199 281.872C411.58 264.428 411.649 245.497 412.819 225.281C413.85 205.538 415.777 187.216 418.184 170.381Z" fill="#6D6C6C"/>
<path d="M408.831 159.833C417.292 156.182 428.78 166.865 436.21 173.694C444.327 181.198 460.768 196.411 461.593 221.292C462.281 242.049 451.756 257.058 446.528 263.346C438.342 273.15 429.055 278.288 423.552 280.79C423.483 283.089 423.139 286.74 421.557 290.729C420.663 292.892 416.123 304.251 407.455 304.724C406.286 304.792 402.296 304.792 397.687 300.532C397.412 300.532 396.036 300.33 395.142 299.113C394.316 297.963 394.247 296.273 395.073 294.921C394.866 294.785 393.078 293.906 392.665 291.811C392.184 289.512 393.766 287.821 393.903 287.754C393.972 286.604 394.247 285.117 395.348 284.373C396.586 283.562 397.893 284.238 399.888 284.103C401.195 283.968 403.053 283.494 405.254 281.601C402.777 280.925 397.205 279.167 397.343 277.207C397.412 274.908 405.46 273.555 407.249 273.217C411.651 272.474 415.435 272.609 417.98 272.812C419.494 270.107 421.695 266.118 424.309 261.318C428.711 253.204 430.913 249.148 432.22 246.241C434.696 240.832 437.448 232.651 438.205 221.224C435.109 218.249 430.362 213.99 424.309 209.325C411.239 199.318 406.836 199.115 403.259 193.436C396.517 182.821 399.751 163.755 408.831 159.833Z" fill="white" stroke="#161616" stroke-width="2" stroke-miterlimit="10"/>
<path d="M393.215 286.943C394.316 292.216 402.571 290.999 405.873 289.106C406.698 288.633 405.941 287.281 405.116 287.822C402.708 289.241 395.554 290.796 394.729 286.605C394.522 285.59 393.009 285.996 393.215 286.943Z" fill="#161616"/>
<path d="M394.04 295.394C398.167 298.301 404.221 296.949 408.555 294.988C409.449 294.583 408.692 293.298 407.798 293.704C403.946 295.394 398.511 296.611 394.865 294.109C394.04 293.501 393.283 294.853 394.04 295.394Z" fill="#161616"/>
<path d="M397.135 301.344C401.4 303.372 406.353 303.102 410.274 300.397C411.1 299.856 410.343 298.504 409.518 299.113C406.078 301.479 401.744 301.885 397.961 300.059C397.066 299.586 396.241 300.871 397.135 301.344Z" fill="#161616"/>
<path opacity="0.18" d="M405.87 162.403C404.494 167 420.591 171.395 434.693 186.269C439.577 191.408 449.552 201.888 451.891 217.438C454.849 236.707 444.599 252.123 440.815 257.667C433.523 268.552 424.649 274.975 419.284 278.288C419.284 280.181 419.009 287.078 413.643 292.892C412.542 294.109 408.209 298.775 401.88 299.451C398.234 299.856 394.932 298.842 394.794 299.248C394.726 299.654 397.271 300.194 400.573 302.426C402.705 303.845 402.774 304.454 403.806 304.927C408.071 306.888 414.812 300.938 415.569 300.33C422.586 294.042 423.411 284.711 423.549 281.263C425.131 280.384 427.264 279.167 429.74 277.545C432.285 275.854 439.783 270.986 445.699 264.563C447.282 262.873 455.33 253.881 459.251 239.479C460.627 234.409 464.411 219.737 458.357 203.713C455.674 196.749 452.235 192.219 446.043 184.309C440.54 177.209 436.481 173.694 428.639 166.865C422.998 161.929 419.628 159.63 415.088 159.36C411.992 159.157 406.626 159.901 405.87 162.403Z" fill="#6D6C6C"/>
<path opacity="0.18" d="M452.994 193.368C455.333 199.048 458.703 209.392 458.222 222.577C457.74 236.91 452.994 247.322 451.136 250.906C442.606 267.809 429.123 276.868 422.52 280.655C427.885 278.694 435.659 274.975 443.019 268.011C464.551 247.593 461.386 218.79 461.111 216.762C459.873 206.62 456.158 198.71 452.994 193.368Z" fill="#6D6C6C"/>
<path d="M374.158 107.773C378.286 121.362 379.799 129.273 385.646 141.713C388.398 147.528 391.012 152.126 392.869 155.168C386.885 157.94 377.185 161.524 364.734 161.997C357.373 162.267 351.045 161.321 346.16 160.239C346.642 156.52 346.917 151.855 346.573 146.581C346.092 139.956 344.647 134.344 343.271 130.22C336.667 129.408 329.995 128.529 323.391 127.718C322.084 124.878 320.777 121.971 319.47 119.131C317.681 119.064 315.824 118.996 314.035 118.928C315.411 115.007 317.475 108.854 319.882 101.214C324.354 86.8129 324.285 84.7846 326.693 81.5392C333.365 72.6821 348.293 67.0028 358.13 71.8032C363.977 74.5753 367.417 85.6635 374.158 107.773Z" fill="white" stroke="#161616" stroke-width="2" stroke-miterlimit="10"/>
<path d="M314.174 120.01C317.614 120.078 320.984 119.807 324.355 119.334C325.662 119.131 325.112 117.17 323.805 117.373C320.572 117.847 317.407 118.049 314.174 117.982C312.867 117.982 312.867 120.01 314.174 120.01Z" fill="#161616"/>
<path d="M312.866 94.1824C314.792 93.1682 317.338 93.7091 318.576 95.467C319.332 96.5488 321.121 95.5346 320.364 94.4528C318.438 91.7484 314.792 90.8694 311.834 92.4245C310.665 93.033 311.697 94.7909 312.866 94.1824Z" fill="#161616"/>
<path d="M329.101 96.549C331.577 95.8053 334.26 96.6167 335.704 98.7802C336.461 99.862 338.25 98.8478 337.493 97.7661C335.498 94.9264 331.921 93.5742 328.55 94.6559C327.312 94.994 327.793 96.9547 329.101 96.549Z" fill="#161616"/>
<path d="M329.583 104.121C329.514 103.378 329.652 102.634 330.065 101.958C330.133 101.823 330.271 101.62 330.408 101.485C330.133 101.147 329.996 101.079 330.065 101.417C329.927 101.552 329.996 102.228 329.927 102.431C329.858 102.769 329.721 103.107 329.583 103.445C329.514 103.581 329.445 103.716 329.377 103.783C329.721 104.392 329.927 104.46 330.065 103.986C330.34 103.716 330.477 103.107 330.684 102.769C330.89 102.364 331.096 101.958 331.303 101.552C331.853 100.538 330.546 99.5234 329.652 100.335C329.17 100.809 328.895 101.282 328.689 101.89C328.345 103.175 330.34 103.716 330.684 102.431C330.752 102.093 330.89 101.958 331.096 101.755C330.546 101.349 329.996 100.944 329.445 100.538C328.964 101.485 328.414 102.431 328.001 103.445C327.657 104.189 327.726 105.068 328.482 105.541C330.34 106.691 331.509 104.324 331.853 102.904C332.128 101.552 332.128 98.7121 329.858 99.3206C328.07 99.8615 327.382 102.431 327.45 103.986C327.588 105.406 329.652 105.406 329.583 104.121Z" fill="#161616"/>
<path d="M324.285 85.0552C324.767 82.148 325.936 77.2799 329.169 72.2767C330.339 70.5188 332.746 66.8002 336.667 64.2986C344.166 59.4982 355.654 59.9038 363.977 65.786C372.163 71.533 376.222 81.8099 374.434 92.0868C357.786 89.7881 341.001 87.4216 324.285 85.0552Z" fill="#01A089"/>
<path d="M296.906 85.2577C322.702 88.4355 348.43 91.6132 374.226 94.791C378.148 95.2642 378.148 89.1792 374.226 88.7059C348.43 85.5282 322.702 82.3505 296.906 79.1727C292.916 78.6994 292.985 84.7845 296.906 85.2577Z" fill="#161616"/>
<path d="M357.787 91.4103C353.247 93.033 350.564 96.1431 347.537 99.7265C341.071 107.434 342.997 110.274 338.457 115.074C331.234 122.715 323.873 118.185 317.407 125.689C311.903 132.045 312.66 140.632 312.866 142.592C313.073 144.485 314.036 152.125 320.433 157.399C326.005 161.929 333.435 162.943 333.916 161.929C334.054 161.591 333.504 160.645 329.376 157.94C330.546 158.751 332.472 159.766 334.879 160.239C337.7 160.712 340.383 160.239 340.383 159.833C340.383 159.495 338.869 159.563 337.7 158.346C337.012 157.602 336.737 156.791 336.53 156.047C338.801 157.467 341.621 158.751 344.304 157.94C351.664 155.776 352.971 139.753 353.384 134.411C354.76 117.238 349.738 107.84 355.861 101.755C356.342 101.214 358.819 98.7799 361.57 99.3208C365.01 99.9293 367.624 105.136 366.523 108.584C365.56 111.559 362.121 112.37 362.327 112.979C362.671 113.655 368.449 112.573 373.334 108.787C375.122 107.434 376.567 106.285 377.323 104.257C378.63 100.673 377.117 96.6164 375.053 94.1823C370.788 89.3143 362.74 89.6524 357.787 91.4103Z" fill="#161616" stroke="#161616" stroke-width="2" stroke-miterlimit="10"/>
<path opacity="0.22" d="M364.596 113.587C363.496 113.722 361.914 113.722 361.845 113.384C361.776 113.181 362.189 112.911 362.189 112.911C362.189 112.911 360.882 114.534 359.231 114.736C358.474 114.804 357.786 114.601 357.305 114.331C360.194 120.348 363.152 127.583 365.697 135.966C368.449 145.162 370.031 153.478 370.925 160.645C373.883 160.645 378.079 160.306 382.895 158.819C386.816 157.602 389.912 155.979 392.25 154.56C386.059 145.026 382.895 137.386 381.106 132.18C380.281 129.746 378.492 123.999 377.667 121.16C376.085 116.021 374.778 111.762 373.952 108.922C373.539 109.328 372.783 109.936 371.888 110.545C370.581 111.491 368.036 113.249 364.596 113.587Z" fill="#6D6C6C"/>
<path d="M346.094 61.3229C352.766 62.6076 357.788 67.8812 358.614 74.0339C359.508 81.4035 354.005 86.4744 353.454 86.88C360.609 87.759 367.694 88.5703 374.848 89.4493C374.986 87.8266 375.055 85.5954 374.573 83.0262C373.197 74.7776 368.244 69.6391 367.213 68.625C365.562 67.0023 359.714 61.5258 350.978 61.0525C348.983 60.9849 347.263 61.1877 346.094 61.3229Z" fill="#008370"/>
<path d="M194.684 357.258C195.028 360.909 195.303 364.628 195.647 368.279C312.385 368.482 429.123 368.685 545.861 368.887C546.893 365.236 547.925 361.518 548.957 357.867C430.912 357.664 312.798 357.461 194.684 357.258Z" fill="white"/>
<path d="M199.36 357.732C200.598 357.732 201.836 357.732 203.075 357.732C204.382 357.732 204.382 355.703 203.075 355.703C201.836 355.703 200.598 355.703 199.36 355.703C197.984 355.703 197.984 357.732 199.36 357.732Z" fill="#161616"/>
<path d="M195.578 359.692C241.599 359.692 287.62 359.692 333.641 359.692C379.662 359.692 425.683 359.692 471.704 359.692C497.776 359.692 523.916 359.692 549.988 359.692C552.671 359.692 552.671 355.636 549.988 355.636C503.967 355.636 457.946 355.636 411.925 355.636C365.904 355.636 319.883 355.636 273.862 355.636C247.79 355.636 221.649 355.636 195.578 355.636C192.964 355.636 192.964 359.692 195.578 359.692Z" fill="#161616"/>
<path d="M196.541 369.699C287.139 369.699 377.805 369.699 468.403 369.699C494.062 369.699 519.652 369.699 545.311 369.699C547.993 369.699 547.993 365.642 545.311 365.642C454.713 365.642 364.047 365.642 273.45 365.642C247.791 365.642 222.2 365.642 196.541 365.642C193.859 365.642 193.859 369.699 196.541 369.699Z" fill="#161616"/>
<path d="M207.479 379.57C207.479 436.228 207.479 492.887 207.479 549.477C207.479 565.637 207.479 581.863 207.479 598.022C207.479 600.659 211.606 600.659 211.606 598.022C211.606 541.364 211.606 484.706 211.606 428.115C211.606 411.956 211.606 395.729 211.606 379.57C211.606 377.001 207.479 377.001 207.479 379.57Z" fill="#161616"/>
<path d="M494.887 376.866C494.887 428.115 494.887 479.432 494.887 530.682C494.887 545.218 494.887 559.754 494.887 574.358C494.887 576.995 499.014 576.995 499.014 574.358C499.014 523.109 499.014 471.792 499.014 420.543C499.014 406.006 499.014 391.47 499.014 376.866C499.014 374.229 494.887 374.229 494.887 376.866Z" fill="#161616"/>
<path d="M208.305 379.502C208.305 434.876 208.305 490.317 208.305 545.691C208.305 561.445 208.305 577.198 208.305 593.019C208.305 595.656 212.432 595.656 212.432 593.019C212.432 537.645 212.432 482.204 212.432 426.83C212.432 411.077 212.432 395.324 212.432 379.502C212.432 376.866 208.305 376.866 208.305 379.502Z" fill="#161616"/>
<path d="M209.199 380.381C209.199 435.552 209.199 490.723 209.199 545.894C209.199 561.58 209.199 577.266 209.199 593.019C209.199 595.656 213.326 595.656 213.326 593.019C213.326 537.848 213.326 482.677 213.326 427.507C213.326 411.821 213.326 396.135 213.326 380.381C213.326 377.812 209.199 377.812 209.199 380.381Z" fill="#161616"/>
<path d="M494.543 375.852C494.543 426.019 494.543 476.254 494.543 526.422C494.543 540.756 494.543 555.089 494.543 569.423C494.543 572.06 498.671 572.06 498.671 569.423C498.671 519.255 498.671 469.02 498.671 418.852C498.671 404.519 498.671 390.185 498.671 375.852C498.671 373.282 494.543 373.282 494.543 375.852Z" fill="#161616"/>
<path d="M495.506 376.798C495.506 426.56 495.506 476.322 495.506 526.084C495.506 540.282 495.506 554.481 495.506 568.611C495.506 571.248 499.634 571.248 499.634 568.611C499.634 518.849 499.634 469.088 499.634 419.326C499.634 405.127 499.634 390.929 499.634 376.798C499.634 374.161 495.506 374.161 495.506 376.798Z" fill="#161616"/>
<path d="M198.811 370.037C202.388 374.296 205.553 378.759 208.373 383.492C209.749 385.723 213.326 383.694 211.95 381.463C208.923 376.46 205.484 371.727 201.7 367.197C199.981 365.169 197.091 368.009 198.811 370.037Z" fill="#161616"/>
<path d="M212.776 382.072C217.867 377.88 222.888 373.62 227.979 369.428C229.974 367.738 227.085 364.899 225.09 366.589C219.999 370.781 214.977 375.04 209.887 379.232C207.823 380.922 210.781 383.762 212.776 382.072Z" fill="#161616"/>
<path d="M483.055 372.133C487.32 374.77 491.585 377.407 495.85 380.043C498.12 381.463 500.184 377.947 497.914 376.528C493.649 373.891 489.384 371.254 485.119 368.617C482.849 367.265 480.785 370.781 483.055 372.133Z" fill="#161616"/>
<path d="M507.888 367.332C504.311 370.172 500.871 373.215 497.638 376.392C495.781 378.218 498.67 381.125 500.527 379.232C503.761 376.054 507.2 373.012 510.777 370.172C512.841 368.549 509.952 365.71 507.888 367.332Z" fill="#161616"/>
<path d="M486.286 372.336C491.789 373.147 497.155 373.35 502.658 372.809C502.314 371.524 501.97 370.307 501.627 369.023C499.356 370.443 497.018 370.848 494.335 371.119C492.821 371.322 491.308 373.35 492.89 374.567C495.023 376.257 497.155 376.798 499.838 376.122C502.383 375.513 501.351 371.592 498.737 372.2C497.705 372.606 496.674 372.403 495.779 371.66C495.298 372.809 494.816 373.958 494.335 375.108C497.637 374.77 500.87 374.296 503.69 372.403C505.272 371.389 504.86 368.414 502.658 368.617C497.568 369.09 492.409 369.023 487.318 368.279C484.773 368.009 483.672 371.93 486.286 372.336Z" fill="#161616"/>
<path d="M506.237 368.482C504.311 368.076 502.385 368.347 500.734 369.428C499.839 370.037 499.427 371.186 499.977 372.2C500.527 373.079 501.903 373.553 502.797 372.944C503.554 372.403 504.311 372.2 505.068 372.403C506.168 372.606 507.269 372.065 507.613 370.983C507.957 369.969 507.338 368.685 506.237 368.482Z" fill="#161616"/>
<path d="M203.488 371.93C204.726 372.741 209.335 374.837 209.129 376.595C209.817 375.919 210.505 375.243 211.193 374.567C210.918 374.567 210.092 371.457 209.886 370.916C209.267 371.93 208.716 372.944 208.097 373.958C212.225 373.756 216.146 372.944 219.929 371.457C219.241 370.307 218.622 369.226 217.934 368.076C215.595 370.443 213.119 372.674 210.436 374.702C211.399 375.649 212.293 376.528 213.256 377.474C215.733 373.35 212.225 369.969 208.647 368.211C208.303 369.496 207.96 370.713 207.616 371.998C210.436 371.863 213.256 371.795 216.077 371.93C218.76 372.065 218.691 368.009 216.077 367.873C213.256 367.738 210.436 367.738 207.616 367.941C205.689 368.076 204.658 370.781 206.584 371.727C207.822 372.336 210.849 373.62 209.748 375.446C208.785 377.069 210.849 379.503 212.569 378.218C215.527 375.987 218.347 373.62 220.892 370.984C222.199 369.631 220.892 366.792 218.897 367.603C215.389 368.955 211.881 369.767 208.166 369.969C206.515 370.037 205.758 371.592 206.377 373.012C207.547 375.581 207.478 378.691 211.261 378.624C212.5 378.624 213.188 377.677 213.325 376.595C213.876 372.539 208.441 370.24 205.689 368.482C203.351 366.994 201.287 370.51 203.488 371.93Z" fill="#161616"/>
</g>
<defs>
<clipPath id="clip0">
<rect width="552" height="600" fill="white"/>
</clipPath>
</defs>
</svg>
