<svg width="15" height="15" viewBox="0 0 15 15" fill="none" xmlns="http://www.w3.org/2000/svg">
<path d="M11.5987 15C11.4527 14.9996 11.3072 14.9832 11.1646 14.9511C8.44984 14.3768 5.94882 13.0303 3.94939 11.0665C1.99263 9.09838 0.635511 6.59255 0.0422341 3.85217C-0.0277208 3.51064 -0.0105511 3.15645 0.0920913 2.82366C0.194734 2.49088 0.379395 2.19071 0.628307 1.95203L2.36482 0.242794C2.45352 0.157015 2.5589 0.0913281 2.6741 0.050019C2.7893 0.00870986 2.91172 -0.00729258 3.03338 0.00305605C3.15952 0.0165137 3.28125 0.0580684 3.39 0.124798C3.49876 0.191527 3.59189 0.281811 3.66287 0.3893L5.83351 3.67015C5.91491 3.79745 5.9542 3.94811 5.9456 4.09996C5.93701 4.25181 5.88098 4.39683 5.78575 4.51367L4.69609 5.84555C5.13007 6.82778 5.74466 7.71553 6.50641 8.46046C7.26322 9.23242 8.15776 9.84881 9.14157 10.2763L10.4917 9.17967C10.6051 9.08803 10.7431 9.03384 10.8873 9.02433C11.0316 9.01481 11.1752 9.05041 11.2992 9.1264L14.5769 11.2929C14.6893 11.3616 14.7852 11.4554 14.8571 11.5673C14.9291 11.6793 14.9754 11.8064 14.9926 11.9392C15.0097 12.072 14.9972 12.2071 14.956 12.3343C14.9149 12.4615 14.8461 12.5775 14.7548 12.6736L13.0617 14.3873C12.8694 14.583 12.6412 14.7379 12.3901 14.843C12.139 14.9482 11.87 15.0015 11.5987 15ZM2.96392 0.882094L1.2274 2.59133C1.08738 2.72476 0.983723 2.89317 0.926634 3.07999C0.869546 3.26681 0.86099 3.46561 0.901808 3.65683C1.45346 6.2283 2.72155 8.58135 4.55283 10.4316C6.43443 12.2792 8.78802 13.5457 11.3426 14.0854C11.536 14.1268 11.7363 14.1184 11.9257 14.061C12.1152 14.0037 12.2877 13.8992 12.4279 13.7569L14.121 12.0432L10.9562 9.95216L9.50623 11.1331C9.45072 11.178 9.38531 11.2084 9.3157 11.2215C9.24609 11.2347 9.17438 11.2302 9.10684 11.2086C7.90287 10.7549 6.8118 10.0348 5.91165 9.09976C4.9806 8.21061 4.25789 7.11794 3.79745 5.90326C3.77797 5.82973 3.77732 5.7523 3.79557 5.67844C3.81381 5.60457 3.85034 5.53675 3.90164 5.4815L5.07378 4.04752L2.96392 0.882094Z" fill="#FDF311"/>
</svg>
