<svg width="257" height="437" viewBox="0 0 257 437" fill="none" xmlns="http://www.w3.org/2000/svg">
<path d="M16.882 432.285C24.0696 432.285 31.2571 432.285 38.4447 432.285C39.2119 432.285 39.2119 431.064 38.4447 431.064C31.2571 431.064 24.0696 431.064 16.882 431.064C16.1148 431.064 16.1148 432.285 16.882 432.285Z" fill="#161616"/>
<path d="M111.652 431.553C116.982 431.553 122.312 431.553 127.643 431.553C128.41 431.553 128.41 430.332 127.643 430.332C122.312 430.332 116.982 430.332 111.652 430.332C110.845 430.332 110.845 431.553 111.652 431.553Z" fill="#161616"/>
<path d="M135.396 430.82C138.505 430.82 141.574 430.82 144.683 430.82C145.45 430.82 145.45 429.599 144.683 429.599C141.574 429.599 138.505 429.599 135.396 429.599C134.629 429.599 134.629 430.82 135.396 430.82Z" fill="#161616"/>
<path d="M97.3581 382.023H20.6775C18.0125 382.023 15.832 379.825 15.832 377.139V374.616C15.832 371.929 18.0125 369.732 20.6775 369.732H97.3581C100.023 369.732 102.204 371.929 102.204 374.616V377.139C102.204 379.825 100.023 382.023 97.3581 382.023Z" fill="#01A089" stroke="#161616" stroke-width="2" stroke-miterlimit="10"/>
<path d="M104.869 394.965H28.1893C25.5243 394.965 23.3438 392.767 23.3438 390.081V387.558C23.3438 384.872 25.5243 382.674 28.1893 382.674H104.869C107.534 382.674 109.715 384.872 109.715 387.558V390.081C109.715 392.767 107.534 394.965 104.869 394.965Z" fill="#FDF311" stroke="#161616" stroke-width="2" stroke-miterlimit="10"/>
<path d="M87.1824 407.581H10.5018C7.83674 407.581 5.65625 405.384 5.65625 402.698V400.174C5.65625 397.488 7.83674 395.29 10.5018 395.29H87.1824C89.8475 395.29 92.028 397.488 92.028 400.174V402.698C92.028 405.384 89.8475 407.581 87.1824 407.581Z" fill="#01A089" stroke="#161616" stroke-width="2" stroke-miterlimit="10"/>
<path d="M96.5502 419.465H19.91C17.2449 419.465 15.0645 417.268 15.0645 414.582V412.058C15.0645 409.372 17.2449 407.174 19.91 407.174H96.5906C99.2557 407.174 101.436 409.372 101.436 412.058V414.582C101.396 417.268 99.2153 419.465 96.5502 419.465Z" fill="#FDF311" stroke="#161616" stroke-width="2" stroke-miterlimit="10"/>
<path d="M104.869 431.756H28.1893C25.5243 431.756 23.3438 429.559 23.3438 426.873V424.349C23.3438 421.663 25.5243 419.465 28.1893 419.465H104.869C107.534 419.465 109.715 421.663 109.715 424.349V426.873C109.715 429.559 107.534 431.756 104.869 431.756Z" fill="#01A089" stroke="#161616" stroke-width="2" stroke-miterlimit="10"/>
<path d="M74.9473 375.023C74.9473 376.691 74.9473 378.401 74.9473 380.069C74.9473 380.639 75.876 380.68 75.876 380.069C75.876 378.401 75.876 376.691 75.876 375.023C75.8356 374.412 74.9473 374.412 74.9473 375.023Z" fill="#161616"/>
<path d="M77.6523 375.918C77.6523 377.464 77.6523 378.97 77.6523 380.517C77.6523 381.087 78.581 381.127 78.581 380.517C78.581 378.97 78.581 377.464 78.581 375.918C78.581 375.348 77.6523 375.348 77.6523 375.918Z" fill="#161616"/>
<path d="M86.7793 373.395C86.7793 375.552 86.7793 377.668 86.7793 379.825C86.7793 380.395 87.708 380.435 87.708 379.825C87.708 377.668 87.708 375.552 87.708 373.395C87.708 372.825 86.7793 372.825 86.7793 373.395Z" fill="#161616"/>
<path d="M88.5957 377.057C88.5957 377.912 88.5957 378.726 88.5957 379.581C88.5957 380.151 89.5245 380.191 89.5245 379.581C89.5245 378.726 89.5245 377.912 89.5245 377.057C89.5245 376.488 88.5957 376.488 88.5957 377.057Z" fill="#161616"/>
<path d="M25.9277 373.232C25.9277 375.592 25.9277 377.953 25.9277 380.354C25.9277 380.924 26.8564 380.965 26.8564 380.354C26.8564 377.994 26.8564 375.633 26.8564 373.232C26.816 372.621 25.9277 372.621 25.9277 373.232Z" fill="#161616"/>
<path d="M22.1719 375.023C22.1719 376.406 22.1719 377.831 22.1719 379.215C22.1719 379.784 23.1006 379.825 23.1006 379.215C23.1006 377.831 23.1006 376.406 23.1006 375.023C23.1006 374.453 22.1719 374.453 22.1719 375.023Z" fill="#161616"/>
<path d="M37.2734 373.517C37.2734 375.43 37.2734 377.342 37.2734 379.214C37.2734 379.784 38.2021 379.825 38.2021 379.214C38.2021 377.302 38.2021 375.389 38.2021 373.517C38.1617 372.906 37.2734 372.906 37.2734 373.517Z" fill="#161616"/>
<path d="M33.1152 376.854C33.1152 378.116 33.1152 379.377 33.1152 380.639C33.1152 381.209 34.0439 381.249 34.0439 380.639C34.0439 379.377 34.0439 378.116 34.0439 376.854C34.0035 376.244 33.1152 376.244 33.1152 376.854Z" fill="#161616"/>
<path d="M54.2734 373.639C54.2734 376.121 54.2734 378.563 54.2734 381.046C54.2734 381.616 55.2022 381.656 55.2022 381.046C55.2022 378.563 55.2022 376.121 55.2022 373.639C55.2022 373.069 54.2734 373.069 54.2734 373.639Z" fill="#161616"/>
<path d="M57.0605 376.447C57.0605 377.709 57.0605 378.97 57.0605 380.232C57.0605 380.802 57.9892 380.842 57.9892 380.232C57.9892 378.97 57.9892 377.709 57.9892 376.447C57.9488 375.837 57.0605 375.837 57.0605 376.447Z" fill="#161616"/>
<path d="M61.1777 373.069C61.1777 375.552 61.1777 377.994 61.1777 380.476C61.1777 381.046 62.1064 381.087 62.1064 380.476C62.1064 377.994 62.1064 375.552 62.1064 373.069C62.1064 372.499 61.1777 372.499 61.1777 373.069Z" fill="#161616"/>
<path d="M34.2051 385.482C34.2051 388.412 34.2051 391.343 34.2051 394.273C34.2051 394.843 35.1339 394.883 35.1339 394.273C35.1339 391.343 35.1339 388.412 35.1339 385.482C35.1339 384.912 34.2051 384.912 34.2051 385.482Z" fill="#161616"/>
<path d="M39.2129 388.412C39.2129 390.488 39.2129 392.604 39.2129 394.68C39.2129 395.25 40.1416 395.29 40.1416 394.68C40.1416 392.604 40.1416 390.488 40.1416 388.412C40.1012 387.843 39.2129 387.843 39.2129 388.412Z" fill="#161616"/>
<path d="M55.4043 386.744C55.4043 388.819 55.4043 390.936 55.4043 393.011C55.4043 393.581 56.333 393.622 56.333 393.011C56.333 390.936 56.333 388.819 56.333 386.744C56.2926 386.174 55.4043 386.174 55.4043 386.744Z" fill="#161616"/>
<path d="M65.9023 384.505C65.9023 387.883 65.9023 391.302 65.9023 394.68C65.9023 395.25 66.831 395.29 66.831 394.68C66.831 391.302 66.831 387.883 66.831 384.505C66.7906 383.936 65.9023 383.936 65.9023 384.505Z" fill="#161616"/>
<path d="M75.4316 388.575C75.4316 389.674 75.4316 390.814 75.4316 391.912C75.4316 392.482 76.3604 392.523 76.3604 391.912C76.3604 390.814 76.3604 389.674 76.3604 388.575C76.3604 387.965 75.4316 387.965 75.4316 388.575Z" fill="#161616"/>
<path d="M15.1055 398.75C15.1055 401.436 15.1055 404.122 15.1055 406.849C15.1055 407.419 16.0342 407.459 16.0342 406.849C16.0342 404.163 16.0342 401.477 16.0342 398.75C16.0342 398.139 15.1055 398.139 15.1055 398.75Z" fill="#161616"/>
<path d="M36.4258 399.035C36.4258 401.843 36.4258 404.61 36.4258 407.419C36.4258 407.988 37.3545 408.029 37.3545 407.419C37.3545 404.61 37.3545 401.843 37.3545 399.035C37.3545 398.424 36.4258 398.424 36.4258 399.035Z" fill="#161616"/>
<path d="M27.582 399.727C27.582 401.599 27.582 403.43 27.582 405.302C27.582 405.872 28.5107 405.913 28.5107 405.302C28.5107 403.43 28.5107 401.599 28.5107 399.727C28.4704 399.116 27.582 399.116 27.582 399.727Z" fill="#161616"/>
<path d="M30.6113 397.895C30.6113 399.442 30.6113 400.948 30.6113 402.494C30.6113 403.064 31.5401 403.105 31.5401 402.494C31.5401 400.948 31.5401 399.442 31.5401 397.895C31.5401 397.325 30.6113 397.325 30.6113 397.895Z" fill="#161616"/>
<path d="M59.9668 398.058C59.9668 400.907 59.9668 403.715 59.9668 406.564C59.9668 407.134 60.8956 407.174 60.8956 406.564C60.8956 403.715 60.8956 400.907 60.8956 398.058C60.8552 397.447 59.9668 397.447 59.9668 398.058Z" fill="#161616"/>
<path d="M52.3359 397.895C52.3359 398.587 52.3359 399.279 52.3359 399.971C52.3359 400.541 53.2646 400.581 53.2646 399.971C53.2646 399.279 53.2646 398.587 53.2646 397.895C53.2646 397.325 52.3359 397.325 52.3359 397.895Z" fill="#161616"/>
<path d="M78.0566 395.413C78.0566 398.099 78.0566 400.785 78.0566 403.512C78.0566 404.081 78.9853 404.122 78.9853 403.512C78.9853 400.825 78.9853 398.139 78.9853 395.413C78.9853 394.802 78.0566 394.802 78.0566 395.413Z" fill="#161616"/>
<path d="M82.0957 401.232C82.0957 402.86 82.0957 404.488 82.0957 406.116C82.0957 406.686 83.0245 406.727 83.0245 406.116C83.0245 404.488 83.0245 402.86 83.0245 401.232C82.9841 400.663 82.0957 400.663 82.0957 401.232Z" fill="#161616"/>
<path d="M67.5586 397.895C67.5586 400.256 67.5586 402.616 67.5586 405.017C67.5586 405.587 68.4873 405.628 68.4873 405.017C68.4873 402.657 68.4873 400.296 68.4873 397.895C68.4873 397.325 67.5586 397.325 67.5586 397.895Z" fill="#161616"/>
<path d="M22.8594 408.517C22.8594 411.529 22.8594 414.541 22.8594 417.593C22.8594 418.163 23.7881 418.204 23.7881 417.593C23.7881 414.582 23.7881 411.57 23.7881 408.517C23.7881 407.907 22.8594 407.907 22.8594 408.517Z" fill="#161616"/>
<path d="M29.8838 419.221C29.8838 416.21 29.8838 413.198 29.8838 410.145C29.8838 409.576 28.9551 409.535 28.9551 410.145C28.9551 413.157 28.9551 416.169 28.9551 419.221C28.9551 419.832 29.8838 419.832 29.8838 419.221Z" fill="#161616"/>
<path d="M32.792 418.977C32.792 417.797 32.792 416.657 32.792 415.477C32.792 414.907 31.8633 414.866 31.8633 415.477C31.8633 416.657 31.8633 417.797 31.8633 418.977C31.8633 419.547 32.792 419.547 32.792 418.977Z" fill="#161616"/>
<path d="M39.2129 407.826C39.2129 411 39.2129 414.134 39.2129 417.308C39.2129 417.878 40.1416 417.919 40.1416 417.308C40.1416 414.134 40.1416 411 40.1416 407.826C40.1012 407.215 39.2129 407.215 39.2129 407.826Z" fill="#161616"/>
<path d="M41.5547 412.262C41.5547 413.768 41.5547 415.233 41.5547 416.739C41.5547 417.308 42.4835 417.349 42.4835 416.739C42.4835 415.233 42.4835 413.768 42.4835 412.262C42.4431 411.692 41.5547 411.692 41.5547 412.262Z" fill="#161616"/>
<path d="M44.7441 410.593C44.7441 412.221 44.7441 413.849 44.7441 415.477C44.7441 416.047 45.6728 416.087 45.6728 415.477C45.6728 413.849 45.6728 412.221 45.6728 410.593C45.6324 410.023 44.7441 410.023 44.7441 410.593Z" fill="#161616"/>
<path d="M55.123 407.826C55.123 411.122 55.123 414.419 55.123 417.715C55.123 418.285 56.0517 418.326 56.0517 417.715C56.0517 414.419 56.0517 411.122 56.0517 407.826C56.0113 407.215 55.123 407.215 55.123 407.826Z" fill="#161616"/>
<path d="M65.6191 411.448C65.6191 413.279 65.6191 415.07 65.6191 416.901C65.6191 417.471 66.5478 417.512 66.5478 416.901C66.5478 415.07 66.5478 413.279 66.5478 411.448C66.5478 410.837 65.6191 410.837 65.6191 411.448Z" fill="#161616"/>
<path d="M79.9961 407.541C79.9961 411.041 79.9961 414.5 79.9961 418C79.9961 418.57 80.9248 418.611 80.9248 418C80.9248 414.5 80.9248 411.041 80.9248 407.541C80.9248 406.93 79.9961 406.93 79.9961 407.541Z" fill="#161616"/>
<path d="M84.4375 412.669C84.4375 414.337 84.4375 416.006 84.4375 417.675C84.4375 418.244 85.3662 418.285 85.3662 417.675C85.3662 416.006 85.3662 414.337 85.3662 412.669C85.3662 412.099 84.4375 412.099 84.4375 412.669Z" fill="#161616"/>
<path d="M92.0684 408.07C92.0684 410.674 92.0684 413.279 92.0684 415.884C92.0684 416.454 92.9972 416.494 92.9972 415.884C92.9972 413.279 92.9972 410.674 92.9972 408.07C92.9568 407.5 92.0684 407.5 92.0684 408.07Z" fill="#161616"/>
<path d="M34.165 431.39C34.165 428.378 34.165 425.367 34.165 422.314C34.165 421.745 33.2363 421.704 33.2363 422.314C33.2363 425.326 33.2363 428.338 33.2363 431.39C33.2363 431.96 34.165 431.96 34.165 431.39Z" fill="#161616"/>
<path d="M37.4756 431.227C37.4756 429.681 37.4756 428.175 37.4756 426.628C37.4756 426.059 36.5469 426.018 36.5469 426.628C36.5469 428.175 36.5469 429.681 36.5469 431.227C36.5872 431.838 37.4756 431.838 37.4756 431.227Z" fill="#161616"/>
<path d="M46.8047 420.646C46.8047 424.146 46.8047 427.605 46.8047 431.105C46.8047 431.675 47.7334 431.716 47.7334 431.105C47.7334 427.605 47.7334 424.146 47.7334 420.646C47.7334 420.035 46.8047 420.035 46.8047 420.646Z" fill="#161616"/>
<path d="M55.123 422.314C55.123 424.471 55.123 426.588 55.123 428.745C55.123 429.314 56.0517 429.355 56.0517 428.745C56.0517 426.588 56.0517 424.471 56.0517 422.314C56.0113 421.704 55.123 421.704 55.123 422.314Z" fill="#161616"/>
<path d="M52.2148 423.576C52.2148 424.431 52.2148 425.245 52.2148 426.099C52.2148 426.669 53.1435 426.71 53.1435 426.099C53.1435 425.245 53.1435 424.431 53.1435 423.576C53.1032 422.965 52.2148 422.965 52.2148 423.576Z" fill="#161616"/>
<path d="M70.1836 419.669C70.1836 423.291 70.1836 426.913 70.1836 430.535C70.1836 431.105 71.1124 431.146 71.1124 430.535C71.1124 426.913 71.1124 423.291 71.1124 419.669C71.1124 419.058 70.1836 419.058 70.1836 419.669Z" fill="#161616"/>
<path d="M73.6562 424.39C73.6562 426.018 73.6562 427.646 73.6562 429.274C73.6562 429.844 74.585 429.884 74.585 429.274C74.585 427.646 74.585 426.018 74.585 424.39C74.5446 423.82 73.6562 423.82 73.6562 424.39Z" fill="#161616"/>
<path d="M82.498 420.198C82.498 423.576 82.498 426.995 82.498 430.373C82.498 430.942 83.4268 430.983 83.4268 430.373C83.4268 426.995 83.4268 423.576 83.4268 420.198C83.4268 419.628 82.498 419.628 82.498 420.198Z" fill="#161616"/>
<path d="M98.5703 421.053C98.5703 423.983 98.5703 426.913 98.5703 429.844C98.5703 430.413 99.499 430.454 99.499 429.844C99.499 426.913 99.499 423.983 99.499 421.053C99.4586 420.483 98.5703 420.483 98.5703 421.053Z" fill="#161616"/>
<path d="M101.033 424.838C101.033 426.221 101.033 427.646 101.033 429.03C101.033 429.599 101.962 429.64 101.962 429.03C101.962 427.646 101.962 426.221 101.962 424.838C101.962 424.227 101.033 424.227 101.033 424.838Z" fill="#161616"/>
<path d="M90.6964 394.029C90.6964 391.872 90.6964 389.674 90.6964 387.517C90.6964 386.947 89.7676 386.907 89.7676 387.517C89.7676 389.674 89.7676 391.872 89.7676 394.029C89.808 394.599 90.6964 394.639 90.6964 394.029Z" fill="#161616"/>
<path d="M96.2676 384.872C96.2676 387.802 96.2676 390.692 96.2676 393.622C96.2676 394.192 97.1963 394.232 97.1963 393.622C97.1963 390.692 97.1963 387.802 97.1963 384.872C97.1559 384.302 96.2676 384.261 96.2676 384.872Z" fill="#161616"/>
<path d="M100.468 367.453C102.689 368.755 103.9 371.197 103.698 373.761C103.658 374.331 104.546 374.331 104.627 373.761C104.869 370.871 103.456 368.144 100.953 366.679C100.428 366.354 99.9433 367.127 100.468 367.453Z" fill="#161616"/>
<path d="M7.99828 397.692C6.90803 399.482 6.70615 401.599 7.43298 403.552C7.63488 404.081 8.5232 403.878 8.32131 403.308C7.67524 401.558 7.83676 399.767 8.80587 398.139C9.08852 397.651 8.32131 397.163 7.99828 397.692Z" fill="#161616"/>
<path d="M3.43617 393.093C1.09416 396.064 -0.0768485 399.604 0.00391039 403.389C0.00391039 403.959 0.932633 404 0.932633 403.389C0.851874 399.849 1.94213 396.511 4.12262 393.703C4.44566 393.296 3.79958 392.645 3.43617 393.093Z" fill="#161616"/>
<path d="M100.064 406.076C101.679 406.93 102.689 408.558 102.689 410.43C102.689 411 103.618 411.041 103.618 410.43C103.618 408.273 102.447 406.279 100.549 405.302C100.024 405.017 99.5391 405.791 100.064 406.076Z" fill="#161616"/>
<path opacity="0.15" d="M58.1916 370.708C60.6548 370.383 66.4291 369.976 71.9207 373.313C73.4955 374.249 74.7069 375.307 75.7163 376.325C75.5952 378.197 75.4336 380.069 75.3125 381.941C69.3767 382.185 63.4814 382.43 57.5456 382.633C58.3532 382.674 64.8139 383.04 68.3269 388.331C69.8613 390.651 70.2247 392.971 70.3055 394.354C70.1036 395.82 69.4575 398.953 67.1155 401.965C64.289 405.587 60.7356 406.93 59.3627 407.378C60.0087 407.704 63.0776 409.454 64.1274 413.198C64.7331 415.396 64.3697 417.308 64.1274 418.204C60.2106 422.477 56.2938 426.75 52.377 431.064C70.3459 431.268 88.355 431.471 106.324 431.675C107.011 431.309 108.303 430.454 109.11 428.867C110.443 426.262 109.797 423.128 108.303 421.256C105.476 417.634 99.0557 418.896 98.3288 419.058C98.5307 418.936 101.802 416.454 101.519 412.425C101.317 409.535 99.3383 407.785 98.9345 407.419C96.0676 407.215 93.241 407.012 90.3741 406.808C90.6567 406.523 92.7968 404.163 92.3526 400.785C91.9892 398.18 90.253 395.982 87.7898 394.965C91.6259 394.924 94.937 394.843 97.5616 394.761C105.194 394.558 106.93 394.436 108.303 392.971C110.16 390.936 110.766 386.988 108.908 384.546C107.899 383.244 106.526 382.755 105.718 382.552C102.73 382.43 99.742 382.267 96.7539 382.145C97.1981 382.145 99.3383 382.185 100.954 380.558C102.529 378.93 102.407 376.773 102.367 375.755C102.327 375.104 102.084 372.418 100.186 370.749C98.2076 368.999 95.6638 369.488 91.0202 369.732C87.386 369.935 83.7115 369.569 80.0773 369.732C72.486 370.057 64.8139 370.424 58.1916 370.708Z" fill="#008370"/>
<path d="M59.2817 332.533C60.5334 339.167 61.7448 345.842 62.9966 352.476C42.1608 360.086 32.0256 365.336 32.6716 368.267C33.4388 371.807 49.7925 371.929 81.773 368.674C80.4001 354.836 79.0272 340.999 77.6543 327.12C71.5167 328.952 65.379 330.742 59.2817 332.533Z" fill="#161616" stroke="#161616" stroke-width="3" stroke-miterlimit="10"/>
<path d="M156.797 249.386C148.075 253.008 144.401 252.113 133.377 255.165C113.066 260.782 98.3679 271.282 89.2017 279.218C89.6459 294.358 90.0901 309.498 90.5343 324.638C89.6055 325.737 79.4299 337.376 64.0049 335.789C53.3851 334.69 46.7629 327.934 44.9862 325.981C44.7036 312.021 44.9458 297.125 45.8746 281.457C46.4399 272.381 47.1667 263.59 48.0954 255.165C49.4683 253.212 51.5681 250.403 54.2735 247.148C75.5131 221.67 100.952 210.356 114.803 204.414C128.612 198.472 137.253 194.769 150.135 193.71C153.567 193.425 187.889 190.984 193.421 204.862C198.55 217.519 178.319 240.473 156.797 249.386Z" fill="#FDF311" stroke="#161616" stroke-width="3" stroke-miterlimit="10"/>
<path opacity="0.16" d="M191.201 200.588C183.529 195.257 166.61 217.967 132.933 239.374C100.549 259.927 83.5898 259.601 73.818 279.584C70.8299 285.648 67.7207 295.253 65.8229 305.021C63.4809 317.312 63.4809 327.812 64.0058 335.26C66.6305 335.138 69.7397 334.772 73.0912 333.876C81.2075 331.719 86.9817 327.609 90.3736 324.719C89.9294 309.294 89.4449 293.87 89.0007 278.485C94.6538 273.846 103.658 267.212 115.812 261.555C138.546 250.933 147.066 255.491 165.802 244.624C170.123 242.142 194.552 227.938 193.987 209.379C193.825 206.408 193.785 202.379 191.201 200.588Z" fill="#3D3D3D"/>
<path opacity="0.25" d="M194.351 207.914C192.655 206.53 186.074 215.81 170.285 227.165C150.661 241.246 141.212 241.084 119.609 254.188C111.816 258.91 100.55 266.479 88.0723 277.997C90.4951 276.939 94.4119 275.148 98.9748 272.503C108.262 267.049 110.524 263.712 117.59 260.13C120.134 258.869 124.899 257.566 134.388 255.084C150.984 250.729 153.366 250.933 159.383 248.206C167.337 244.624 172.546 240.107 175.292 237.665C188.456 226.025 196.491 209.624 194.351 207.914Z" fill="#3D3D3D"/>
<path opacity="0.2" d="M88.5161 278.445C83.3476 297.207 78.2194 316.01 73.0508 334.772C75.3524 334.161 78.179 333.184 81.2478 331.556C85.6492 329.196 88.7584 326.388 90.7774 324.231C90.0102 308.969 89.2833 293.707 88.5161 278.445Z" fill="#3D3D3D"/>
<path d="M190.634 396.104C191.886 402.738 193.097 409.413 194.349 416.047C175.492 425.611 166.527 431.553 167.335 433.873C168.344 436.681 183.567 434.239 212.964 426.588C211.631 414.622 210.339 402.657 209.007 390.691C202.869 392.523 196.772 394.314 190.634 396.104Z" fill="#161616" stroke="#161616" stroke-width="3" stroke-miterlimit="10"/>
<path d="M206.787 189.274C208.2 200.263 210.017 216.827 210.905 237.054C212.238 268.27 210.3 285.648 209.977 308.725C209.694 328.952 210.623 357.97 216.357 393.744C213.247 395.82 206.221 399.93 196.288 400.622C186.839 401.273 179.611 398.506 176.219 396.959C175.331 379.621 173.756 361.185 171.212 341.812C166.528 306.12 159.462 273.968 151.628 245.805C146.783 239.049 141.897 232.333 137.051 225.577C154.697 213.001 172.303 200.466 189.948 187.89C195.521 188.379 201.133 188.827 206.787 189.274Z" fill="#FDF311" stroke="#161616" stroke-width="3" stroke-miterlimit="10"/>
<path d="M143.714 229.077C142.462 227.327 141.251 225.537 139.999 223.787C139.636 225.17 139.272 226.554 138.909 227.979C144.885 224.234 150.74 220.286 156.353 215.972C161.037 212.391 165.398 208.443 170.122 204.943C173.11 202.705 176.179 200.588 179.248 198.472C182.196 196.478 185.184 193.955 188.414 192.367C190.15 191.513 192.21 191.635 194.067 191.635C197.621 191.635 201.134 191.757 204.647 191.96C208.523 192.164 208.523 186.059 204.647 185.855C201.134 185.693 197.58 185.53 194.067 185.53C191.806 185.53 189.464 185.53 187.324 186.222C183.972 187.321 180.944 189.966 178.077 191.96C174.766 194.199 171.495 196.437 168.265 198.798C163.258 202.461 158.654 206.571 153.768 210.356C148.035 214.792 142.018 218.862 135.88 222.688C134.588 223.502 133.821 225.496 134.79 226.88C136.042 228.63 137.253 230.42 138.505 232.17C140.726 235.345 145.975 232.293 143.714 229.077Z" fill="#FDF311"/>
<path opacity="0.14" d="M166.65 194.158C172.788 212.432 178.481 232.781 183.004 255.043C194.269 310.759 194.471 360.33 191.201 399.279C193.139 399.971 195.602 400.581 198.469 400.663C207.554 400.907 214.096 395.616 216.196 393.785C214.419 384.79 212.117 371.319 210.744 354.877C207.756 319.265 211.511 299.079 212.117 268.799C212.481 250.403 211.794 224.275 206.666 192.327C193.3 192.937 179.975 193.548 166.65 194.158Z" fill="#3D3D3D"/>
<path opacity="0.2" d="M207.998 211.129C206.868 251.217 204.93 292.445 202.103 334.772C200.649 356.627 198.953 378.156 197.096 399.32C198.953 399.645 202.265 399.971 206.181 398.872C211.269 397.407 214.419 394.354 215.711 392.93C211.188 366.476 210.058 345.028 209.815 330.661C209.371 303.474 211.915 289.596 211.188 257.851C210.704 237.665 209.169 221.304 207.998 211.129Z" fill="#3D3D3D"/>
<path d="M42.8476 45.7707C43.3725 44.5497 38.204 42.0264 38.7289 40.6019C39.2538 39.1368 45.6741 38.7705 49.9947 41.9857C54.5172 45.323 54.2346 50.2068 56.8189 56.4744C59.7666 63.5152 64.4102 67.3409 71.4766 73.2015C75.7165 76.7423 92.272 90.01 116.136 89.2774C126.958 88.9519 136.003 85.8181 142.706 82.5215C141.777 94.202 140.808 105.924 139.879 117.604C134.388 118.866 126.837 119.965 117.994 119.191C85.8517 116.383 65.2178 91.3938 58.8379 83.7017C54.9614 79.0214 49.6717 71.8178 44.8262 62.0094C41.0305 63.149 35.1351 64.4513 28.0687 63.7187C23.0616 63.2304 17.0855 61.6838 17.1259 60.2594C17.1663 58.3872 27.463 57.1256 27.3822 56.4744C27.3015 55.9046 19.1852 58.143 17.1259 55.0906C15.5107 52.6894 17.7719 47.2765 21.5676 45.0788C22.7386 44.4276 24.0711 44.0206 27.3822 44.0613C36.3465 44.0613 42.363 46.8695 42.8476 45.7707Z" fill="white" stroke="#161616" stroke-width="3" stroke-miterlimit="10"/>
<path d="M17.0039 52.771C19.0632 52.2826 21.4456 53.3001 23.5454 53.3815C25.4028 53.4629 27.2603 53.3001 29.0773 52.9338C29.8446 52.771 29.5215 51.5907 28.7543 51.7535C26.4527 52.2012 24.151 52.3233 21.809 51.9977C20.0323 51.7535 18.4575 51.1837 16.6808 51.5907C15.9136 51.7535 16.2367 52.9338 17.0039 52.771Z" fill="#161616"/>
<path d="M18.6984 48.7419C21.1212 48.2535 23.2613 49.271 25.6033 49.3931C27.6626 49.5152 29.722 49.1082 31.741 48.5791C32.5082 48.3756 32.1851 47.1954 31.4179 47.3989C28.7933 48.0907 26.2494 48.4163 23.5439 47.8465C21.7269 47.4802 20.1924 47.1547 18.335 47.521C17.6082 47.7244 17.9312 48.9047 18.6984 48.7419Z" fill="#161616"/>
<path d="M41.03 49.9624C43.0894 52.1601 45.8756 53.2997 48.8637 53.2183C49.6309 53.1776 49.6309 51.9567 48.8637 51.9974C46.1582 52.1194 43.7355 51.102 41.9184 49.1078C41.3531 48.538 40.5051 49.3926 41.03 49.9624Z" fill="#161616"/>
<path opacity="0.18" d="M17.1235 54.765C17.2446 53.6661 26.0473 53.3812 34.1232 54.5615C38.4842 55.172 42.724 55.7825 46.7216 57.6953C55.4436 61.8058 58.3105 69.6607 62.833 76.8643C62.833 76.8643 72.9682 92.8589 91.0986 101.813C109.108 110.685 129.661 104.743 141.25 100.022C140.806 105.883 140.361 111.743 139.917 117.604C129.217 119.802 120.656 119.273 115.165 118.499C84.5975 114.145 65.4173 90.4576 57.7856 81.0563C51.6075 73.4456 47.4888 66.4455 44.9853 61.6837C40.9877 63.1489 35.0519 64.6547 27.9855 63.9222C23.0996 63.3931 17.3253 61.7651 17.3657 60.3407C17.4465 58.5093 27.1779 57.4104 27.0972 57.0034C27.0568 56.7999 24.311 57.4104 20.9191 56.5557C19.5866 56.2301 17.0831 55.3755 17.1235 54.765Z" fill="#3D3D3D"/>
<path opacity="0.24" d="M108.827 111.54C123.242 111.743 134.387 106.046 140.202 102.423C140 107.633 139.758 112.802 139.556 118.011C131.561 119.354 117.549 120.494 101.559 115.325C72.6068 106.005 58.3932 82.807 54.7188 76.3359C55.8898 78.4522 74.9085 111.092 108.827 111.54Z" fill="#3D3D3D"/>
<path opacity="0.19" d="M30.8531 61.4398C39.4943 61.4805 45.309 60.1781 45.4301 60.7886C45.5109 61.277 41.9171 62.7421 38.1214 63.4747C27.0979 65.591 17.003 60.9921 17.1241 60.3409C17.2453 59.8932 21.7678 61.3991 30.8531 61.4398Z" fill="#3D3D3D"/>
<path d="M40.303 28.0673C46.5919 28.0673 51.69 22.9288 51.69 16.5903C51.69 10.2517 46.5919 5.11328 40.303 5.11328C34.0141 5.11328 28.916 10.2517 28.916 16.5903C28.916 22.9288 34.0141 28.0673 40.303 28.0673Z" fill="#01A089"/>
<path d="M38.0016 28.7994C45.1379 28.7994 50.923 22.9503 50.923 15.7351C50.923 8.51996 45.1379 2.6709 38.0016 2.6709C30.8653 2.6709 25.0801 8.51996 25.0801 15.7351C25.0801 22.9503 30.8653 28.7994 38.0016 28.7994Z" stroke="black" stroke-width="2" stroke-miterlimit="10"/>
<path d="M39.7775 8.57299C37.2336 8.41019 30.6922 10.8928 33.1149 14.5963C34.5282 16.7534 37.274 15.3289 39.2526 15.858C41.7965 16.5499 41.5139 19.643 39.9391 21.1488C38.2835 22.6954 35.9415 22.4512 34.3667 21.0267C33.8014 20.4976 32.913 21.3523 33.5187 21.8814C36.7087 24.8117 42.4022 23.143 42.4022 18.3813C42.4022 16.2243 40.9485 14.8405 38.9296 14.5963C37.4355 14.3929 33.2361 15.5324 34.2052 12.4393C34.8512 10.323 37.9604 9.67185 39.8179 9.79395C40.5851 9.83464 40.5851 8.61369 39.7775 8.57299Z" fill="black"/>
<path d="M38.4047 9.14263C38.5258 7.79958 38.6469 6.49722 38.7681 5.15417C38.8488 4.3809 37.6375 4.3809 37.5567 5.15417C37.4356 6.49722 37.3144 7.79958 37.1933 9.14263C37.1125 9.9159 38.3239 9.9159 38.4047 9.14263Z" fill="#01A089"/>
<path d="M37.5976 23.7127C37.7187 24.6488 37.8399 25.6256 37.9206 26.5616C38.0014 27.3349 39.2128 27.3349 39.132 26.5616C39.0109 25.6256 38.8897 24.6488 38.809 23.7127C38.7282 22.9395 37.5168 22.9395 37.5976 23.7127Z" fill="#01A089"/>
<path d="M154.899 79.6325C153.566 79.7139 149.084 79.9173 143.35 81.3418C140.079 82.1558 137.495 83.0918 136.001 83.7023C133.296 89.2373 129.823 97.784 128.531 108.61C126.673 124.034 130.388 133.965 132.932 149.308C134.669 159.849 136.082 175.111 134.144 194.402C138.262 198.187 149.003 207.019 165.317 209.298C188.414 212.554 205.373 200.263 208.886 197.617C211.026 184.268 213.045 170.553 214.862 156.512C217.971 132.744 220.313 109.749 222.05 87.6501C210.865 77.0278 201.173 74.1788 194.349 73.6091C181.226 72.4695 169.354 78.8185 154.899 79.6325Z" fill="#01A089"/>
<path opacity="0.17" d="M173.031 89.8884C175.534 92.4931 178.967 96.4409 182.036 101.813C196.774 127.616 187.648 157.733 183.57 171.082C180.743 180.443 175.373 194.158 164.793 208.972C168.831 209.664 173.919 210.071 179.734 209.501C193.544 208.118 203.558 201.809 208.565 198.065C212.361 176.332 215.591 153.215 218.094 128.796C219.548 114.47 220.638 100.511 221.446 87.0395C219.871 85.493 217.448 83.4173 214.218 81.3417C209.009 77.9637 200.812 72.7136 191.565 74.3415C179.774 76.3765 173.798 88.2605 173.031 89.8884Z" fill="#3D3D3D"/>
<path opacity="0.11" d="M219.628 96.3594C217.569 102.179 214.379 111.459 211.149 123.098C201.538 157.244 202.225 171.896 190.555 189.518C187.002 194.891 181.025 202.501 170.971 210.031C175.938 209.99 183.125 209.379 191.322 206.653C198.752 204.17 204.446 200.833 208.322 198.106C211.472 181.094 214.258 162.739 216.317 143.081C217.973 126.721 219.063 111.092 219.628 96.3594Z" fill="#3D3D3D"/>
<path d="M200.891 174.704C200.043 173.117 200.932 170.756 202.264 169.495C204.727 167.134 209.21 168.03 211.229 170.594C211.511 170.96 212.884 172.669 212.319 174.134C211.107 177.105 202.628 177.879 200.891 174.704Z" fill="white" stroke="#161616" stroke-width="3" stroke-miterlimit="10"/>
<path d="M212.279 80.7314C218.295 84.9234 225.725 91.0282 232.872 99.5749C240.665 108.854 245.753 118.215 249.145 126.069C252.012 132.785 253.748 138.767 254.839 143.285C251.245 151.628 244.501 163.919 232.065 174.704C227.582 178.611 223.141 181.623 219.062 183.983C216.922 186.385 213.934 189.437 209.977 192.571C207.393 194.646 203.88 197.414 203.072 196.722C202.426 196.152 203.557 193.344 205.293 191.391C207.352 189.111 209.896 188.42 209.856 188.297C209.816 188.175 207.554 188.582 205.455 190.21C203.032 192.123 203.153 193.914 201.942 194.199C199.398 194.809 193.543 188.623 194.431 182.355C195.158 177.105 200.286 174.297 202.022 173.32C206.787 170.675 211.431 171.163 213.127 171.408C219.184 161.925 225.241 152.483 231.297 143C229.642 141.657 227.461 139.744 225.079 137.261C222.293 134.372 214.459 126.151 210.704 114.877C205.656 99.7377 210.3 85.7781 212.279 80.7314Z" fill="white" stroke="#161616" stroke-width="3" stroke-miterlimit="10"/>
<path d="M195.4 187.524C196.894 184.187 199.438 181.582 202.749 180.117C203.476 179.791 202.829 178.733 202.143 179.059C198.67 180.605 195.884 183.414 194.35 186.914C194.027 187.606 195.077 188.216 195.4 187.524Z" fill="#161616"/>
<path d="M199.841 193.181C198.59 189.356 202.264 185.408 205.293 183.658C205.979 183.251 205.373 182.193 204.687 182.6C201.174 184.635 197.217 189.111 198.67 193.507C198.913 194.239 200.084 193.914 199.841 193.181Z" fill="#161616"/>
<path opacity="0.18" d="M210.421 87.4469C215.267 92.4935 222.091 100.022 229.4 109.912C239.656 123.709 244.744 130.628 245.107 137.913C245.753 151.425 235.699 168.314 222.454 174.745C218.618 176.617 208.645 180.402 202.911 187.809C201.255 189.925 199.559 192.856 200.165 193.507C200.69 194.036 202.628 192.652 203.274 193.303C204.041 194.077 202.184 196.437 202.709 196.966C203.355 197.617 206.949 195.298 210.583 192.367C212.925 190.454 215.792 187.85 218.82 184.431C222.656 182.233 226.735 179.466 230.894 175.966C244.098 164.855 251.204 151.872 255 143C254.071 139.418 252.658 134.575 250.437 129C243.734 112.191 234.77 101.325 231.822 97.9064C227.582 92.9412 221.203 86.4701 212.279 80.2432C211.633 82.6445 211.027 85.0457 210.421 87.4469Z" fill="#3D3D3D"/>
<path opacity="0.21" d="M249.144 148.942C245.268 153.989 243.289 157.204 241.674 159.605C238.605 164.082 234.042 168.355 224.876 176.902C221.605 179.954 217.164 184.024 211.713 188.704C205.979 193.71 203.192 196.274 203.314 196.437C203.475 196.641 209.007 192.408 219.95 183.739C222.009 182.518 224.917 180.728 228.187 178.204C247.004 163.675 255.443 142.796 254.676 142.308C254.353 142.145 252.617 144.384 249.144 148.942Z" fill="#3D3D3D"/>
<path d="M146.459 12.8867C134.588 22.6951 135.072 42.5967 139.716 55.4574C142.663 63.5972 147.388 69.1729 150.497 72.2659C149.851 76.987 149.205 81.708 148.559 86.4291C151.991 88.0163 156.917 89.6849 162.934 89.9698C178.682 90.7431 189.948 81.4638 193.017 78.7777C190.23 69.3763 187.444 59.975 184.658 50.5329C184.295 47.8875 183.689 43.8176 183.043 38.8524C181.307 25.9103 181.387 25.2184 180.62 23.1021C180.297 22.2474 175.452 9.83436 164.186 7.63664C155.1 5.9273 147.59 11.9507 146.459 12.8867Z" fill="white" stroke="#161616" stroke-width="3" stroke-miterlimit="10"/>
<path d="M136.688 46.015C136.002 48.7418 135.275 53.0151 135.759 58.1431C136.082 61.5618 136.648 67.5038 140.888 73.2423C145.45 79.4285 151.588 81.789 154.213 82.6437C154.011 81.9518 153.769 81.0972 153.648 80.0797C153.526 79.0215 153.567 78.0448 153.648 77.3122C156.434 78.8587 159.26 80.3646 162.046 81.9111C169.113 75.3587 171.455 69.3353 172.262 64.9805C172.909 61.5618 173.312 55.2942 174.806 43.8172C175.089 41.7823 175.614 38.1194 177.916 37.1834C179.006 36.7357 180.459 36.9392 181.388 37.7532C184.174 40.1137 181.348 46.951 181.953 47.1545C182.559 47.358 187.445 40.48 185.79 32.6251C184.942 28.5553 182.6 25.7471 181.227 24.3633C178.158 29.2472 174.766 34.2938 171.011 39.4625C168.628 42.7591 166.246 45.8522 163.904 48.8639C163.016 49.3523 161.683 49.8813 160.149 49.7592C158.937 49.6371 158.533 49.2302 157.645 48.986C154.334 48.0499 152.557 51.9977 149.287 51.4686C146.621 51.0209 146.379 48.1313 143.432 48.0499C142.018 48.0092 141.453 48.6604 139.999 48.3755C138.465 47.9278 137.375 46.8696 136.688 46.015Z" fill="#161616" stroke="#161616" stroke-width="3" stroke-miterlimit="10"/>
<path d="M150.417 34.4568C149.408 39.1778 148.762 43.9395 148.479 48.742C148.438 49.2303 149.004 49.4745 149.408 49.271C151.063 48.4164 152.759 47.521 154.415 46.6663C155.101 46.3 154.495 45.2419 153.809 45.6082C152.153 46.4628 150.457 47.3582 148.802 48.2129C149.125 48.3757 149.408 48.5792 149.731 48.742C150.013 44.0209 150.619 39.3813 151.628 34.7824C151.75 34.0091 150.579 33.6835 150.417 34.4568Z" fill="#161616"/>
<path d="M143.955 39.3401C144.468 39.3401 144.884 38.2833 144.884 36.9796C144.884 35.6759 144.468 34.6191 143.955 34.6191C143.442 34.6191 143.027 35.6759 143.027 36.9796C143.027 38.2833 143.442 39.3401 143.955 39.3401Z" fill="#161616" stroke="#161616" stroke-width="3" stroke-miterlimit="10"/>
<path d="M159.623 39.3401C160.314 39.3401 160.875 38.2833 160.875 36.9796C160.875 35.6759 160.314 34.6191 159.623 34.6191C158.932 34.6191 158.371 35.6759 158.371 36.9796C158.371 38.2833 158.932 39.3401 159.623 39.3401Z" fill="#161616" stroke="#161616" stroke-width="3" stroke-miterlimit="10"/>
<path d="M141.696 32.3812C142.463 30.9567 144.159 31.2823 145.411 31.73C146.138 31.9742 146.461 30.7939 145.734 30.5497C143.957 29.8986 141.696 29.8579 140.646 31.7707C140.283 32.4219 141.332 33.0731 141.696 32.3812Z" fill="#161616"/>
<path d="M156.959 30.7125C158.857 28.881 161.764 29.0438 163.379 31.2416C163.823 31.852 164.873 31.2416 164.429 30.6311C162.37 27.8229 158.655 27.4566 156.111 29.8578C155.545 30.3869 156.393 31.2416 156.959 30.7125Z" fill="#161616"/>
<path d="M127.321 24.8924C144.321 25.9098 161.28 27.3343 178.159 29.2064C180.461 29.4506 180.461 25.7877 178.159 25.5435C161.24 23.6714 144.281 22.247 127.321 21.2295C124.979 21.1074 124.979 24.7703 127.321 24.8924Z" fill="#161616"/>
<path d="M138.303 22.3694C138.586 19.724 139.635 12.9273 144.804 7.39228C151.547 0.188634 164.025 -2.82306 173.716 3.28173C181.307 8.08416 185.385 17.3634 184.013 26.8055C168.789 25.3404 153.566 23.8752 138.303 22.3694Z" fill="#01A089"/>
<path opacity="0.69" d="M159.785 1.40969C157.806 3.07834 157.806 6.61911 158.493 10.3634C159.26 14.474 161.239 19.4799 164.186 24.6486C170.808 25.4219 177.431 26.2359 184.053 27.0091C184.336 25.544 184.618 23.4277 184.376 20.9044C184.376 20.9044 183.932 16.2647 181.509 12.0728C176.663 3.68882 163.984 -2.17178 159.785 1.40969Z" fill="#007665"/>
<path opacity="0.24" d="M180.539 49.1896C179.045 50.0035 177.551 49.8001 177.026 49.678C178.318 52.1606 182.316 60.5445 180.377 71.3703C178.52 81.667 172.463 87.8939 170.363 89.8882C172.988 89.3591 175.976 88.5044 179.206 87.202C185.344 84.6787 189.947 81.3415 193.056 78.6146C189.826 67.1783 186.596 55.742 183.365 44.3057C183.365 44.5092 183.204 47.7651 180.539 49.1896Z" fill="#3D3D3D"/>
<path opacity="0.19" d="M165.601 27.8633C166.085 29.939 166.489 33.0728 166.004 36.7356C165.156 42.9218 162.209 47.1952 160.674 49.1894C161.603 48.9045 162.532 48.5789 163.461 48.294C165.318 46.0149 167.216 43.573 169.073 41.0904C172.142 36.9798 174.969 32.91 177.553 29.0029C173.555 28.6366 169.598 28.2296 165.601 27.8633Z" fill="#3D3D3D"/>
</svg>
